<svg width="17" height="16" viewBox="0 0 17 16" fill="none" xmlns="http://www.w3.org/2000/svg">
<path d="M15.998 7H9.99805V1C9.99805 0.734784 9.89269 0.48043 9.70515 0.292893C9.51762 0.105357 9.26326 0 8.99805 0C8.73283 0 8.47848 0.105357 8.29094 0.292893C8.1034 0.48043 7.99805 0.734784 7.99805 1V7H1.99805C1.73283 7 1.47848 7.10536 1.29094 7.29289C1.1034 7.48043 0.998047 7.73478 0.998047 8C0.998047 8.26522 1.1034 8.51957 1.29094 8.70711C1.47848 8.89464 1.73283 9 1.99805 9H7.99805V15C7.99805 15.2652 8.1034 15.5196 8.29094 15.7071C8.47848 15.8946 8.73283 16 8.99805 16C9.26326 16 9.51762 15.8946 9.70515 15.7071C9.89269 15.5196 9.99805 15.2652 9.99805 15V9H15.998C16.2633 9 16.5176 8.89464 16.7052 8.70711C16.8927 8.51957 16.998 8.26522 16.998 8C16.998 7.73478 16.8927 7.48043 16.7052 7.29289C16.5176 7.10536 16.2633 7 15.998 7Z" fill="#B4BEC5"/>
</svg>
