<svg width="16" height="15" viewBox="0 0 16 15" fill="none" xmlns="http://www.w3.org/2000/svg">
<path d="M13.6 2.4H11.2V1.6C11.2 1.17565 11.0314 0.768687 10.7314 0.468629C10.4313 0.168571 10.0243 0 9.6 0H6.4C5.97565 0 5.56869 0.168571 5.26863 0.468629C4.96857 0.768687 4.8 1.17565 4.8 1.6V2.4H2.4C1.76348 2.4 1.15303 2.65286 0.702944 3.10294C0.252856 3.55303 0 4.16348 0 4.8V12C0 12.6365 0.252856 13.247 0.702944 13.6971C1.15303 14.1471 1.76348 14.4 2.4 14.4H13.6C14.2365 14.4 14.847 14.1471 15.2971 13.6971C15.7471 13.247 16 12.6365 16 12V4.8C16 4.16348 15.7471 3.55303 15.2971 3.10294C14.847 2.65286 14.2365 2.4 13.6 2.4ZM6.4 1.6H9.6V2.4H6.4V1.6ZM14.4 12C14.4 12.2122 14.3157 12.4157 14.1657 12.5657C14.0157 12.7157 13.8122 12.8 13.6 12.8H2.4C2.18783 12.8 1.98434 12.7157 1.83431 12.5657C1.68429 12.4157 1.6 12.2122 1.6 12V7.512L5.344 8.8C5.42894 8.81153 5.51506 8.81153 5.6 8.8H10.4C10.4868 8.7984 10.5729 8.78494 10.656 8.76L14.4 7.512V12ZM14.4 5.824L10.272 7.2H5.728L1.6 5.824V4.8C1.6 4.58783 1.68429 4.38434 1.83431 4.23431C1.98434 4.08429 2.18783 4 2.4 4H13.6C13.8122 4 14.0157 4.08429 14.1657 4.23431C14.3157 4.38434 14.4 4.58783 14.4 4.8V5.824Z" fill="#0E101A" fill-opacity="0.64"/>
</svg>
