<svg width="64" height="48" viewBox="0 0 64 48" fill="none" xmlns="http://www.w3.org/2000/svg">
<rect width="64" height="48" rx="4" fill="#ECEEF0"/>
<path d="M26.3672 26.3398H37.59V35.6575C37.59 36.3274 36.9443 36.8078 36.3027 36.6153L31.9786 35.3181L27.6545 36.6153C27.0129 36.8078 26.3672 36.3273 26.3672 35.6575L26.3672 26.3398Z" fill="#6E7377" fill-opacity="0.4"/>
<path d="M38.6998 14.5413L38.6564 14.512L38.6096 14.4886L38.4729 14.4202L36.9687 13.5576L36.9664 13.5562L33.8056 11.7292C33.8054 11.7291 33.8051 11.7289 33.8048 11.7288C33.1768 11.3639 32.4204 11.2 31.6977 11.2C30.9753 11.2 30.2194 11.3637 29.5916 11.7281L26.4285 13.5453L26.4285 13.5452L26.4214 13.5494L24.9185 14.4334L24.7409 14.5222L24.6945 14.5455L24.6514 14.5745C23.7112 15.2085 23.0067 15.7031 22.6169 16.3906C22.2159 17.0979 22.2 17.9127 22.2 18.9301V24.0028C22.2 25.0207 22.2157 25.8372 22.6245 26.5499C23.0195 27.2388 23.7335 27.7412 24.6955 28.3916L24.7193 28.4076L24.7441 28.4219L29.5856 31.2125C30.229 31.599 30.9886 31.7385 31.6977 31.7385C32.4086 31.7385 33.1726 31.5827 33.8049 31.2153C33.8052 31.2151 33.8054 31.215 33.8056 31.2149L38.697 28.3877L38.7201 28.3744L38.7422 28.3596C39.6864 27.7265 40.3938 27.234 40.783 26.5459C41.1829 25.8391 41.1954 25.0218 41.1954 24.0028V18.9301C41.1954 17.9122 41.1796 17.0957 40.7709 16.383C40.3759 15.694 39.6619 15.1917 38.6998 14.5413ZM33.1812 20.6811L34.1809 20.9391L33.5339 21.7346C33.3925 21.8973 33.3035 22.0856 33.2504 22.2426C33.1946 22.4074 33.1523 22.6152 33.1663 22.8308C33.1664 22.8314 33.1664 22.8321 33.1665 22.8327L33.2303 23.855L32.2895 23.4744L32.2741 23.4682L32.2585 23.4626C32.0669 23.3942 31.8653 23.3739 31.7033 23.3739C31.5413 23.3739 31.3397 23.3942 31.148 23.4626L31.1361 23.4669L31.1243 23.4715L30.1762 23.8444L30.2401 22.8215C30.2402 22.8208 30.2402 22.8201 30.2403 22.8194C30.2543 22.6038 30.2119 22.3961 30.1562 22.2314C30.1025 22.0725 30.012 21.8818 29.8678 21.7179L29.2152 20.9389L30.2142 20.6811L30.2142 20.6811L30.2204 20.6795C30.4409 20.6207 30.626 20.5062 30.757 20.4051C30.891 20.3017 31.0263 20.1673 31.1288 20.0135L31.1289 20.0136L31.1339 20.0058L31.6977 19.1385L32.2574 19.9995C32.371 20.1802 32.5229 20.3207 32.6549 20.4187C32.7901 20.5189 32.9659 20.6199 33.1613 20.6757L33.1712 20.6785L33.1812 20.6811Z" fill="#8EA7BE" stroke="#ECEEF0" stroke-width="1.6"/>
</svg>
