<svg width="58" height="58" viewBox="0 0 58 58" fill="none" xmlns="http://www.w3.org/2000/svg">
<circle opacity="0.4" cx="33.2269" cy="33.2269" r="24.7738" fill="#BBD1DC"/>
<path d="M18.0125 31.5916C18.0125 34.6876 20.3885 37.1836 23.3405 37.1836H29.3644C31.9324 37.1836 34.0205 34.9996 34.0205 32.3116C34.0205 29.3836 32.7485 28.3516 30.8525 27.6796L21.1805 24.3196C19.2845 23.6476 18.0125 22.6156 18.0125 19.6876C18.0125 16.9996 20.1004 14.8156 22.6684 14.8156H28.6925C31.6444 14.8156 34.0205 17.3116 34.0205 20.4076" stroke="#548CA8" stroke-width="3" stroke-linecap="round" stroke-linejoin="round"/>
<path d="M26 11.6V40.4" stroke="#548CA8" stroke-width="3" stroke-linecap="round" stroke-linejoin="round"/>
<path d="M26 50C39.2548 50 50 39.2548 50 26C50 12.7452 39.2548 2 26 2C12.7452 2 2 12.7452 2 26C2 39.2548 12.7452 50 26 50Z" stroke="#548CA8" stroke-width="3" stroke-linecap="round" stroke-linejoin="round"/>
</svg>
