<svg width="26" height="25" viewBox="0 0 26 25" fill="none" xmlns="http://www.w3.org/2000/svg">
<path opacity="0.64" d="M13.2399 7.58003C14.1975 5.19277 14.6763 3.99915 15.4996 3.99915C16.323 3.99915 16.8018 5.19277 17.7594 7.58003L17.8039 7.69119C18.3449 9.03988 18.6154 9.71422 19.1667 10.1241C19.718 10.534 20.4417 10.5988 21.889 10.7284L22.1507 10.7518C24.5194 10.964 25.7038 11.07 25.9573 11.8236C26.2107 12.5771 25.3311 13.3773 23.572 14.9778L22.9849 15.5119C22.0943 16.3221 21.6491 16.7272 21.4416 17.2581C21.4028 17.3572 21.3707 17.4586 21.3452 17.5619C21.2088 18.1154 21.3392 18.703 21.6 19.8784L21.6811 20.2442C22.1604 22.4042 22.4 23.4842 21.9816 23.9501C21.8253 24.1242 21.6221 24.2495 21.3964 24.3111C20.7923 24.4759 19.9347 23.7771 18.2195 22.3794C17.0932 21.4617 16.5301 21.0028 15.8835 20.8996C15.6292 20.859 15.3701 20.859 15.1158 20.8996C14.4692 21.0028 13.9061 21.4617 12.7798 22.3794C11.0646 23.7771 10.207 24.4759 9.60292 24.3111C9.3772 24.2495 9.17401 24.1242 9.01767 23.9501C8.59928 23.4842 8.83891 22.4042 9.31815 20.2442L9.39932 19.8784C9.66009 18.703 9.79048 18.1154 9.65407 17.5619C9.62862 17.4586 9.59644 17.3572 9.55773 17.2581C9.3502 16.7272 8.90494 16.3221 8.01443 15.5119L7.42731 14.9778C5.66817 13.3773 4.78859 12.5771 5.04202 11.8236C5.29545 11.07 6.47984 10.964 8.84861 10.7518L9.11026 10.7284C10.5576 10.5988 11.2813 10.534 11.8326 10.1241C12.3839 9.71422 12.6543 9.03987 13.1953 7.69119L13.2399 7.58003Z" fill="#BBD1DC"/>
<path d="M10.2408 4.58088C11.1984 2.19363 11.6772 1 12.5005 1C13.3238 1 13.8026 2.19363 14.7602 4.58088L14.8048 4.69205C15.3458 6.04073 15.6163 6.71507 16.1676 7.12494C16.7189 7.53482 17.4425 7.59963 18.8899 7.72925L19.1515 7.75268C21.5203 7.96483 22.7047 8.0709 22.9581 8.82443C23.2115 9.57796 22.332 10.3782 20.5728 11.9786L19.9857 12.5128C19.0952 13.323 18.6499 13.7281 18.4424 14.259C18.4037 14.358 18.3715 14.4595 18.3461 14.5627C18.2097 15.1162 18.34 15.7039 18.6008 16.8792L18.682 17.2451C19.1612 19.4051 19.4009 20.4851 18.9825 20.9509C18.8261 21.125 18.6229 21.2503 18.3972 21.3119C17.7932 21.4768 16.9356 20.7779 15.2203 19.3803C14.0941 18.4625 13.5309 18.0037 12.8844 17.9004C12.6301 17.8598 12.3709 17.8598 12.1166 17.9004C11.4701 18.0037 10.9069 18.4625 9.78065 19.3803C8.06544 20.7779 7.20783 21.4768 6.60377 21.3119C6.37805 21.2503 6.17486 21.125 6.01852 20.9509C5.60014 20.4851 5.83976 19.4051 6.31901 17.2451L6.40018 16.8792C6.66095 15.7039 6.79133 15.1162 6.65492 14.5627C6.62947 14.4595 6.59729 14.358 6.55858 14.259C6.35105 13.7281 5.90579 13.323 5.01528 12.5128L4.42817 11.9786C2.66902 10.3782 1.78945 9.57796 2.04288 8.82443C2.29631 8.0709 3.48069 7.96483 5.84946 7.75268L6.11112 7.72925C7.55846 7.59963 8.28214 7.53482 8.83342 7.12494C9.38471 6.71507 9.6552 6.04073 10.1962 4.69205L10.2408 4.58088Z" stroke="#548CA8" stroke-width="2"/>
</svg>
