<svg width="24" height="25" viewBox="0 0 24 25" fill="none" xmlns="http://www.w3.org/2000/svg">
<circle opacity="0.5" cx="15.3013" cy="16.3989" r="7.7" fill="#BBD1DC"/>
<path d="M13.5734 15.2973H3.64037C1.63837 15.2973 0.362369 13.1523 1.33037 11.3923L3.89337 6.72825L6.29137 2.36125C7.29237 0.54625 9.91037 0.54625 10.9114 2.36125L13.3204 6.72825L14.4754 8.82926L15.8834 11.3923C16.8514 13.1523 15.5754 15.2973 13.5734 15.2973Z" stroke="#548CA8" stroke-width="1.8" stroke-linecap="round" stroke-linejoin="round"/>
<path d="M22.9989 15.847C22.9989 19.796 19.7979 22.997 15.8489 22.997C11.8999 22.997 8.69891 19.796 8.69891 15.847C8.69891 15.66 8.70991 15.484 8.72091 15.297H13.5719C15.5739 15.297 16.8499 13.152 15.8819 11.392L14.4739 8.82899C14.9139 8.74099 15.3759 8.69699 15.8489 8.69699C19.7979 8.69699 22.9989 11.898 22.9989 15.847Z" stroke="#548CA8" stroke-width="1.8" stroke-linecap="round" stroke-linejoin="round"/>
</svg>
