<svg width="25" height="25" viewBox="0 0 25 25" fill="none" xmlns="http://www.w3.org/2000/svg">
<circle opacity="0.64" cx="14.3834" cy="14.3834" r="10.6168" fill="#BBD1DC"/>
<path d="M7.8584 13.6855C7.8584 15.0123 8.87663 16.0819 10.1417 16.0819H12.7233C13.8238 16.0819 14.7186 15.146 14.7186 13.994C14.7186 12.7392 14.1735 12.297 13.361 12.009L9.21605 10.569C8.40351 10.2811 7.8584 9.83879 7.8584 8.58399C7.8584 7.43205 8.75321 6.49609 9.85373 6.49609H12.4353C13.7004 6.49609 14.7186 7.56576 14.7186 8.89255" stroke="#548CA8" stroke-width="1.8" stroke-linecap="round" stroke-linejoin="round"/>
<path d="M11.2832 5.11035V17.4526" stroke="#548CA8" stroke-width="1.8" stroke-linecap="round" stroke-linejoin="round"/>
<path d="M11.2852 21.5704C16.9656 21.5704 21.5704 16.9656 21.5704 11.2852C21.5704 5.60485 16.9656 1 11.2852 1C5.60485 1 1 5.60485 1 11.2852C1 16.9656 5.60485 21.5704 11.2852 21.5704Z" stroke="#548CA8" stroke-width="1.8" stroke-linecap="round" stroke-linejoin="round"/>
</svg>
