<svg width="96" height="96" viewBox="0 0 96 96" fill="none" xmlns="http://www.w3.org/2000/svg">
<g filter="url(#filter0_d_13935_3022)">
<path d="M72.8706 24.6273C78.8649 38.5779 72.401 54.7493 58.4127 60.7642C44.4346 66.7764 28.2386 60.3407 22.2346 46.3928C16.2431 32.4518 22.7145 16.2674 36.6925 10.2553C50.6802 4.24035 66.8769 10.6767 72.8706 24.6273Z" fill="url(#paint0_linear_13935_3022)"/>
</g>
<path d="M66.8503 27.2185C71.4168 37.8452 66.492 50.1771 55.8379 54.7614C45.181 59.3361 32.8347 54.436 28.2682 43.8093C23.699 33.173 28.6245 20.8412 39.2807 16.2665C49.9348 11.6822 62.2715 16.5843 66.8503 27.2185Z" fill="#BBD1DC"/>
<path d="M54.5755 45.9677L56.1022 49.3335L52.9993 50.7078L51.5179 47.4272C48.3643 48.6086 45.0033 48.9772 42.7139 48.4301L42.7585 44.0133C44.8138 44.4389 47.4121 44.2639 49.7372 43.4888L47.4657 38.4673C43.6598 39.1723 39.3096 39.7626 37.3662 35.4667C35.9219 32.2848 37.071 28.4948 41.7233 25.7832L40.2151 22.4449L43.318 21.0712L44.7994 24.3519C47.2048 23.5007 49.7434 23.1032 51.9202 23.3984L52.0451 27.7802C50.0681 27.6051 48.2242 27.8056 46.5959 28.3074L48.9127 33.4148C52.7083 32.6686 56.9905 32.118 58.9072 36.3556C60.3172 39.4928 59.1907 43.2444 54.5755 45.9677ZM45.4659 34.045L43.5308 29.7792C42.0487 30.8707 41.7995 32.0226 42.2457 33.0207C42.7255 34.0635 43.9097 34.2344 45.4659 34.045ZM54.0764 38.9416C53.6034 37.8858 52.4433 37.719 50.9042 37.8494L52.7865 41.9992C54.1883 40.9832 54.5117 39.8986 54.0764 38.9416Z" fill="#548CA8"/>
<defs>
<filter id="filter0_d_13935_3022" x="0" y="0.000915527" width="95.1079" height="95.0162" filterUnits="userSpaceOnUse" color-interpolation-filters="sRGB">
<feFlood flood-opacity="0" result="BackgroundImageFix"/>
<feColorMatrix in="SourceAlpha" type="matrix" values="0 0 0 0 0 0 0 0 0 0 0 0 0 0 0 0 0 0 127 0" result="hardAlpha"/>
<feOffset dy="12"/>
<feGaussianBlur stdDeviation="10"/>
<feComposite in2="hardAlpha" operator="out"/>
<feColorMatrix type="matrix" values="0 0 0 0 0.0875 0 0 0 0 0.276389 0 0 0 0 0.4375 0 0 0 0.16 0"/>
<feBlend mode="normal" in2="BackgroundImageFix" result="effect1_dropShadow_13935_3022"/>
<feBlend mode="normal" in="SourceGraphic" in2="effect1_dropShadow_13935_3022" result="shape"/>
</filter>
<linearGradient id="paint0_linear_13935_3022" x1="63.7062" y1="57.8129" x2="22.3635" y2="28.7192" gradientUnits="userSpaceOnUse">
<stop stop-color="#6FA2BB"/>
<stop offset="1" stop-color="#A1CADE"/>
</linearGradient>
</defs>
</svg>
