<svg width="61" height="130" viewBox="0 0 61 130" fill="none" xmlns="http://www.w3.org/2000/svg">
<g opacity="0.6">
<path d="M23.065 55.6236C19.5405 49.6237 14.0891 45.3725 8.33047 43.5187C6.8454 48.9368 7.70953 55.4449 11.2341 61.4448C14.7582 67.4451 20.2096 71.6958 25.9682 73.5497C27.4572 68.1301 26.5896 61.6239 23.065 55.6236ZM17.9546 82.3524C14.5199 76.3014 9.12214 71.9634 3.38635 70.0117C1.80847 75.3916 2.57383 81.8992 6.00855 87.9502C9.44278 94.0007 14.8406 98.3393 20.5798 100.289C22.1528 94.9159 21.3909 88.4064 17.9546 82.3524ZM19.6452 116.248C16.5584 116.218 13.8677 117.551 12.1171 119.685C14.105 121.856 16.9471 123.245 20.0309 123.277C23.1176 123.307 25.8083 121.974 27.559 119.841C25.5746 117.668 22.7325 116.279 19.6452 116.248Z" fill="url(#paint0_linear_13935_3018)"/>
<path d="M1.71661e-05 135.307C18.4914 115.342 24.259 87.4467 25.8414 67.5631C27.5592 45.9749 24.8526 28.8981 24.8258 28.7298L26.0349 28.6117C26.0632 28.7824 28.7916 45.9844 27.0668 67.7154C25.4721 87.7967 19.643 115.977 0.922731 136.191L1.71661e-05 135.307Z" fill="url(#paint1_linear_13935_3018)"/>
<path d="M16.9801 18.7277C17.6521 26.153 21.2368 32.7425 26.3526 37.1436C30.6525 32.5529 33.0359 25.8403 32.3609 18.417C31.6889 10.9916 28.1042 4.40209 22.9884 0.000976562C18.6865 4.58822 16.308 11.3018 16.9801 18.7277ZM33.2752 38.8139C28.5301 44.2002 26.5576 51.1143 27.2828 57.677C33.7532 57.7133 40.2811 54.9759 45.0262 49.5896C49.7708 44.2027 51.7433 37.2886 51.0201 30.7293C44.5477 30.6896 38.0198 33.427 33.2752 38.8139ZM45.3602 75.6493C35.9316 78.9192 27.1284 78.2199 25.6974 74.0873C24.267 69.9542 30.7503 63.9529 40.1789 60.6829C49.6075 57.4125 58.4107 58.1118 59.8412 62.2449C61.2721 66.3775 54.7889 72.3788 45.3602 75.6493ZM40.429 101.421C31.0004 104.691 22.1972 103.992 20.7662 99.8591C19.3358 95.726 25.819 89.7247 35.2477 86.4548C44.6763 83.1843 53.4795 83.8837 54.91 88.0168C56.3409 92.1494 49.8576 98.1507 40.429 101.421Z" fill="url(#paint2_linear_13935_3018)"/>
</g>
<defs>
<linearGradient id="paint0_linear_13935_3018" x1="15.9321" y1="41.9462" x2="-32.215" y2="116.122" gradientUnits="userSpaceOnUse">
<stop stop-color="#548CA8"/>
<stop offset="1" stop-color="#548CA8" stop-opacity="0.24"/>
</linearGradient>
<linearGradient id="paint1_linear_13935_3018" x1="14.7624" y1="26.4908" x2="-54.4196" y2="113.998" gradientUnits="userSpaceOnUse">
<stop stop-color="#548CA8"/>
<stop offset="1" stop-color="#548CA8" stop-opacity="0.24"/>
</linearGradient>
<linearGradient id="paint2_linear_13935_3018" x1="39.9269" y1="-2.03914" x2="-13.9057" y2="108.536" gradientUnits="userSpaceOnUse">
<stop stop-color="#548CA8"/>
<stop offset="1" stop-color="#548CA8" stop-opacity="0.24"/>
</linearGradient>
</defs>
</svg>
