<svg width="59" height="58" viewBox="0 0 59 58" fill="none" xmlns="http://www.w3.org/2000/svg">
<path opacity="0.4" d="M58.7607 33.9812C58.7607 47.2467 48.0069 58.0005 34.7414 58.0005C21.4759 58.0005 10.722 47.2467 10.722 33.9812C10.722 20.7157 21.4759 9.96185 34.7414 9.96185C48.0069 9.96185 58.7607 20.7157 58.7607 33.9812Z" fill="#BBD1DC"/>
<circle cx="26.0193" cy="26.0193" r="24.0193" stroke="#548CA8" stroke-width="3"/>
<path d="M26.5982 39.9947C26.0101 39.8392 25.6789 39.4208 25.5223 39.0956C25.3878 38.8162 25.3469 38.544 25.329 38.3937C25.2949 38.1066 25.2951 37.7418 25.2953 37.421C25.2953 37.3993 25.2953 37.3779 25.2953 37.3567V30.9187H20.7799C20.7483 30.9187 20.7167 30.9187 20.6851 30.9187C20.0037 30.9189 19.3337 30.919 18.8034 30.8403C18.234 30.7557 17.393 30.5217 16.9009 29.6761L18.1973 28.9217L16.9009 29.6761C16.4087 28.8305 16.6208 27.9837 16.8286 27.4469C17.0221 26.9469 17.3532 26.3645 17.69 25.7721C17.7056 25.7446 17.7212 25.7171 17.7368 25.6896L24.5564 13.6872C24.5669 13.6687 24.5775 13.6501 24.5882 13.6312C24.7465 13.3523 24.9265 13.035 25.098 12.8022C25.1878 12.6804 25.3578 12.4639 25.6128 12.2874C25.9096 12.0821 26.4043 11.8818 26.9924 12.0372C27.5805 12.1926 27.9117 12.6111 28.0683 12.9363C28.2028 13.2157 28.2437 13.4879 28.2616 13.6382C28.2957 13.9253 28.2955 14.2901 28.2953 14.6109C28.2953 14.6325 28.2953 14.654 28.2953 14.6752V21.1132H32.8107C32.8423 21.1132 32.8739 21.1132 32.9055 21.1132C33.5869 21.113 34.2569 21.1129 34.7872 21.1916C35.3566 21.2762 36.1976 21.5101 36.6898 22.3557C37.1819 23.2013 36.9698 24.0482 36.762 24.585C36.5685 25.085 36.2374 25.6674 35.9006 26.2598C35.885 26.2873 35.8694 26.3148 35.8538 26.3422L29.0342 38.3447C29.0237 38.3631 29.0132 38.3818 29.0025 38.4006C28.8441 38.6796 28.6641 38.9969 28.4926 39.2296C28.4028 39.3515 28.2328 39.568 27.9778 39.7445C27.681 39.9498 27.1863 40.1501 26.5982 39.9947ZM26.5982 39.9947C26.5982 39.9947 26.5982 39.9947 26.5982 39.9947L26.9814 38.5444L26.5982 39.9947ZM26.0772 37.4503C26.0686 37.462 26.0692 37.4598 26.079 37.4479C26.0784 37.4488 26.0778 37.4496 26.0772 37.4503ZM28.3081 38.0399C28.308 38.0389 28.3079 38.0379 28.3078 38.0369C28.3104 38.0521 28.3098 38.0543 28.3081 38.0399ZM27.5134 14.5815C27.522 14.5698 27.5214 14.5721 27.5116 14.584C27.5122 14.5831 27.5128 14.5823 27.5134 14.5815ZM25.2825 13.992C25.2826 13.993 25.2827 13.9939 25.2828 13.995C25.2802 13.9798 25.2808 13.9776 25.2825 13.992Z" fill="#BBD1DC" stroke="#548CA8" stroke-width="3"/>
<path d="M26.2953 29.4187H20.7799C19.251 29.4187 18.4865 29.4187 18.1973 28.9217C17.9081 28.4246 18.2857 27.76 19.041 26.4307L25.8606 14.4282C26.2356 13.7682 26.423 13.4383 26.6092 13.4874C26.7953 13.5366 26.7953 13.9162 26.7953 14.6752V22.1132C26.7953 22.3489 26.7953 22.4668 26.8685 22.54C26.9418 22.6132 27.0596 22.6132 27.2953 22.6132H32.8107C34.3396 22.6132 35.1041 22.6132 35.3933 23.1102C35.6826 23.6072 35.3049 24.2719 34.5496 25.6012L27.73 37.6037C27.3551 38.2636 27.1676 38.5936 26.9814 38.5444C26.7953 38.4953 26.7953 38.1157 26.7953 37.3567V29.9187C26.7953 29.683 26.7953 29.5651 26.7221 29.4919C26.6489 29.4187 26.531 29.4187 26.2953 29.4187Z" fill="white"/>
</svg>
