<svg width="11" height="11" viewBox="0 0 11 11" fill="none" xmlns="http://www.w3.org/2000/svg">
<path d="M9.8665 0.0989944C9.72597 0.0369931 9.57458 0.00335223 9.42102 3.65273e-07L1.17144 0C1.0176 7.85942e-09 0.865276 0.0303001 0.72315 0.0891704C0.581024 0.148041 0.451885 0.234329 0.343107 0.343107C0.123419 0.562795 1.58729e-08 0.860755 0 1.17144C-7.85931e-09 1.32528 0.0303 1.47761 0.0891704 1.61973C0.148041 1.76186 0.234329 1.891 0.343107 1.99977C0.562795 2.21946 0.860755 2.34288 1.17144 2.34288L6.60791 2.33463L0.346482 8.59606C0.12769 8.81485 0.00477354 9.1116 0.00477352 9.42102C0.00477351 9.73044 0.127689 10.0272 0.346482 10.246C0.565274 10.4648 0.86202 10.5877 1.17144 10.5877C1.48086 10.5877 1.77761 10.4648 1.9964 10.246L8.25783 3.98455L8.24958 9.42102C8.24895 9.57503 8.27882 9.72764 8.33746 9.87006C8.39611 10.0125 8.48237 10.1419 8.59128 10.2508C8.70018 10.3597 8.82957 10.4459 8.97198 10.5046C9.11439 10.5632 9.267 10.5931 9.42102 10.5925C9.57503 10.5931 9.72764 10.5632 9.87006 10.5046C10.0125 10.4459 10.1419 10.3597 10.2508 10.2508C10.3597 10.1419 10.4459 10.0125 10.5046 9.87006C10.5632 9.72764 10.5931 9.57503 10.5925 9.42102L10.5925 1.17144C10.5891 1.01788 10.5555 0.866491 10.4935 0.725963C10.3751 0.442607 10.1499 0.217329 9.8665 0.0989944Z" fill="#548CA8"/>
</svg>
