<svg width="20" height="20" viewBox="0 0 20 20" fill="none" xmlns="http://www.w3.org/2000/svg">
<path d="M18.3327 4.83644C17.7063 5.10818 17.0439 5.28782 16.366 5.36977C17.0812 4.94254 17.6171 4.27042 17.8743 3.4781C17.2023 3.87816 16.4667 4.16002 15.6993 4.31144C15.1865 3.75525 14.5035 3.38502 13.7575 3.25881C13.0116 3.13261 12.2448 3.25757 11.5775 3.6141C10.9102 3.97062 10.3801 4.53855 10.0704 5.2288C9.76064 5.91906 9.68876 6.6926 9.86602 7.4281C8.5072 7.35938 7.17805 7.00557 5.96489 6.38966C4.75174 5.77375 3.68172 4.90952 2.82435 3.8531C2.52363 4.37824 2.36561 4.97296 2.36602 5.5781C2.36495 6.14009 2.50286 6.69362 2.76748 7.18941C3.03209 7.6852 3.4152 8.10786 3.88268 8.41977C3.33933 8.40499 2.80759 8.25919 2.33268 7.99477V8.03644C2.33675 8.82385 2.61268 9.58568 3.11378 10.1931C3.61488 10.8005 4.3104 11.2161 5.08268 11.3698C4.7854 11.4602 4.47674 11.5079 4.16602 11.5114C3.95092 11.5089 3.73637 11.4894 3.52435 11.4531C3.74427 12.1304 4.16987 12.7224 4.74191 13.1466C5.31395 13.5707 6.004 13.8061 6.71602 13.8198C5.51368 14.7658 4.02925 15.2822 2.49935 15.2864C2.22079 15.2874 1.94246 15.2707 1.66602 15.2364C3.22804 16.245 5.04836 16.7804 6.90768 16.7781C8.19076 16.7914 9.46363 16.549 10.6519 16.0648C11.8403 15.5807 12.9202 14.8647 13.8287 13.9585C14.7372 13.0524 15.456 11.9743 15.9431 10.7872C16.4303 9.60012 16.676 8.32788 16.666 7.04477C16.666 6.9031 16.666 6.7531 16.666 6.6031C17.3199 6.11545 17.8839 5.51763 18.3327 4.83644Z" fill="white"/>
</svg>
