<svg width="120" height="75" viewBox="0 0 120 75" fill="none" xmlns="http://www.w3.org/2000/svg">
<path d="M120 26.2812L14.1971 41.5133L0 55.8403L120 26.2812Z" fill="#3981F7"/>
<path opacity="0.6" d="M120 26.2812L14.1971 41.5133L0 55.8403L120 26.2812Z" fill="white"/>
<path d="M120 26.2812L14.1971 41.5133L19.1074 62.2311L120 26.2812Z" fill="#3981F7"/>
<path opacity="0.2" d="M120 26.2812L14.1971 41.5133L19.1074 62.2311L120 26.2812Z" fill="black"/>
<path d="M21.2807 2.29788L15.1405 31.0726C14.9808 31.824 15.1256 32.6081 15.5433 33.2528C15.9609 33.8975 16.6172 34.3503 17.3682 34.5117L72.1702 46.2072C72.9215 46.3657 73.7049 46.2203 74.3493 45.8029C74.9937 45.3854 75.4467 44.7299 75.6093 43.9795L81.7541 15.2048C81.9124 14.4528 81.7664 13.6688 81.348 13.0243C80.9296 12.3797 80.2729 11.9272 79.5217 11.7657L24.7197 0.0701627C23.9678 -0.0881625 23.1838 0.0578402 22.5392 0.476219C21.8947 0.894598 21.4422 1.55128 21.2807 2.30253V2.29788Z" fill="#3981F7"/>
<path opacity="0.4" d="M21.2807 2.29788L15.1405 31.0726C14.9808 31.824 15.1256 32.6081 15.5433 33.2528C15.9609 33.8975 16.6172 34.3503 17.3682 34.5117L72.1702 46.2072C72.9215 46.3657 73.7049 46.2203 74.3493 45.8029C74.9937 45.3854 75.4467 44.7299 75.6093 43.9795L81.7541 15.2048C81.9124 14.4528 81.7664 13.6688 81.348 13.0243C80.9296 12.3797 80.2729 11.9272 79.5217 11.7657L24.7197 0.0701627C23.9678 -0.0881625 23.1838 0.0578402 22.5392 0.476219C21.8947 0.894598 21.4422 1.55128 21.2807 2.30253V2.29788Z" fill="black"/>
<path d="M22.6303 0.411434L40.9394 22.8882C42.6375 24.9721 44.996 26.414 47.6249 26.9752C50.2538 27.5364 52.9955 27.1834 55.3964 25.9746L81.2891 12.9331C80.8702 12.3313 80.238 11.9115 79.5208 11.7589L24.7188 0.0633523C24.0037 -0.0888533 23.2575 0.0355206 22.6303 0.411434Z" fill="#3981F7"/>
<path d="M120 26.2812L32.7336 47.0223L19.1074 62.2311L120 26.2812Z" fill="#3981F7"/>
<path opacity="0.6" d="M120 26.2812L32.7336 47.0223L19.1074 62.2311L120 26.2812Z" fill="white"/>
<path d="M88.1678 46.2714L88.4023 46.6719L78.6911 52.3603L78.4565 51.9599L88.1678 46.2714Z" fill="#3981F7"/>
<path d="M74.1678 54.4706L74.4023 54.8711L70.9103 56.9166L70.6757 56.5161L74.1678 54.4706Z" fill="#3981F7"/>
<path d="M120 26.2812L32.7336 47.0223L49.6968 67.4663L120 26.2812Z" fill="#3981F7"/>
<path d="M3.27823 74.8737C3.39579 74.874 3.51233 74.8519 3.62166 74.8087L17.8327 69.1837C18.06 69.0921 18.2419 68.9143 18.3387 68.6891C18.4354 68.4639 18.4392 68.2096 18.3491 67.9816C18.259 67.7537 18.0824 67.5706 17.8579 67.4723C17.6333 67.3741 17.379 67.3687 17.1504 67.4573L2.93478 73.0822C2.73367 73.1617 2.56663 73.3089 2.46248 73.4984C2.35833 73.688 2.32361 73.9079 2.36433 74.1203C2.40504 74.3326 2.51863 74.5241 2.68548 74.6617C2.85234 74.7993 3.06198 74.8742 3.27823 74.8737Z" fill="#3981F7"/>
<path opacity="0.3" d="M3.27823 74.8737C3.39579 74.874 3.51233 74.8519 3.62166 74.8087L17.8327 69.1837C18.06 69.0921 18.2419 68.9143 18.3387 68.6891C18.4354 68.4639 18.4392 68.2096 18.3491 67.9816C18.259 67.7537 18.0824 67.5706 17.8579 67.4723C17.6333 67.3741 17.379 67.3687 17.1504 67.4573L2.93478 73.0822C2.73367 73.1617 2.56663 73.3089 2.46248 73.4984C2.35833 73.688 2.32361 73.9079 2.36433 74.1203C2.40504 74.3326 2.51863 74.5241 2.68548 74.6617C2.85234 74.7993 3.06198 74.8742 3.27823 74.8737Z" fill="black"/>
<path d="M4.1174 66.7236C4.23381 66.7228 4.34892 66.6992 4.45619 66.6539L12.0908 63.614C12.2049 63.5698 12.3092 63.5034 12.3976 63.4187C12.486 63.334 12.5567 63.2327 12.6058 63.1206C12.6548 63.0084 12.6812 62.8877 12.6834 62.7653C12.6856 62.6429 12.6636 62.5212 12.6186 62.4074C12.5736 62.2936 12.5066 62.1897 12.4213 62.1019C12.336 62.0141 12.2342 61.944 12.1218 61.8957C12.0093 61.8474 11.8884 61.8218 11.766 61.8204C11.6436 61.819 11.5221 61.8418 11.4085 61.8875L3.77395 64.9135C3.54515 65.0036 3.36144 65.1807 3.26311 65.4061C3.16479 65.6314 3.15989 65.8866 3.2495 66.1156C3.31485 66.2934 3.43303 66.4469 3.58817 66.5556C3.7433 66.6643 3.92798 66.7229 4.1174 66.7236Z" fill="#3981F7"/>
<path opacity="0.5" d="M4.1174 66.7236C4.23381 66.7228 4.34892 66.6992 4.45619 66.6539L12.0908 63.614C12.2049 63.5698 12.3092 63.5034 12.3976 63.4187C12.486 63.334 12.5567 63.2327 12.6058 63.1206C12.6548 63.0084 12.6812 62.8877 12.6834 62.7653C12.6856 62.6429 12.6636 62.5212 12.6186 62.4074C12.5736 62.2936 12.5066 62.1897 12.4213 62.1019C12.336 62.0141 12.2342 61.944 12.1218 61.8957C12.0093 61.8474 11.8884 61.8218 11.766 61.8204C11.6436 61.819 11.5221 61.8418 11.4085 61.8875L3.77395 64.9135C3.54515 65.0036 3.36144 65.1807 3.26311 65.4061C3.16479 65.6314 3.15989 65.8866 3.2495 66.1156C3.31485 66.2934 3.43303 66.4469 3.58817 66.5556C3.7433 66.6643 3.92798 66.7229 4.1174 66.7236Z" fill="white"/>
<path d="M20.0766 74.7536C20.1924 74.7523 20.3072 74.7303 20.4154 74.6887L34.2783 69.1843C34.3924 69.1401 34.4967 69.0737 34.5851 68.989C34.6735 68.9043 34.7442 68.803 34.7933 68.6909C34.8423 68.5787 34.8687 68.458 34.8709 68.3356C34.8731 68.2132 34.8511 68.0916 34.8061 67.9777C34.7612 67.8639 34.6941 67.76 34.6088 67.6722C34.5235 67.5844 34.4217 67.5143 34.3093 67.466C34.1968 67.4177 34.0759 67.3921 33.9535 67.3907C33.8311 67.3893 33.7096 67.4121 33.596 67.4579L19.7331 72.9436C19.532 73.0231 19.365 73.1703 19.2608 73.3598C19.1567 73.5493 19.122 73.7693 19.1627 73.9816C19.2034 74.194 19.317 74.3855 19.4838 74.5231C19.6507 74.6606 19.8603 74.7356 20.0766 74.7351V74.7536Z" fill="#3981F7"/>
<path opacity="0.3" d="M20.0766 74.7536C20.1924 74.7523 20.3072 74.7303 20.4154 74.6887L34.2783 69.1843C34.3924 69.1401 34.4967 69.0737 34.5851 68.989C34.6735 68.9043 34.7442 68.803 34.7933 68.6909C34.8423 68.5787 34.8687 68.458 34.8709 68.3356C34.8731 68.2132 34.8511 68.0916 34.8061 67.9777C34.7612 67.8639 34.6941 67.76 34.6088 67.6722C34.5235 67.5844 34.4217 67.5143 34.3093 67.466C34.1968 67.4177 34.0759 67.3921 33.9535 67.3907C33.8311 67.3893 33.7096 67.4121 33.596 67.4579L19.7331 72.9436C19.532 73.0231 19.365 73.1703 19.2608 73.3598C19.1567 73.5493 19.122 73.7693 19.1627 73.9816C19.2034 74.194 19.317 74.3855 19.4838 74.5231C19.6507 74.6606 19.8603 74.7356 20.0766 74.7351V74.7536Z" fill="black"/>
</svg>
