<svg width="54" height="56" viewBox="0 0 54 56" fill="none" xmlns="http://www.w3.org/2000/svg">
<path d="M33.2461 16.7969H44.9011C47.1627 16.7969 48.9961 18.6303 48.9961 20.8919V55.9964H33.2461V16.7969Z" fill="#ABD7FF"/>
<path d="M5.24609 11.546C5.24609 9.69077 6.49337 8.0673 8.28598 7.58928L31.596 1.37335C34.1957 0.680104 36.7461 2.63955 36.7461 5.33008V55.9994H5.24609V11.546Z" fill="#548CA8"/>
<path fill-rule="evenodd" clip-rule="evenodd" d="M15.75 42.0031C15.75 40.4567 16.9253 39.2031 18.375 39.2031H23.625C25.0747 39.2031 26.25 40.4567 26.25 42.0031C26.25 43.5495 25.0747 44.8031 23.625 44.8031H18.375C16.9253 44.8031 15.75 43.5495 15.75 42.0031Z" fill="#ABD7FF"/>
<path fill-rule="evenodd" clip-rule="evenodd" d="M15.75 30.8C15.75 29.2536 16.9253 28 18.375 28H23.625C25.0747 28 26.25 29.2536 26.25 30.8C26.25 32.3463 25.0747 33.5999 23.625 33.5999H18.375C16.9253 33.5999 15.75 32.3463 15.75 30.8Z" fill="#ABD7FF"/>
<path fill-rule="evenodd" clip-rule="evenodd" d="M15.75 19.5968C15.75 18.0505 16.9253 16.7969 18.375 16.7969H23.625C25.0747 16.7969 26.25 18.0505 26.25 19.5968C26.25 21.1432 25.0747 22.3968 23.625 22.3968H18.375C16.9253 22.3968 15.75 21.1432 15.75 19.5968Z" fill="#ABD7FF"/>
<path fill-rule="evenodd" clip-rule="evenodd" d="M0 53.375C0 51.9253 1.19484 50.75 2.66875 50.75H50.7062C52.1802 50.75 53.375 51.9253 53.375 53.375C53.375 54.8247 52.1802 56 50.7062 56H2.66875C1.19484 56 0 54.8247 0 53.375Z" fill="#548CA8"/>
</svg>
