<svg width="58" height="60" viewBox="0 0 58 60" fill="none" xmlns="http://www.w3.org/2000/svg">
<path d="M35.6211 18H48.4011C50.6627 18 52.4961 19.8334 52.4961 22.095V59.9995H35.6211V18Z" fill="#A4B4C2"/>
<path d="M5.62109 12.146C5.62109 10.2908 6.86837 8.66729 8.66098 8.18927L34.221 1.37335C36.8207 0.680106 39.3711 2.63955 39.3711 5.33008V59.9993H5.62109V12.146Z" fill="white"/>
<path fill-rule="evenodd" clip-rule="evenodd" d="M16.875 45C16.875 43.3431 18.1342 42 19.6875 42H25.3125C26.8658 42 28.125 43.3431 28.125 45C28.125 46.6568 26.8658 47.9999 25.3125 47.9999H19.6875C18.1342 47.9999 16.875 46.6568 16.875 45Z" fill="#A4B4C2"/>
<path fill-rule="evenodd" clip-rule="evenodd" d="M16.875 33C16.875 31.3431 18.1342 30 19.6875 30H25.3125C26.8658 30 28.125 31.3431 28.125 33C28.125 34.6568 26.8658 35.9999 25.3125 35.9999H19.6875C18.1342 35.9999 16.875 34.6568 16.875 33Z" fill="#A4B4C2"/>
<path fill-rule="evenodd" clip-rule="evenodd" d="M16.875 21C16.875 19.3431 18.1342 18 19.6875 18H25.3125C26.8658 18 28.125 19.3431 28.125 21C28.125 22.6568 26.8658 23.9999 25.3125 23.9999H19.6875C18.1342 23.9999 16.875 22.6568 16.875 21Z" fill="#A4B4C2"/>
<path fill-rule="evenodd" clip-rule="evenodd" d="M0 57.1875C0 55.6342 1.28019 54.375 2.85938 54.375H54.3281C55.9073 54.375 57.1875 55.6342 57.1875 57.1875C57.1875 58.7408 55.9073 60 54.3281 60H2.85938C1.28019 60 0 58.7408 0 57.1875Z" fill="white"/>
</svg>
