<svg width="7" height="10" viewBox="0 0 7 10" fill="none" xmlns="http://www.w3.org/2000/svg">
<path opacity="0.48" d="M6.70921 0.262724C6.89546 0.428862 7 0.653602 7 0.88786C7 1.12212 6.89546 1.34686 6.70921 1.513L3.16921 4.69632L6.70921 7.8353C6.80179 7.91798 6.8751 8.01601 6.92495 8.12381C6.97481 8.23161 7.00023 8.34706 6.99976 8.46357C6.9993 8.58008 6.97296 8.69537 6.92225 8.80286C6.87154 8.91034 6.79745 9.00792 6.70421 9.09001C6.61097 9.1721 6.50041 9.23711 6.37884 9.28132C6.25727 9.32552 6.12707 9.34806 5.99567 9.34765C5.86428 9.34724 5.73426 9.32388 5.61304 9.27892C5.49183 9.23395 5.38179 9.16825 5.28921 9.08558L1.04921 5.32589C0.955479 5.24346 0.881085 5.14538 0.830317 5.03733C0.779548 4.92927 0.753409 4.81338 0.753409 4.69632C0.753409 4.57926 0.779548 4.46336 0.830317 4.35531C0.881085 4.24725 0.955479 4.14918 1.04921 4.06675L5.28921 0.262724C5.38217 0.179613 5.49277 0.113647 5.61463 0.0686293C5.73649 0.0236111 5.8672 0.000432968 5.99921 0.000432968C6.13122 0.000432968 6.26193 0.0236111 6.38378 0.0686293C6.50564 0.113647 6.61624 0.179613 6.70921 0.262724Z" fill="white"/>
</svg>
