<svg width="7" height="10" viewBox="0 0 7 10" fill="none" xmlns="http://www.w3.org/2000/svg">
<path d="M0.290792 0.262724C0.104542 0.428862 0 0.653602 0 0.88786C0 1.12212 0.104542 1.34686 0.290792 1.513L3.83079 4.69632L0.290792 7.8353C0.198211 7.91798 0.1249 8.01601 0.0750465 8.12381C0.0251928 8.23161 -0.00022778 8.34706 0.000236511 8.46357C0.000700803 8.58008 0.0270405 8.69537 0.0777521 8.80286C0.128464 8.91034 0.202554 9.00792 0.295793 9.09001C0.389031 9.1721 0.499592 9.23711 0.621162 9.28132C0.742733 9.32552 0.872933 9.34806 1.00433 9.34765C1.13572 9.34724 1.26574 9.32388 1.38696 9.27892C1.50817 9.23395 1.61821 9.16825 1.71079 9.08558L5.95079 5.32589C6.04452 5.24346 6.11891 5.14538 6.16968 5.03733C6.22045 4.92927 6.24659 4.81338 6.24659 4.69632C6.24659 4.57926 6.22045 4.46336 6.16968 4.35531C6.11891 4.24725 6.04452 4.14918 5.95079 4.06675L1.71079 0.262724C1.61783 0.179613 1.50723 0.113647 1.38537 0.0686293C1.26351 0.0236111 1.1328 0.000432968 1.00079 0.000432968C0.868781 0.000432968 0.738075 0.0236111 0.616216 0.0686293C0.494356 0.113647 0.383755 0.179613 0.290792 0.262724Z" fill="white"/>
</svg>
