<svg width="64" height="64" viewBox="0 0 64 64" fill="none" xmlns="http://www.w3.org/2000/svg">
<path d="M31.9907 57.5833H9.59722C8.74877 57.5833 7.93507 57.2463 7.33513 56.6463C6.73519 56.0464 6.39815 55.2327 6.39815 54.3842V9.59722C6.39815 8.74877 6.73519 7.93507 7.33513 7.33513C7.93507 6.73519 8.74877 6.39815 9.59722 6.39815H25.5926V15.9954C25.5926 18.5407 26.6037 20.9818 28.4035 22.7816C30.2034 24.5814 32.6445 25.5926 35.1898 25.5926H44.787V28.7917C44.787 29.6401 45.1241 30.4538 45.724 31.0537C46.3239 31.6537 47.1376 31.9907 47.9861 31.9907C48.8345 31.9907 49.6482 31.6537 50.2482 31.0537C50.8481 30.4538 51.1852 29.6401 51.1852 28.7917V22.3935C51.1852 22.3935 51.1852 22.3935 51.1852 22.2016C51.1518 21.9077 51.0875 21.6182 50.9932 21.3378V21.0499C50.8394 20.721 50.6342 20.4186 50.3854 20.1542L31.191 0.959722C30.9265 0.710886 30.6241 0.505713 30.2952 0.351898C30.1997 0.338334 30.1028 0.338334 30.0073 0.351898C29.6823 0.165524 29.3234 0.0458882 28.9516 0H9.59722C7.05188 0 4.61079 1.01113 2.81096 2.81096C1.01113 4.61079 0 7.05188 0 9.59722V54.3842C0 56.9296 1.01113 59.3707 2.81096 61.1705C4.61079 62.9703 7.05188 63.9815 9.59722 63.9815H31.9907C32.8392 63.9815 33.6529 63.6444 34.2528 63.0445C34.8528 62.4445 35.1898 61.6308 35.1898 60.7824C35.1898 59.9339 34.8528 59.1202 34.2528 58.5203C33.6529 57.9203 32.8392 57.5833 31.9907 57.5833ZM31.9907 10.9088L40.2763 19.1944H35.1898C34.3414 19.1944 33.5277 18.8574 32.9277 18.2574C32.3278 17.6575 31.9907 16.8438 31.9907 15.9954V10.9088ZM15.9954 19.1944C15.1469 19.1944 14.3332 19.5315 13.7333 20.1314C13.1333 20.7314 12.7963 21.5451 12.7963 22.3935C12.7963 23.242 13.1333 24.0557 13.7333 24.6556C14.3332 25.2555 15.1469 25.5926 15.9954 25.5926H19.1944C20.0429 25.5926 20.8566 25.2555 21.4565 24.6556C22.0565 24.0557 22.3935 23.242 22.3935 22.3935C22.3935 21.5451 22.0565 20.7314 21.4565 20.1314C20.8566 19.5315 20.0429 19.1944 19.1944 19.1944H15.9954ZM63.0537 58.511L59.3108 54.8001C60.5071 52.7119 60.986 50.2892 60.674 47.9029C60.3619 45.5166 59.2763 43.2984 57.5833 41.5879C56.0254 39.9746 54.0178 38.8678 51.8219 38.4117C49.626 37.9557 47.3436 38.1715 45.2722 39.0312C43.2007 39.8909 41.4362 41.3545 40.2084 43.2313C38.9806 45.1082 38.3466 47.3113 38.3889 49.5536C38.3779 51.4833 38.8715 53.3823 39.8208 55.0622C40.7702 56.7422 42.1422 58.1449 43.8009 59.131C45.4595 60.1171 47.3472 60.6525 49.2766 60.6841C51.206 60.7156 53.1101 60.2422 54.8001 59.3108L58.511 63.0537C58.8084 63.3536 59.1623 63.5916 59.5521 63.754C59.9419 63.9164 60.3601 64 60.7824 64C61.2047 64 61.6228 63.9164 62.0127 63.754C62.4025 63.5916 62.7563 63.3536 63.0537 63.0537C63.3536 62.7563 63.5916 62.4025 63.754 62.0127C63.9164 61.6228 64 61.2047 64 60.7824C64 60.3601 63.9164 59.9419 63.754 59.5521C63.5916 59.1623 63.3536 58.8084 63.0537 58.511ZM52.9127 52.9127C51.999 53.7719 50.7919 54.2503 49.5376 54.2503C48.2834 54.2503 47.0763 53.7719 46.1626 52.9127C45.282 52.0163 44.7881 50.8102 44.787 49.5536C44.7804 48.9226 44.9017 48.2968 45.1436 47.714C45.3856 47.1312 45.7431 46.6034 46.1946 46.1626C47.0475 45.3143 48.1913 44.8225 49.3937 44.787C50.0405 44.7473 50.6885 44.8416 51.297 45.0641C51.9056 45.2866 52.4617 45.6325 52.9303 46.0801C53.3988 46.5277 53.7699 47.0673 54.0201 47.665C54.2703 48.2627 54.3943 48.9057 54.3842 49.5536C54.3578 50.824 53.8286 52.032 52.9127 52.9127ZM35.1898 31.9907H15.9954C15.1469 31.9907 14.3332 32.3278 13.7333 32.9277C13.1333 33.5277 12.7963 34.3414 12.7963 35.1898C12.7963 36.0382 13.1333 36.8519 13.7333 37.4519C14.3332 38.0518 15.1469 38.3889 15.9954 38.3889H35.1898C36.0382 38.3889 36.8519 38.0518 37.4519 37.4519C38.0518 36.8519 38.3889 36.0382 38.3889 35.1898C38.3889 34.3414 38.0518 33.5277 37.4519 32.9277C36.8519 32.3278 36.0382 31.9907 35.1898 31.9907ZM28.7917 51.1852C29.6401 51.1852 30.4538 50.8481 31.0537 50.2482C31.6537 49.6482 31.9907 48.8345 31.9907 47.9861C31.9907 47.1376 31.6537 46.3239 31.0537 45.724C30.4538 45.1241 29.6401 44.787 28.7917 44.787H15.9954C15.1469 44.787 14.3332 45.1241 13.7333 45.724C13.1333 46.3239 12.7963 47.1376 12.7963 47.9861C12.7963 48.8345 13.1333 49.6482 13.7333 50.2482C14.3332 50.8481 15.1469 51.1852 15.9954 51.1852H28.7917Z" fill="#548CA8"/>
</svg>
