<svg width="18" height="16" viewBox="0 0 18 16" fill="none" xmlns="http://www.w3.org/2000/svg">
<path d="M17.9052 7.49261C17.845 7.32908 17.7548 7.17968 17.6397 7.05298L11.3198 0.391799C11.202 0.267584 11.0621 0.169051 10.9081 0.101826C10.7541 0.0346007 10.5891 0 10.4224 0C10.0858 0 9.76298 0.140934 9.52497 0.391799C9.40712 0.516015 9.31363 0.663481 9.24985 0.825776C9.18607 0.988072 9.15324 1.16202 9.15324 1.33769C9.15324 1.69246 9.28696 2.03271 9.52497 2.28357L13.6961 6.66663H1.26398C0.928755 6.66663 0.607256 6.80699 0.370213 7.05683C0.13317 7.30667 0 7.64553 0 7.99886C0 8.35219 0.13317 8.69105 0.370213 8.9409C0.607256 9.19074 0.928755 9.3311 1.26398 9.3311H13.6961L9.52497 13.7142C9.4065 13.838 9.31247 13.9853 9.2483 14.1477C9.18413 14.31 9.15109 14.4842 9.15109 14.66C9.15109 14.8359 9.18413 15.01 9.2483 15.1724C9.31247 15.3347 9.4065 15.4821 9.52497 15.6059C9.64248 15.7308 9.78227 15.8299 9.9363 15.8975C10.0903 15.9652 10.2555 16 10.4224 16C10.5893 16 10.7545 15.9652 10.9085 15.8975C11.0625 15.8299 11.2023 15.7308 11.3198 15.6059L17.6397 8.94475C17.7548 8.81805 17.845 8.66865 17.9052 8.50511C18.0316 8.18077 18.0316 7.81696 17.9052 7.49261Z" fill="#548CA8"/>
</svg>
