<svg width="10" height="11" viewBox="0 0 10 11" fill="none" xmlns="http://www.w3.org/2000/svg">
<path d="M9.64618 7.35706L6.41631 5.71094L9.64618 4.06482C9.80874 3.98189 9.92733 3.84538 9.9759 3.68529C10.0245 3.52519 9.99902 3.35463 9.90516 3.2111C9.8113 3.06756 9.6567 2.9628 9.47536 2.91985C9.29403 2.8769 9.10079 2.89928 8.93814 2.98206L5.70804 4.62829V1.33594C5.70804 1.17018 5.63345 1.01121 5.50066 0.893996C5.36788 0.776786 5.18779 0.710938 5 0.710938C4.81222 0.710938 4.63212 0.776786 4.49934 0.893996C4.36655 1.01121 4.29196 1.17018 4.29196 1.33594V4.62829L1.06187 2.98204C0.899211 2.89926 0.705973 2.87688 0.524636 2.91983C0.343298 2.96278 0.188705 3.06754 0.0948441 3.21108C0.000983142 3.35461 -0.0244625 3.52518 0.0241017 3.68527C0.0726658 3.84536 0.191265 3.98187 0.353823 4.0648L3.5837 5.71094L0.353823 7.35706C0.191265 7.43998 0.0726658 7.5765 0.0241017 7.73659C-0.0244625 7.89668 0.000983142 8.06724 0.0948441 8.21078C0.188705 8.35431 0.343298 8.45907 0.524636 8.50202C0.705973 8.54497 0.899211 8.5226 1.06187 8.43982L4.29196 6.79359V10.0859C4.29196 10.2517 4.36655 10.4107 4.49934 10.5279C4.63212 10.6451 4.81222 10.7109 5 10.7109C5.18779 10.7109 5.36788 10.6451 5.50066 10.5279C5.63345 10.4107 5.70804 10.2517 5.70804 10.0859V6.79359L8.93814 8.43984C9.10079 8.52262 9.29403 8.54499 9.47536 8.50204C9.6567 8.45909 9.8113 8.35433 9.90516 8.2108C9.99902 8.06726 10.0245 7.8967 9.9759 7.73661C9.92733 7.57652 9.80874 7.44 9.64618 7.35707V7.35706Z" fill="#6E7377"/>
</svg>
