<svg width="16" height="13" viewBox="0 0 16 13" fill="none" xmlns="http://www.w3.org/2000/svg">
<path d="M8.22936 6.35044C8.61794 6.01408 8.92962 5.59806 9.14323 5.13062C9.35685 4.66318 9.46741 4.15525 9.4674 3.64131C9.4674 2.67557 9.08376 1.74939 8.40089 1.06651C7.71801 0.383637 6.79183 1.30294e-07 5.82609 1.30294e-07C4.86036 1.30294e-07 3.93418 0.383637 3.2513 1.06651C2.56842 1.74939 2.18478 2.67557 2.18478 3.64131C2.18478 4.15525 2.29534 4.66318 2.50895 5.13062C2.72257 5.59806 3.03425 6.01408 3.42283 6.35044C2.40336 6.81207 1.53843 7.55756 0.931432 8.49775C0.324437 9.43795 0.0010719 10.5331 0 11.6522C0 11.8453 0.0767273 12.0306 0.213303 12.1671C0.349878 12.3037 0.535115 12.3804 0.728262 12.3804C0.921409 12.3804 1.10664 12.3037 1.24322 12.1671C1.3798 12.0306 1.45652 11.8453 1.45652 11.6522C1.45652 10.4933 1.91689 9.38189 2.73634 8.56243C3.55579 7.74298 4.66721 7.28262 5.82609 7.28262C6.98497 7.28262 8.09639 7.74298 8.91584 8.56243C9.7353 9.38189 10.1957 10.4933 10.1957 11.6522C10.1957 11.8453 10.2724 12.0306 10.409 12.1671C10.5455 12.3037 10.7308 12.3804 10.9239 12.3804C11.1171 12.3804 11.3023 12.3037 11.4389 12.1671C11.5755 12.0306 11.6522 11.8453 11.6522 11.6522C11.6511 10.5331 11.3277 9.43795 10.7208 8.49775C10.1138 7.55756 9.24882 6.81207 8.22936 6.35044ZM5.82609 5.82609C5.39398 5.82609 4.97158 5.69796 4.61229 5.45789C4.25301 5.21782 3.97298 4.87661 3.80762 4.47739C3.64225 4.07817 3.59899 3.63888 3.68329 3.21508C3.76759 2.79127 3.97567 2.40198 4.28122 2.09643C4.58676 1.79088 4.97606 1.5828 5.39986 1.4985C5.82367 1.4142 6.26296 1.45747 6.66217 1.62283C7.06139 1.78819 7.40261 2.06822 7.64267 2.42751C7.88274 2.78679 8.01088 3.2092 8.01088 3.64131C8.01088 4.22075 7.7807 4.77646 7.37097 5.18618C6.96124 5.59591 6.40553 5.82609 5.82609 5.82609ZM12.9194 6.05914C13.3854 5.5343 13.6899 4.88595 13.796 4.19212C13.9022 3.49829 13.8056 2.78857 13.5178 2.14837C13.23 1.50818 12.7634 0.964798 12.174 0.583645C11.5846 0.202493 10.8976 -0.0001876 10.1957 1.30294e-07C10.0025 1.30294e-07 9.81728 0.0767274 9.6807 0.213303C9.54413 0.349879 9.4674 0.535115 9.4674 0.728262C9.4674 0.921409 9.54413 1.10664 9.6807 1.24322C9.81728 1.3798 10.0025 1.45652 10.1957 1.45652C10.7751 1.45652 11.3308 1.68671 11.7405 2.09643C12.1503 2.50616 12.3804 3.06187 12.3804 3.64131C12.3794 4.02382 12.278 4.39936 12.0863 4.73037C11.8946 5.06137 11.6193 5.33625 11.2881 5.52751C11.1801 5.58979 11.0899 5.67874 11.0261 5.78585C10.9624 5.89296 10.9272 6.01464 10.9239 6.13925C10.9209 6.26288 10.9494 6.38525 11.0067 6.49482C11.064 6.6044 11.1483 6.69757 11.2516 6.76555L11.5357 6.9549L11.6303 7.00588C12.5082 7.42224 13.2488 8.08078 13.7649 8.90396C14.281 9.72713 14.5511 10.6806 14.5434 11.6522C14.5434 11.8453 14.6201 12.0306 14.7567 12.1671C14.8933 12.3037 15.0785 12.3804 15.2716 12.3804C15.4648 12.3804 15.65 12.3037 15.7866 12.1671C15.9232 12.0306 15.9999 11.8453 15.9999 11.6522C16.0059 10.5346 15.726 9.43408 15.1868 8.45516C14.6476 7.47624 13.8671 6.65144 12.9194 6.05914Z" fill="white"/>
</svg>
