<svg width="13" height="16" viewBox="0 0 13 16" fill="none" xmlns="http://www.w3.org/2000/svg">
<path d="M8.8 11.2H4C3.78783 11.2 3.58434 11.2843 3.43431 11.4343C3.28429 11.5843 3.2 11.7878 3.2 12C3.2 12.2122 3.28429 12.4157 3.43431 12.5657C3.58434 12.7157 3.78783 12.8 4 12.8H8.8C9.01217 12.8 9.21566 12.7157 9.36569 12.5657C9.51571 12.4157 9.6 12.2122 9.6 12C9.6 11.7878 9.51571 11.5843 9.36569 11.4343C9.21566 11.2843 9.01217 11.2 8.8 11.2ZM4 6.4H4.8C5.01217 6.4 5.21566 6.31571 5.36569 6.16569C5.51571 6.01566 5.6 5.81217 5.6 5.6C5.6 5.38783 5.51571 5.18434 5.36569 5.03431C5.21566 4.88429 5.01217 4.8 4.8 4.8H4C3.78783 4.8 3.58434 4.88429 3.43431 5.03431C3.28429 5.18434 3.2 5.38783 3.2 5.6C3.2 5.81217 3.28429 6.01566 3.43431 6.16569C3.58434 6.31571 3.78783 6.4 4 6.4ZM8.8 8H4C3.78783 8 3.58434 8.08429 3.43431 8.23431C3.28429 8.38434 3.2 8.58783 3.2 8.8C3.2 9.01217 3.28429 9.21566 3.43431 9.36569C3.58434 9.51571 3.78783 9.6 4 9.6H8.8C9.01217 9.6 9.21566 9.51571 9.36569 9.36569C9.51571 9.21566 9.6 9.01217 9.6 8.8C9.6 8.58783 9.51571 8.38434 9.36569 8.23431C9.21566 8.08429 9.01217 8 8.8 8ZM12.568 10.632C12.4919 10.5592 12.4022 10.5021 12.304 10.464C12.2085 10.4207 12.1049 10.3983 12 10.3983C11.8951 10.3983 11.7915 10.4207 11.696 10.464C11.5978 10.5021 11.5081 10.5592 11.432 10.632C11.3613 10.7098 11.3045 10.7991 11.264 10.896C11.2027 11.0417 11.186 11.2023 11.2159 11.3575C11.2458 11.5126 11.321 11.6555 11.432 11.768C11.5068 11.8421 11.5954 11.9008 11.6929 11.9406C11.7903 11.9804 11.8947 12.0006 12 12C12.1045 11.9987 12.2078 11.977 12.304 11.936C12.4009 11.8955 12.4902 11.8387 12.568 11.768C12.679 11.6555 12.7542 11.5126 12.7841 11.3575C12.814 11.2023 12.7973 11.0417 12.736 10.896C12.6955 10.7991 12.6387 10.7098 12.568 10.632ZM12.8 5.552C12.7917 5.47851 12.7756 5.4061 12.752 5.336V5.264C12.7135 5.18174 12.6622 5.10613 12.6 5.04L7.8 0.24C7.73387 0.177773 7.65826 0.126465 7.576 0.0879999C7.55212 0.0846081 7.52788 0.0846081 7.504 0.0879999C7.42273 0.041393 7.33298 0.0114754 7.24 0H2.4C1.76348 0 1.15303 0.252856 0.702944 0.702944C0.252856 1.15303 0 1.76348 0 2.4V13.6C0 14.2365 0.252856 14.847 0.702944 15.2971C1.15303 15.7471 1.76348 16 2.4 16H8.8C9.01217 16 9.21566 15.9157 9.36569 15.7657C9.51571 15.6157 9.6 15.4122 9.6 15.2C9.6 14.9878 9.51571 14.7843 9.36569 14.6343C9.21566 14.4843 9.01217 14.4 8.8 14.4H2.4C2.18783 14.4 1.98434 14.3157 1.83431 14.1657C1.68429 14.0157 1.6 13.8122 1.6 13.6V2.4C1.6 2.18783 1.68429 1.98434 1.83431 1.83431C1.98434 1.68429 2.18783 1.6 2.4 1.6H6.4V4C6.4 4.63652 6.65286 5.24697 7.10294 5.69706C7.55303 6.14714 8.16348 6.4 8.8 6.4H11.2V8C11.2 8.21217 11.2843 8.41566 11.4343 8.56569C11.5843 8.71571 11.7878 8.8 12 8.8C12.2122 8.8 12.4157 8.71571 12.5657 8.56569C12.7157 8.41566 12.8 8.21217 12.8 8V5.6C12.8 5.6 12.8 5.6 12.8 5.552ZM8.8 4.8C8.58783 4.8 8.38434 4.71571 8.23431 4.56569C8.08429 4.41566 8 4.21217 8 4V2.728L10.072 4.8H8.8ZM12 12.8C11.7878 12.8 11.5843 12.8843 11.4343 13.0343C11.2843 13.1843 11.2 13.3878 11.2 13.6V15.2C11.2 15.4122 11.2843 15.6157 11.4343 15.7657C11.5843 15.9157 11.7878 16 12 16C12.2122 16 12.4157 15.9157 12.5657 15.7657C12.7157 15.6157 12.8 15.4122 12.8 15.2V13.6C12.8 13.3878 12.7157 13.1843 12.5657 13.0343C12.4157 12.8843 12.2122 12.8 12 12.8Z" fill="white"/>
</svg>
