<svg width="32" height="29" viewBox="0 0 32 29" fill="none" xmlns="http://www.w3.org/2000/svg">
<path d="M7.27273 5.74017C7.27273 4.97898 7.57922 4.24896 8.12478 3.71072C8.67034 3.17247 9.41028 2.87009 10.1818 2.87009C10.5676 2.87009 10.9376 2.7189 11.2103 2.44977C11.4831 2.18065 11.6364 1.81564 11.6364 1.43504C11.6364 1.05445 11.4831 0.689437 11.2103 0.420314C10.9376 0.151192 10.5676 0 10.1818 0C8.63874 0 7.15886 0.604767 6.06774 1.68126C4.97662 2.75775 4.36364 4.21778 4.36364 5.74017V10.0453C4.36364 10.8065 4.05714 11.5365 3.51158 12.0748C2.96602 12.613 2.22608 12.9154 1.45455 12.9154C1.06878 12.9154 0.698807 13.0666 0.426026 13.3357C0.153246 13.6048 0 13.9698 0 14.3504C0 14.731 0.153246 15.096 0.426026 15.3652C0.698807 15.6343 1.06878 15.7855 1.45455 15.7855C2.22608 15.7855 2.96602 16.0879 3.51158 16.6261C4.05714 17.1644 4.36364 17.8944 4.36364 18.6556V22.9607C4.36364 24.4831 4.97662 25.9431 6.06774 27.0196C7.15886 28.0961 8.63874 28.7009 10.1818 28.7009C10.5676 28.7009 10.9376 28.5497 11.2103 28.2806C11.4831 28.0114 11.6364 27.6464 11.6364 27.2658C11.6364 26.8852 11.4831 26.5202 11.2103 26.2511C10.9376 25.982 10.5676 25.8308 10.1818 25.8308C9.41028 25.8308 8.67034 25.5284 8.12478 24.9902C7.57922 24.4519 7.27273 23.7219 7.27273 22.9607V18.6556C7.26805 17.8384 7.08657 17.0315 6.7404 16.2891C6.39424 15.5467 5.89138 14.8857 5.26545 14.3504C5.89138 13.8152 6.39424 13.1542 6.7404 12.4118C7.08657 11.6693 7.26805 10.8625 7.27273 10.0453V5.74017ZM30.5455 12.9154C29.7739 12.9154 29.034 12.613 28.4884 12.0748C27.9429 11.5365 27.6364 10.8065 27.6364 10.0453V5.74017C27.6364 4.21778 27.0234 2.75775 25.9323 1.68126C24.8411 0.604767 23.3613 0 21.8182 0C21.4324 0 21.0624 0.151192 20.7897 0.420314C20.5169 0.689437 20.3636 1.05445 20.3636 1.43504C20.3636 1.81564 20.5169 2.18065 20.7897 2.44977C21.0624 2.7189 21.4324 2.87009 21.8182 2.87009C22.5897 2.87009 23.3297 3.17247 23.8752 3.71072C24.4208 4.24896 24.7273 4.97898 24.7273 5.74017V10.0453C24.7319 10.8625 24.9134 11.6693 25.2596 12.4118C25.6058 13.1542 26.1086 13.8152 26.7345 14.3504C26.1086 14.8857 25.6058 15.5467 25.2596 16.2891C24.9134 17.0315 24.7319 17.8384 24.7273 18.6556V22.9607C24.7273 23.7219 24.4208 24.4519 23.8752 24.9902C23.3297 25.5284 22.5897 25.8308 21.8182 25.8308C21.4324 25.8308 21.0624 25.982 20.7897 26.2511C20.5169 26.5202 20.3636 26.8852 20.3636 27.2658C20.3636 27.6464 20.5169 28.0114 20.7897 28.2806C21.0624 28.5497 21.4324 28.7009 21.8182 28.7009C23.3613 28.7009 24.8411 28.0961 25.9323 27.0196C27.0234 25.9431 27.6364 24.4831 27.6364 22.9607V18.6556C27.6364 17.8944 27.9429 17.1644 28.4884 16.6261C29.034 16.0879 29.7739 15.7855 30.5455 15.7855C30.9312 15.7855 31.3012 15.6343 31.574 15.3652C31.8468 15.096 32 14.731 32 14.3504C32 13.9698 31.8468 13.6048 31.574 13.3357C31.3012 13.0666 30.9312 12.9154 30.5455 12.9154Z" fill="#548CA8"/>
</svg>
