<svg width="10" height="16" viewBox="0 0 10 16" fill="none" xmlns="http://www.w3.org/2000/svg">
<path d="M6.4 7.2H5.6V4H7.2C7.41217 4 7.61566 4.08429 7.76569 4.23431C7.91571 4.38434 8 4.58783 8 4.8C8 5.01217 8.08428 5.21566 8.23431 5.36569C8.38434 5.51571 8.58783 5.6 8.8 5.6C9.01217 5.6 9.21566 5.51571 9.36569 5.36569C9.51572 5.21566 9.6 5.01217 9.6 4.8C9.6 4.16348 9.34714 3.55303 8.89706 3.10294C8.44697 2.65286 7.83652 2.4 7.2 2.4H5.6V0.8C5.6 0.587827 5.51571 0.384344 5.36569 0.234315C5.21566 0.0842854 5.01217 0 4.8 0C4.58783 0 4.38434 0.0842854 4.23431 0.234315C4.08429 0.384344 4 0.587827 4 0.8V2.4H3.2C2.35131 2.4 1.53737 2.73714 0.937258 3.33726C0.337142 3.93737 0 4.75131 0 5.6C0 6.44869 0.337142 7.26263 0.937258 7.86274C1.53737 8.46286 2.35131 8.8 3.2 8.8H4V12H2.4C2.18783 12 1.98434 11.9157 1.83431 11.7657C1.68429 11.6157 1.6 11.4122 1.6 11.2C1.6 10.9878 1.51571 10.7843 1.36569 10.6343C1.21566 10.4843 1.01217 10.4 0.8 10.4C0.587827 10.4 0.384344 10.4843 0.234315 10.6343C0.0842856 10.7843 0 10.9878 0 11.2C0 11.8365 0.252856 12.447 0.702944 12.8971C1.15303 13.3471 1.76348 13.6 2.4 13.6H4V15.2C4 15.4122 4.08429 15.6157 4.23431 15.7657C4.38434 15.9157 4.58783 16 4.8 16C5.01217 16 5.21566 15.9157 5.36569 15.7657C5.51571 15.6157 5.6 15.4122 5.6 15.2V13.6H6.4C7.24869 13.6 8.06262 13.2629 8.66274 12.6627C9.26286 12.0626 9.6 11.2487 9.6 10.4C9.6 9.55131 9.26286 8.73737 8.66274 8.13726C8.06262 7.53714 7.24869 7.2 6.4 7.2ZM4 7.2H3.2C2.77565 7.2 2.36869 7.03143 2.06863 6.73137C1.76857 6.43131 1.6 6.02435 1.6 5.6C1.6 5.17565 1.76857 4.76869 2.06863 4.46863C2.36869 4.16857 2.77565 4 3.2 4H4V7.2ZM6.4 12H5.6V8.8H6.4C6.82435 8.8 7.23131 8.96857 7.53137 9.26863C7.83143 9.56869 8 9.97565 8 10.4C8 10.8243 7.83143 11.2313 7.53137 11.5314C7.23131 11.8314 6.82435 12 6.4 12Z" fill="white"/>
</svg>
