<svg width="32" height="32" viewBox="0 0 32 32" fill="none" xmlns="http://www.w3.org/2000/svg">
<path d="M19.2 9.47129H20.8C21.2243 9.47129 21.6313 9.30498 21.9314 9.00895C22.2314 8.71291 22.4 8.3114 22.4 7.89275C22.4 7.47409 22.2314 7.07258 21.9314 6.77654C21.6313 6.48051 21.2243 6.3142 20.8 6.3142H19.2C18.7757 6.3142 18.3687 6.48051 18.0686 6.77654C17.7686 7.07258 17.6 7.47409 17.6 7.89275C17.6 8.3114 17.7686 8.71291 18.0686 9.00895C18.3687 9.30498 18.7757 9.47129 19.2 9.47129ZM19.2 15.7855H20.8C21.2243 15.7855 21.6313 15.6192 21.9314 15.3231C22.2314 15.0271 22.4 14.6256 22.4 14.2069C22.4 13.7883 22.2314 13.3868 21.9314 13.0907C21.6313 12.7947 21.2243 12.6284 20.8 12.6284H19.2C18.7757 12.6284 18.3687 12.7947 18.0686 13.0907C17.7686 13.3868 17.6 13.7883 17.6 14.2069C17.6 14.6256 17.7686 15.0271 18.0686 15.3231C18.3687 15.6192 18.7757 15.7855 19.2 15.7855ZM11.2 9.47129H12.8C13.2243 9.47129 13.6313 9.30498 13.9314 9.00895C14.2314 8.71291 14.4 8.3114 14.4 7.89275C14.4 7.47409 14.2314 7.07258 13.9314 6.77654C13.6313 6.48051 13.2243 6.3142 12.8 6.3142H11.2C10.7757 6.3142 10.3687 6.48051 10.0686 6.77654C9.76857 7.07258 9.6 7.47409 9.6 7.89275C9.6 8.3114 9.76857 8.71291 10.0686 9.00895C10.3687 9.30498 10.7757 9.47129 11.2 9.47129ZM11.2 15.7855H12.8C13.2243 15.7855 13.6313 15.6192 13.9314 15.3231C14.2314 15.0271 14.4 14.6256 14.4 14.2069C14.4 13.7883 14.2314 13.3868 13.9314 13.0907C13.6313 12.7947 13.2243 12.6284 12.8 12.6284H11.2C10.7757 12.6284 10.3687 12.7947 10.0686 13.0907C9.76857 13.3868 9.6 13.7883 9.6 14.2069C9.6 14.6256 9.76857 15.0271 10.0686 15.3231C10.3687 15.6192 10.7757 15.7855 11.2 15.7855ZM30.4 28.4139H28.8V1.57855C28.8 1.15989 28.6314 0.758382 28.3314 0.462346C28.0313 0.166311 27.6243 0 27.2 0H4.8C4.37565 0 3.96869 0.166311 3.66863 0.462346C3.36857 0.758382 3.2 1.15989 3.2 1.57855V28.4139H1.6C1.17565 28.4139 0.768687 28.5802 0.468629 28.8762C0.168571 29.1723 0 29.5738 0 29.9924C0 30.4111 0.168571 30.8126 0.468629 31.1086C0.768687 31.4047 1.17565 31.571 1.6 31.571H30.4C30.8243 31.571 31.2313 31.4047 31.5314 31.1086C31.8314 30.8126 32 30.4111 32 29.9924C32 29.5738 31.8314 29.1723 31.5314 28.8762C31.2313 28.5802 30.8243 28.4139 30.4 28.4139ZM17.6 28.4139H14.4V22.0997H17.6V28.4139ZM25.6 28.4139H20.8V20.5211C20.8 20.1025 20.6314 19.701 20.3314 19.4049C20.0313 19.1089 19.6243 18.9426 19.2 18.9426H12.8C12.3757 18.9426 11.9687 19.1089 11.6686 19.4049C11.3686 19.701 11.2 20.1025 11.2 20.5211V28.4139H6.4V3.1571H25.6V28.4139Z" fill="#548CA8"/>
</svg>
