<svg width="19" height="20" viewBox="0 0 19 20" fill="none" xmlns="http://www.w3.org/2000/svg">
<path d="M9.09091 16.3636C9.27071 16.3636 9.44647 16.3103 9.59597 16.2104C9.74547 16.1105 9.86199 15.9686 9.9308 15.8024C9.99961 15.6363 10.0176 15.4535 9.98253 15.2772C9.94745 15.1008 9.86087 14.9389 9.73373 14.8117C9.60659 14.6846 9.44461 14.598 9.26826 14.5629C9.09192 14.5278 8.90913 14.5458 8.74301 14.6147C8.5769 14.6835 8.43492 14.8 8.33503 14.9495C8.23514 15.099 8.18182 15.2747 8.18182 15.4545C8.18182 15.6957 8.2776 15.9269 8.44808 16.0974C8.61857 16.2679 8.8498 16.3636 9.09091 16.3636ZM13.6364 16.3636C13.8162 16.3636 13.9919 16.3103 14.1414 16.2104C14.2909 16.1105 14.4074 15.9686 14.4763 15.8024C14.5451 15.6363 14.5631 15.4535 14.528 15.2772C14.4929 15.1008 14.4063 14.9389 14.2792 14.8117C14.152 14.6846 13.9901 14.598 13.8137 14.5629C13.6374 14.5278 13.4546 14.5458 13.2885 14.6147C13.1224 14.6835 12.9804 14.8 12.8805 14.9495C12.7806 15.099 12.7273 15.2747 12.7273 15.4545C12.7273 15.6957 12.8231 15.9269 12.9935 16.0974C13.164 16.2679 13.3953 16.3636 13.6364 16.3636ZM13.6364 12.7273C13.8162 12.7273 13.9919 12.674 14.1414 12.5741C14.2909 12.4742 14.4074 12.3322 14.4763 12.1661C14.5451 12 14.5631 11.8172 14.528 11.6408C14.4929 11.4645 14.4063 11.3025 14.2792 11.1754C14.152 11.0482 13.9901 10.9616 13.8137 10.9266C13.6374 10.8915 13.4546 10.9095 13.2885 10.9783C13.1224 11.0471 12.9804 11.1636 12.8805 11.3131C12.7806 11.4626 12.7273 11.6384 12.7273 11.8182C12.7273 12.0593 12.8231 12.2905 12.9935 12.461C13.164 12.6315 13.3953 12.7273 13.6364 12.7273ZM9.09091 12.7273C9.27071 12.7273 9.44647 12.674 9.59597 12.5741C9.74547 12.4742 9.86199 12.3322 9.9308 12.1661C9.99961 12 10.0176 11.8172 9.98253 11.6408C9.94745 11.4645 9.86087 11.3025 9.73373 11.1754C9.60659 11.0482 9.44461 10.9616 9.26826 10.9266C9.09192 10.8915 8.90913 10.9095 8.74301 10.9783C8.5769 11.0471 8.43492 11.1636 8.33503 11.3131C8.23514 11.4626 8.18182 11.6384 8.18182 11.8182C8.18182 12.0593 8.2776 12.2905 8.44808 12.461C8.61857 12.6315 8.8498 12.7273 9.09091 12.7273ZM15.4545 1.81818H14.5455V0.909091C14.5455 0.667985 14.4497 0.436754 14.2792 0.266267C14.1087 0.0957789 13.8775 0 13.6364 0C13.3953 0 13.164 0.0957789 12.9935 0.266267C12.8231 0.436754 12.7273 0.667985 12.7273 0.909091V1.81818H5.45455V0.909091C5.45455 0.667985 5.35877 0.436754 5.18828 0.266267C5.01779 0.0957789 4.78656 0 4.54545 0C4.30435 0 4.07312 0.0957789 3.90263 0.266267C3.73214 0.436754 3.63636 0.667985 3.63636 0.909091V1.81818H2.72727C2.00395 1.81818 1.31026 2.10552 0.7988 2.61698C0.287337 3.12844 0 3.82214 0 4.54545V17.2727C0 17.996 0.287337 18.6897 0.7988 19.2012C1.31026 19.7127 2.00395 20 2.72727 20H15.4545C16.1779 20 16.8716 19.7127 17.383 19.2012C17.8945 18.6897 18.1818 17.996 18.1818 17.2727V4.54545C18.1818 3.82214 17.8945 3.12844 17.383 2.61698C16.8716 2.10552 16.1779 1.81818 15.4545 1.81818ZM16.3636 17.2727C16.3636 17.5138 16.2679 17.7451 16.0974 17.9156C15.9269 18.086 15.6957 18.1818 15.4545 18.1818H2.72727C2.48617 18.1818 2.25494 18.086 2.08445 17.9156C1.91396 17.7451 1.81818 17.5138 1.81818 17.2727V9.09091H16.3636V17.2727ZM16.3636 7.27273H1.81818V4.54545C1.81818 4.30435 1.91396 4.07312 2.08445 3.90263C2.25494 3.73214 2.48617 3.63636 2.72727 3.63636H3.63636V4.54545C3.63636 4.78656 3.73214 5.01779 3.90263 5.18828C4.07312 5.35877 4.30435 5.45455 4.54545 5.45455C4.78656 5.45455 5.01779 5.35877 5.18828 5.18828C5.35877 5.01779 5.45455 4.78656 5.45455 4.54545V3.63636H12.7273V4.54545C12.7273 4.78656 12.8231 5.01779 12.9935 5.18828C13.164 5.35877 13.3953 5.45455 13.6364 5.45455C13.8775 5.45455 14.1087 5.35877 14.2792 5.18828C14.4497 5.01779 14.5455 4.78656 14.5455 4.54545V3.63636H15.4545C15.6957 3.63636 15.9269 3.73214 16.0974 3.90263C16.2679 4.07312 16.3636 4.30435 16.3636 4.54545V7.27273ZM4.54545 12.7273C4.72526 12.7273 4.90102 12.674 5.05052 12.5741C5.20002 12.4742 5.31654 12.3322 5.38534 12.1661C5.45415 12 5.47216 11.8172 5.43708 11.6408C5.402 11.4645 5.31542 11.3025 5.18828 11.1754C5.06114 11.0482 4.89916 10.9616 4.72281 10.9266C4.54646 10.8915 4.36368 10.9095 4.19756 10.9783C4.03145 11.0471 3.88947 11.1636 3.78957 11.3131C3.68968 11.4626 3.63636 11.6384 3.63636 11.8182C3.63636 12.0593 3.73214 12.2905 3.90263 12.461C4.07312 12.6315 4.30435 12.7273 4.54545 12.7273ZM4.54545 16.3636C4.72526 16.3636 4.90102 16.3103 5.05052 16.2104C5.20002 16.1105 5.31654 15.9686 5.38534 15.8024C5.45415 15.6363 5.47216 15.4535 5.43708 15.2772C5.402 15.1008 5.31542 14.9389 5.18828 14.8117C5.06114 14.6846 4.89916 14.598 4.72281 14.5629C4.54646 14.5278 4.36368 14.5458 4.19756 14.6147C4.03145 14.6835 3.88947 14.8 3.78957 14.9495C3.68968 15.099 3.63636 15.2747 3.63636 15.4545C3.63636 15.6957 3.73214 15.9269 3.90263 16.0974C4.07312 16.2679 4.30435 16.3636 4.54545 16.3636Z" fill="#6E7377"/>
</svg>
