<svg width="16" height="14" viewBox="0 0 16 14" fill="none" xmlns="http://www.w3.org/2000/svg">
<path d="M13.5997 2.39997H12.5757L12.3197 1.59998C12.1538 1.13058 11.846 0.724405 11.4389 0.437737C11.0318 0.151069 10.5457 -0.00190148 10.0478 1.78425e-05H5.95188C5.44913 0.000958392 4.95936 0.159761 4.55172 0.454013C4.14407 0.748264 3.83913 1.16311 3.67992 1.63998L3.42393 2.43997H2.39995C1.76344 2.43997 1.15301 2.69282 0.702929 3.1429C0.252851 3.59297 0 4.20341 0 4.83992V11.2398C0 11.8763 0.252851 12.4867 0.702929 12.9368C1.15301 13.3869 1.76344 13.6397 2.39995 13.6397H13.5997C14.2362 13.6397 14.8467 13.3869 15.2967 12.9368C15.7468 12.4867 15.9997 11.8763 15.9997 11.2398V4.83992C16.005 4.5214 15.9468 4.20502 15.8286 3.90921C15.7104 3.6134 15.5344 3.34409 15.311 3.11698C15.0877 2.88987 14.8213 2.70951 14.5275 2.5864C14.2337 2.4633 13.9183 2.39992 13.5997 2.39997ZM14.3997 11.1998C14.3997 11.412 14.3154 11.6154 14.1654 11.7655C14.0154 11.9155 13.8119 11.9998 13.5997 11.9998H2.39995C2.18778 11.9998 1.9843 11.9155 1.83428 11.7655C1.68425 11.6154 1.59997 11.412 1.59997 11.1998V4.79992C1.59997 4.58775 1.68425 4.38427 1.83428 4.23424C1.9843 4.08422 2.18778 3.99993 2.39995 3.99993H3.99992C4.17437 4.00904 4.347 3.96079 4.49145 3.86257C4.63591 3.76434 4.74424 3.62153 4.7999 3.45595L5.23189 2.14397C5.28556 1.98508 5.38781 1.84707 5.52418 1.74946C5.66056 1.65184 5.82416 1.59955 5.99188 1.59998H10.0878C10.2555 1.59955 10.4191 1.65184 10.5555 1.74946C10.6919 1.84707 10.7941 1.98508 10.8478 2.14397L11.2798 3.45595C11.3311 3.60854 11.4273 3.74209 11.5557 3.83915C11.6842 3.9362 11.8389 3.99224 11.9998 3.99993H13.5997C13.8119 3.99993 14.0154 4.08422 14.1654 4.23424C14.3154 4.38427 14.3997 4.58775 14.3997 4.79992V11.1998ZM7.99983 3.99993C7.36695 3.99993 6.74827 4.18761 6.22205 4.53922C5.69582 4.89083 5.28568 5.39059 5.04348 5.97531C4.80129 6.56002 4.73792 7.20342 4.86139 7.82414C4.98486 8.44487 5.28962 9.01504 5.73714 9.46256C6.18466 9.91008 6.75483 10.2148 7.37556 10.3383C7.99628 10.4618 8.63968 10.3984 9.2244 10.1562C9.80911 9.91403 10.3089 9.50388 10.6605 8.97766C11.0121 8.45143 11.1998 7.83276 11.1998 7.19987C11.1998 6.35119 10.8626 5.53728 10.2625 4.93717C9.66243 4.33707 8.84851 3.99993 7.99983 3.99993ZM7.99983 8.79984C7.68339 8.79984 7.37405 8.706 7.11094 8.53019C6.84783 8.35439 6.64276 8.1045 6.52166 7.81215C6.40056 7.51979 6.36887 7.19809 6.43061 6.88773C6.49234 6.57737 6.64473 6.29228 6.86849 6.06852C7.09225 5.84476 7.37733 5.69238 7.6877 5.63064C7.99806 5.56891 8.31976 5.60059 8.61211 5.72169C8.90447 5.84279 9.15435 6.04786 9.33016 6.31097C9.50596 6.57409 9.5998 6.88342 9.5998 7.19987C9.5998 7.62421 9.43123 8.03116 9.13118 8.33121C8.83113 8.63127 8.42417 8.79984 7.99983 8.79984Z" fill="white"/>
</svg>
