<svg width="21" height="27" viewBox="0 0 21 27" fill="none" xmlns="http://www.w3.org/2000/svg">
<path d="M5.36719 16.3398H16.59V25.6575C16.59 26.3274 15.9443 26.8078 15.3027 26.6153L10.9786 25.3181L6.65454 26.6153C6.01292 26.8078 5.36719 26.3273 5.36719 25.6575L5.36719 16.3398Z" fill="#6E7377" fill-opacity="0.4"/>
<path d="M17.6998 4.54134L17.6564 4.512L17.6096 4.48857L17.4729 4.42022L15.9687 3.55755L15.9664 3.55621L12.8056 1.72925C12.8054 1.72909 12.8051 1.72893 12.8048 1.72877C12.1769 1.36392 11.4204 1.2 10.6977 1.2C9.97532 1.2 9.21936 1.36374 8.59162 1.72815L5.42848 3.54527L5.42846 3.54523L5.42136 3.5494L3.91854 4.43342L3.74089 4.52224L3.69446 4.54546L3.65141 4.57448C2.71119 5.20846 2.00668 5.70308 1.6169 6.39057C1.21587 7.09791 1.2 7.91272 1.2 8.93009V14.0028C1.2 15.0207 1.21572 15.8372 1.62446 16.5499C2.01951 17.2388 2.73348 17.7412 3.69553 18.3916L3.71925 18.4076L3.74406 18.4219L8.58553 21.2125C9.22895 21.599 9.98858 21.7385 10.6977 21.7385C11.4085 21.7385 12.1722 21.5828 12.8045 21.2155C12.8049 21.2153 12.8053 21.2151 12.8056 21.2149L17.697 18.3877L17.7201 18.3744L17.7422 18.3596C18.6864 17.7265 19.3938 17.234 19.783 16.5459C20.1829 15.8391 20.1954 15.0218 20.1954 14.0028V8.93009C20.1954 7.91218 20.1796 7.09573 19.7709 6.38295C19.3759 5.69404 18.6619 5.19166 17.6998 4.54134ZM12.1812 10.6811L13.1809 10.9391L12.5339 11.7346C12.3925 11.8973 12.3035 12.0855 12.2504 12.2426C12.1946 12.4074 12.1523 12.6152 12.1663 12.8308C12.1664 12.8315 12.1664 12.8321 12.1665 12.8327L12.2303 13.855L11.2895 13.4744L11.2741 13.4682L11.2585 13.4626C11.0669 13.3942 10.8653 13.3739 10.7033 13.3739C10.5413 13.3739 10.3397 13.3942 10.148 13.4626L10.1361 13.4669L10.1243 13.4715L9.1762 13.8444L9.24012 12.8215C9.24017 12.8209 9.24021 12.8202 9.24025 12.8196C9.25429 12.604 9.21195 12.3961 9.15623 12.2314C9.1025 12.0725 9.01202 11.8818 8.86785 11.7179L8.2152 10.9389L9.21416 10.6811L9.21417 10.6811L9.22039 10.6795C9.44088 10.6207 9.62597 10.5062 9.75702 10.4051C9.89098 10.3017 10.0263 10.1673 10.1288 10.0135L10.1289 10.0136L10.1339 10.0058L10.6977 9.13846L11.2574 9.99951C11.371 10.1802 11.5229 10.3207 11.6549 10.4187C11.7901 10.5189 11.9659 10.6199 12.1613 10.6757L12.1712 10.6785L12.1812 10.6811Z" fill="#8EA7BE" stroke="#ECEEF0" stroke-width="1.6"/>
</svg>
