<svg width="14" height="14" viewBox="0 0 14 14" fill="none" xmlns="http://www.w3.org/2000/svg">
<path d="M4.45417 6.35935C4.32777 6.35935 4.20421 6.39689 4.09911 6.46721C3.99401 6.53753 3.91209 6.63748 3.86372 6.75442C3.81535 6.87136 3.80269 7.00004 3.82735 7.12418C3.85201 7.24832 3.91288 7.36235 4.00226 7.45185C4.09164 7.54136 4.20552 7.60231 4.32949 7.627C4.45346 7.65169 4.58196 7.63902 4.69875 7.59058C4.81553 7.54214 4.91534 7.46012 4.98556 7.35488C5.05579 7.24963 5.09327 7.1259 5.09327 6.99933C5.09327 6.8296 5.02594 6.66682 4.90608 6.5468C4.78623 6.42678 4.62367 6.35935 4.45417 6.35935ZM7.01057 6.35935C6.88417 6.35935 6.7606 6.39689 6.6555 6.46721C6.55041 6.53753 6.46849 6.63748 6.42012 6.75442C6.37175 6.87136 6.35909 7.00004 6.38375 7.12418C6.40841 7.24832 6.46928 7.36235 6.55866 7.45185C6.64804 7.54136 6.76191 7.60231 6.88589 7.627C7.00986 7.65169 7.13836 7.63902 7.25514 7.59058C7.37192 7.54214 7.47174 7.46012 7.54196 7.35488C7.61219 7.24963 7.64967 7.1259 7.64967 6.99933C7.64967 6.8296 7.58234 6.66682 7.46248 6.5468C7.34263 6.42678 7.18007 6.35935 7.01057 6.35935ZM9.56697 6.35935C9.44057 6.35935 9.317 6.39689 9.2119 6.46721C9.1068 6.53753 9.02489 6.63748 8.97652 6.75442C8.92814 6.87136 8.91549 7.00004 8.94015 7.12418C8.96481 7.24832 9.02568 7.36235 9.11506 7.45185C9.20444 7.54136 9.31831 7.60231 9.44228 7.627C9.56626 7.65169 9.69476 7.63902 9.81154 7.59058C9.92832 7.54214 10.0281 7.46012 10.0984 7.35488C10.1686 7.24963 10.2061 7.1259 10.2061 6.99933C10.2061 6.8296 10.1387 6.66682 10.0189 6.5468C9.89902 6.42678 9.73647 6.35935 9.56697 6.35935ZM7.01057 0.599609C6.17129 0.599609 5.34023 0.765143 4.56484 1.08676C3.78945 1.40837 3.08491 1.87977 2.49145 2.47404C1.29291 3.67422 0.619576 5.30202 0.619576 6.99933C0.613989 8.47711 1.12497 9.91026 2.06394 11.0503L0.785742 12.3303C0.697062 12.4203 0.636989 12.5346 0.613104 12.6587C0.589218 12.7829 0.602589 12.9113 0.651531 13.0279C0.704614 13.143 0.790666 13.2398 0.898765 13.3059C1.00686 13.3719 1.13213 13.4044 1.25868 13.399H7.01057C8.70557 13.399 10.3311 12.7248 11.5297 11.5246C12.7282 10.3244 13.4016 8.69664 13.4016 6.99933C13.4016 5.30202 12.7282 3.67422 11.5297 2.47404C10.3311 1.27386 8.70557 0.599609 7.01057 0.599609ZM7.01057 12.1191H2.7989L3.39327 11.5239C3.45365 11.4647 3.5017 11.394 3.53461 11.316C3.56752 11.238 3.58465 11.1542 3.585 11.0695C3.5826 10.9007 3.51368 10.7397 3.39327 10.6216C2.55642 9.78451 2.03529 8.6828 1.91867 7.50413C1.80204 6.32547 2.09714 5.14277 2.75367 4.15755C3.41021 3.17232 4.38757 2.44552 5.51924 2.10097C6.65091 1.75641 7.86687 1.81543 8.95996 2.26796C10.053 2.72049 10.9556 3.53854 11.5139 4.58272C12.0723 5.62691 12.2517 6.83264 12.0218 7.99449C11.7919 9.15633 11.1668 10.2024 10.2531 10.9545C9.3393 11.7066 8.19339 12.1182 7.01057 12.1191Z" fill="#6A8CAA"/>
</svg>
