<svg width="12" height="9" viewBox="0 0 12 9" fill="none" xmlns="http://www.w3.org/2000/svg">
<path d="M11.6977 0.252269C11.6184 0.172327 11.524 0.108881 11.42 0.0655856C11.3159 0.0222898 11.2044 0 11.0917 0C10.9791 0 10.8675 0.0222898 10.7635 0.0655856C10.6595 0.108881 10.5651 0.172327 10.4857 0.252269L4.12475 6.62227L1.45475 3.94027C1.28646 3.78987 1.06647 3.71049 0.84093 3.71878C0.615386 3.72707 0.401818 3.82239 0.245031 3.98474C0.0882455 4.14709 0.00042739 4.36385 1.55589e-06 4.58954C-0.000424278 4.81524 0.0865752 5.03233 0.242747 5.19527L3.52175 8.47427C3.60113 8.55421 3.69554 8.61766 3.79954 8.66095C3.90355 8.70425 4.01509 8.72654 4.12775 8.72654C4.2404 8.72654 4.35195 8.70425 4.45595 8.66095C4.55996 8.61766 4.65437 8.55421 4.73375 8.47427L11.6977 1.50727C11.7844 1.4273 11.8535 1.33027 11.9008 1.22227C11.9481 1.11428 11.9725 0.997661 11.9725 0.879769C11.9725 0.761877 11.9481 0.645262 11.9008 0.537267C11.8535 0.429272 11.7844 0.332236 11.6977 0.252269Z" fill="white"/>
</svg>
