<svg width="12" height="9" viewBox="0 0 12 9" fill="none" xmlns="http://www.w3.org/2000/svg">
<path d="M11.7246 0.252849C11.6451 0.172723 11.5505 0.109132 11.4462 0.0657364C11.342 0.022341 11.2302 0 11.1172 0C11.0043 0 10.8925 0.022341 10.7883 0.0657364C10.684 0.109132 10.5894 0.172723 10.5099 0.252849L4.13423 6.63749L1.45809 3.94933C1.28942 3.79858 1.06893 3.71902 0.842864 3.72733C0.616801 3.73564 0.402741 3.83118 0.245595 3.9939C0.0884484 4.15662 0.000428373 4.37388 1.55947e-06 4.60009C-0.000425254 4.82631 0.0867742 5.0439 0.243306 5.20721L3.52984 8.49375C3.60941 8.57388 3.70403 8.63747 3.80828 8.68086C3.91252 8.72426 4.02432 8.7466 4.13724 8.7466C4.25015 8.7466 4.36195 8.72426 4.4662 8.68086C4.57044 8.63747 4.66507 8.57388 4.74463 8.49375L11.7246 1.51073C11.8115 1.43058 11.8808 1.33332 11.9281 1.22508C11.9755 1.11684 12 0.999954 12 0.881791C12 0.763629 11.9755 0.646746 11.9281 0.538502C11.8808 0.430259 11.8115 0.333 11.7246 0.252849Z" fill="#548ca8"/>
</svg>
