<svg width="53" height="64" viewBox="0 0 53 64" fill="none" xmlns="http://www.w3.org/2000/svg">
<path d="M29.4296 47.6484L22.7342 52.6309L21.4883 58.3934L30.3638 51.6969L29.4296 47.6484Z" fill="white" fill-opacity="0.6"/>
<path d="M30.8321 53.875L22.7344 60.1033L26.7828 63.9963H26.9382C26.9382 63.9963 27.0935 63.9963 27.0935 63.841L31.7654 58.8573C31.7654 58.8573 31.9207 58.702 31.7654 58.5456L30.8321 53.875Z" fill="white" fill-opacity="0.6"/>
<path d="M25.0698 42.0472L23.3568 49.5215L28.8076 45.3168L28.0287 42.0461L30.3641 39.2437C30.3641 39.0884 30.5194 39.0884 30.3641 38.932L28.9629 35.1944C28.9629 35.0391 28.8075 35.0391 28.6511 35.0391H24.2909C24.1356 35.0391 24.1356 35.0391 23.9792 35.1944L22.7344 38.9331V39.2448L25.0698 42.0472Z" fill="white" fill-opacity="0.6"/>
<path d="M26.6279 0C17.9078 0 10.7441 7.16259 10.7441 15.8827C10.7441 24.6027 17.9078 31.7664 26.6279 31.7664C35.348 31.7664 42.5117 24.6027 42.5117 15.8827C42.5106 7.16259 35.348 0 26.6279 0ZM38.6176 15.8827C38.6176 22.4229 33.1668 27.8734 26.6268 27.8734C20.0865 27.8734 14.636 22.4227 14.636 15.8827C14.636 14.9485 14.7914 13.858 14.9478 12.9237C16.349 13.5461 18.8408 14.6367 21.7998 14.6367C23.8245 14.6367 26.16 14.1696 28.34 12.612C28.6518 12.4566 33.9471 8.56352 38.1507 12.4566C38.4625 13.5472 38.6178 14.6367 38.6178 15.8825L38.6176 15.8827Z" fill="white"/>
<path d="M52.32 52.0134L52.4754 47.8087C52.4754 40.8016 46.8694 35.0391 39.8623 35.0391H39.5505L33.3223 62.6019C40.6411 61.2007 47.3375 57.3077 52.32 52.0134ZM46.8704 47.6533H40.9527V45.785H46.8704V47.6533Z" fill="white"/>
<path d="M20.0875 62.9136L13.2355 35.1953H12.6131C5.60594 35.1953 0 40.8013 0 47.965L0.15533 52.6369C5.44955 57.9311 12.3015 61.6678 20.0876 62.9136H20.0875Z" fill="white"/>
</svg>
