<svg width="9" height="10" viewBox="0 0 9 10" fill="none" xmlns="http://www.w3.org/2000/svg">
<path d="M7.66726 0.757359L4.48528 3.93934L1.3033 0.757359C1.16265 0.616707 0.971883 0.53769 0.772971 0.53769C0.574058 0.53769 0.383293 0.616707 0.242641 0.757359C0.101988 0.898012 0.022971 1.08878 0.0229711 1.28769C0.0229708 1.4866 0.101988 1.67737 0.242641 1.81802L3.42462 5L0.242641 8.18198C0.101988 8.32263 0.0229708 8.5134 0.0229711 8.71231C0.022971 8.91122 0.101988 9.10199 0.242641 9.24264C0.383293 9.38329 0.574058 9.46231 0.772971 9.46231C0.971883 9.46231 1.16265 9.38329 1.3033 9.24264L4.48528 6.06066L7.66726 9.24264C7.80791 9.38329 7.99868 9.46231 8.19759 9.46231C8.3965 9.46231 8.58727 9.38329 8.72792 9.24264C8.86857 9.10199 8.94759 8.91122 8.94759 8.71231C8.94759 8.5134 8.86857 8.32263 8.72792 8.18198L5.54594 5L8.72792 1.81802C8.86857 1.67737 8.94759 1.4866 8.94759 1.28769C8.94759 1.08878 8.86857 0.898012 8.72792 0.757359C8.58727 0.616707 8.3965 0.537689 8.19759 0.537689C7.99868 0.537689 7.80791 0.616707 7.66726 0.757359Z" fill="#6E7377"/>
</svg>
