<svg width="8" height="8" viewBox="0 0 8 8" fill="none" xmlns="http://www.w3.org/2000/svg">
<path d="M4.93979 3.99943L7.8041 1.14179C7.92953 1.01635 8 0.846231 8 0.668843C8 0.491455 7.92953 0.321332 7.8041 0.1959C7.67867 0.0704672 7.50854 0 7.33116 0C7.15377 0 6.98365 0.0704672 6.85821 0.1959L4.00057 3.06021L1.14292 0.1959C1.01749 0.0704672 0.847368 -1.32164e-09 0.66998 0C0.492592 1.32165e-09 0.322469 0.0704672 0.197036 0.1959C0.0716041 0.321332 0.0011368 0.491455 0.0011368 0.668843C0.0011368 0.846231 0.0716041 1.01635 0.197036 1.14179L3.06134 3.99943L0.197036 6.85708C0.134602 6.919 0.0850471 6.99267 0.0512292 7.07385C0.0174113 7.15502 0 7.24208 0 7.33002C0 7.41795 0.0174113 7.50502 0.0512292 7.58619C0.0850471 7.66737 0.134602 7.74104 0.197036 7.80296C0.258961 7.8654 0.332634 7.91495 0.413807 7.94877C0.494979 7.98259 0.582045 8 0.66998 8C0.757915 8 0.844981 7.98259 0.926153 7.94877C1.00733 7.91495 1.081 7.8654 1.14292 7.80296L4.00057 4.93866L6.85821 7.80296C6.92014 7.8654 6.99381 7.91495 7.07498 7.94877C7.15616 7.98259 7.24322 8 7.33116 8C7.41909 8 7.50616 7.98259 7.58733 7.94877C7.6685 7.91495 7.74218 7.8654 7.8041 7.80296C7.86653 7.74104 7.91609 7.66737 7.94991 7.58619C7.98373 7.50502 8.00114 7.41795 8.00114 7.33002C8.00114 7.24208 7.98373 7.15502 7.94991 7.07385C7.91609 6.99267 7.86653 6.919 7.8041 6.85708L4.93979 3.99943Z" fill="#6A8CAA"/>
</svg>
