<svg width="27" height="32" viewBox="0 0 27 32" fill="none" xmlns="http://www.w3.org/2000/svg">
<path d="M2.7013 20.4062L1.33057 20.789L0.464844 22.1285L2.55701 31.0586L3.74738 31.537H23.0458L24.2722 30.8672L26.4365 22.1285L25.8233 21.0441L24.669 20.4062H2.7013Z" fill="#A6BACC"/>
<path d="M24.4256 19.9377L2.47284 19.9375C1.08703 20.0548 0 21.0752 0 22.3134L1.7413 29.7078C1.80257 30.9736 3.01977 31.9958 4.47998 31.9958H22.4189C23.8795 31.9958 25.0969 30.9736 25.1571 29.7076L26.8787 22.4912L26.8993 22.3139C26.899 21.0755 25.8117 20.0553 24.4258 19.938L24.4256 19.9377ZM24.0392 29.5496L24.0279 29.6394C24.0091 30.3949 23.2877 31.0106 22.419 31.0106H4.4801C3.61172 31.0106 2.88996 30.3952 2.87118 29.6394L1.1324 22.267C1.1605 21.5154 1.87099 20.9118 2.74053 20.9118L24.1587 20.912C25.0367 20.912 25.7531 21.5289 25.7669 22.291L24.0392 29.5496Z" fill="#A6BACC"/>
<path d="M14.1401 24.582C14.1229 25.133 13.9257 25.5695 13.6817 25.5695C13.438 25.5695 13.2405 25.1335 13.2233 24.582C12.5515 24.7854 12.0586 25.414 12.0586 26.1673C12.0586 27.0848 12.7851 27.8285 13.6817 27.8285C14.5783 27.8285 15.3051 27.0848 15.3051 26.1673C15.3056 25.414 14.8124 24.7854 14.1401 24.582H14.1401Z" fill="#548CA8"/>
<path d="M23.6966 19.3138H24.8473L24.847 19.214V18.9256H24.8316C24.6761 16.0673 22.6812 14.2389 19.6517 14.2389H18.3552L9.00745 14.2383H7.71096C4.682 14.2383 2.68688 16.0668 2.53106 18.9253H2.51562V19.3139L23.6966 19.3138Z" fill="#548CA8"/>
<path d="M13.6871 0C9.87008 0 6.73438 3.13571 6.73438 6.95268C6.73438 10.7696 9.87008 13.9054 13.6871 13.9054C17.504 13.9054 20.6397 10.7696 20.6397 6.95268C20.6397 3.13522 17.5725 0 13.6871 0ZM18.9357 6.95268C18.9357 9.8155 16.5497 12.2013 13.6871 12.2013C10.8242 12.2008 8.50684 9.81538 8.50684 6.95268C8.50684 6.54378 8.57483 6.06642 8.6433 5.65747C9.25665 5.92991 10.3474 6.40728 11.6426 6.40728C12.5288 6.40728 13.5511 6.20283 14.5054 5.52102C14.5734 5.45303 16.8913 3.81697 18.7313 5.45303C18.8678 5.92993 18.9358 6.40728 18.9358 6.95261L18.9357 6.95268Z" fill="#548CA8"/>
</svg>
