<svg width="22" height="22" viewBox="0 0 22 22" fill="none" xmlns="http://www.w3.org/2000/svg">
<path d="M16.5012 7.99793C15.6059 7.99755 14.7245 8.21899 13.9358 8.64246C13.8638 8.45289 13.7358 8.2897 13.5689 8.17457C13.402 8.05945 13.204 7.99784 13.0012 7.99793H9.00119C8.86985 7.99786 8.73978 8.02367 8.61842 8.0739C8.49706 8.12413 8.38679 8.19779 8.29392 8.29066C8.20104 8.38353 8.12739 8.4938 8.07716 8.61516C8.02693 8.73652 8.00112 8.86659 8.00119 8.99793V20.9979C8.00112 21.1293 8.02693 21.2593 8.07716 21.3807C8.12738 21.5021 8.20104 21.6123 8.29391 21.7052C8.38679 21.7981 8.49706 21.8717 8.61842 21.922C8.73978 21.9722 8.86985 21.998 9.00119 21.9979H13.0012C13.1325 21.998 13.2626 21.9722 13.384 21.922C13.5053 21.8717 13.6156 21.7981 13.7085 21.7052C13.8013 21.6123 13.875 21.5021 13.9252 21.3807C13.9755 21.2593 14.0013 21.1293 14.0012 20.9979V15.4979C14.0012 15.2327 14.1065 14.9784 14.2941 14.7908C14.4816 14.6033 14.736 14.4979 15.0012 14.4979C15.2664 14.4979 15.5208 14.6033 15.7083 14.7908C15.8958 14.9784 16.0012 15.2327 16.0012 15.4979V20.9979C16.0011 21.1293 16.0269 21.2593 16.0772 21.3807C16.1274 21.5021 16.201 21.6123 16.2939 21.7052C16.3868 21.7981 16.4971 21.8717 16.6184 21.922C16.7398 21.9722 16.8698 21.998 17.0012 21.9979H21.0012C21.1325 21.998 21.2626 21.9722 21.384 21.922C21.5053 21.8717 21.6156 21.7981 21.7085 21.7052C21.8013 21.6123 21.875 21.5021 21.9252 21.3807C21.9755 21.2593 22.0013 21.1293 22.0012 20.9979V13.4979C21.9994 12.0398 21.4193 10.6419 20.3883 9.61085C19.3572 8.57979 17.9593 7.99975 16.5012 7.99793V7.99793ZM20.0012 19.9979H18.0012V15.4979C18.0012 14.7023 17.6851 13.9392 17.1225 13.3766C16.5599 12.814 15.7968 12.4979 15.0012 12.4979C14.2055 12.4979 13.4425 12.814 12.8799 13.3766C12.3173 13.9392 12.0012 14.7023 12.0012 15.4979V19.9979H10.0012V9.99793H12.0012V10.7011C12.0013 10.9083 12.0658 11.1103 12.1856 11.2793C12.3055 11.4483 12.4749 11.5759 12.6704 11.6445C12.8659 11.7131 13.0779 11.7193 13.2771 11.6623C13.4763 11.6052 13.6529 11.4878 13.7824 11.3261C14.2312 10.7561 14.8468 10.3405 15.5432 10.1373C16.2396 9.93411 16.982 9.95345 17.6669 10.1926C18.3518 10.4318 18.9449 10.8789 19.3634 11.4715C19.7818 12.064 20.0048 12.7725 20.0012 13.4979V19.9979ZM6.00119 7.99793H2.00119C1.86985 7.99786 1.73978 8.02367 1.61842 8.0739C1.49706 8.12413 1.38679 8.19779 1.29392 8.29066C1.20104 8.38353 1.12739 8.4938 1.07716 8.61516C1.02693 8.73652 1.00112 8.86659 1.00119 8.99793V20.9979C1.00112 21.1293 1.02693 21.2593 1.07716 21.3807C1.12738 21.5021 1.20104 21.6123 1.29391 21.7052C1.38679 21.7981 1.49706 21.8717 1.61842 21.922C1.73978 21.9722 1.86985 21.998 2.00119 21.9979H6.00119C6.13253 21.998 6.26261 21.9722 6.38397 21.922C6.50533 21.8717 6.61559 21.7981 6.70847 21.7052C6.80134 21.6123 6.875 21.5021 6.92523 21.3807C6.97545 21.2593 7.00127 21.1293 7.00119 20.9979V8.99793C7.00127 8.86659 6.97545 8.73652 6.92522 8.61516C6.875 8.4938 6.80134 8.38353 6.70847 8.29066C6.61559 8.19779 6.50532 8.12413 6.38396 8.0739C6.2626 8.02367 6.13253 7.99786 6.00119 7.99793V7.99793ZM5.00119 19.9979H3.00119V9.99793H5.00119V19.9979ZM4.01584 0.540933C3.5782 0.514736 3.13981 0.57783 2.72732 0.726377C2.31483 0.874925 1.93686 1.10582 1.61641 1.40503C1.29595 1.70423 1.03971 2.06549 0.86325 2.46683C0.686793 2.86818 0.593814 3.30122 0.589968 3.73962C0.586122 4.17803 0.671488 4.61264 0.840876 5.01702C1.01026 5.42139 1.26013 5.78709 1.57529 6.09187C1.89044 6.39665 2.2643 6.63415 2.67412 6.78991C3.08394 6.94567 3.52116 7.01645 3.95919 6.99793H3.98751C4.42631 7.024 4.86581 6.96032 5.27917 6.81078C5.69252 6.66125 6.07105 6.42901 6.39161 6.12824C6.71218 5.82748 6.96805 5.46451 7.1436 5.06151C7.31915 4.65852 7.41068 4.22396 7.41261 3.78439C7.41454 3.34483 7.32682 2.90948 7.15481 2.50496C6.98281 2.10044 6.73013 1.73524 6.41221 1.43168C6.0943 1.12811 5.71782 0.892557 5.3058 0.739405C4.89377 0.586252 4.45484 0.518719 4.01583 0.540933H4.01584ZM3.98752 4.99793H3.95919C3.78626 5.01893 3.61083 5.00271 3.44468 4.95036C3.27853 4.89801 3.12549 4.81074 2.99583 4.6944C2.86617 4.57806 2.76289 4.43534 2.69291 4.27581C2.62292 4.11628 2.58786 3.94363 2.59006 3.76944C2.59006 3.02334 3.14963 2.54092 4.01584 2.54092C4.19054 2.51763 4.3682 2.53205 4.53686 2.58321C4.70551 2.63436 4.86125 2.72106 4.99358 2.83748C5.1259 2.95389 5.23175 3.0973 5.30398 3.25806C5.37621 3.41883 5.41316 3.5932 5.41232 3.76944C5.41232 4.51553 4.85275 4.99793 3.98752 4.99793Z" fill="#548CA8"/>
</svg>
