<svg width="70" height="65" viewBox="0 0 70 65" fill="none" xmlns="http://www.w3.org/2000/svg">
<path d="M42.5412 32.8282C44.5499 31.0894 46.1611 28.9389 47.2654 26.5224C48.3697 24.106 48.9412 21.4803 48.9412 18.8235C48.9412 13.8312 46.958 9.04338 43.4279 5.51328C39.8978 1.98319 35.11 0 30.1176 0C25.1253 0 20.3375 1.98319 16.8074 5.51328C13.2773 9.04338 11.2941 13.8312 11.2941 18.8235C11.2941 21.4803 11.8656 24.106 12.9699 26.5224C14.0742 28.9389 15.6854 31.0894 17.6941 32.8282C12.4241 35.2146 7.95281 39.0683 4.81498 43.9286C1.67716 48.7889 0.0055411 54.4501 0 60.2353C0 61.2338 0.396637 62.1913 1.10266 62.8973C1.80868 63.6034 2.76624 64 3.76471 64C4.76317 64 5.72074 63.6034 6.42675 62.8973C7.13277 62.1913 7.52941 61.2338 7.52941 60.2353C7.52941 54.2445 9.90924 48.4991 14.1454 44.263C18.3815 40.0269 24.1269 37.6471 30.1176 37.6471C36.1084 37.6471 41.8538 40.0269 46.0899 44.263C50.3261 48.4991 52.7059 54.2445 52.7059 60.2353C52.7059 61.2338 53.1025 62.1913 53.8085 62.8973C54.5146 63.6034 55.4721 64 56.4706 64C57.4691 64 58.4266 63.6034 59.1326 62.8973C59.8387 62.1913 60.2353 61.2338 60.2353 60.2353C60.2298 54.4501 58.5581 48.7889 55.4203 43.9286C52.2825 39.0683 47.8112 35.2146 42.5412 32.8282ZM30.1176 30.1176C27.8839 30.1176 25.7003 29.4553 23.843 28.2142C21.9857 26.9732 20.5381 25.2093 19.6832 23.1456C18.8284 21.0819 18.6048 18.811 19.0405 16.6202C19.4763 14.4293 20.552 12.4169 22.1315 10.8374C23.711 9.25787 25.7234 8.18221 27.9143 7.74643C30.1051 7.31064 32.376 7.5343 34.4397 8.38913C36.5034 9.24395 38.2673 10.6915 39.5084 12.5489C40.7494 14.4062 41.4118 16.5898 41.4118 18.8235C41.4118 21.8189 40.2219 24.6916 38.1038 26.8097C35.9857 28.9277 33.113 30.1176 30.1176 30.1176Z" fill="#FF5E7B"/>
<path d="M66.1589 49.4503L66.1589 49.4504L66.1678 49.4415C66.7045 48.9048 67.1303 48.2676 67.4208 47.5663C67.7113 46.865 67.8608 46.1134 67.8608 45.3543C67.8608 44.5953 67.7113 43.8437 67.4208 43.1424C67.1303 42.4411 66.7045 41.8039 66.1678 41.2672C65.6311 40.7305 64.9939 40.3047 64.2926 40.0142C63.5913 39.7237 62.8397 39.5742 62.0807 39.5742C61.3216 39.5742 60.57 39.7237 59.8687 40.0142C59.1674 40.3047 58.5302 40.7304 57.9935 41.2672L57.9935 41.2671L57.9846 41.2761L56.4336 42.8468L54.8826 41.2761L54.8826 41.2761L54.8737 41.2672C54.337 40.7304 53.6998 40.3047 52.9985 40.0142C52.2972 39.7237 51.5456 39.5742 50.7865 39.5742C49.2535 39.5742 47.7834 40.1832 46.6994 41.2672C46.1627 41.8039 45.7369 42.4411 45.4464 43.1424L47.2942 43.9077L45.4464 43.1424C45.1559 43.8437 45.0064 44.5953 45.0064 45.3543C45.0064 46.8873 45.6154 48.3575 46.6994 49.4415L46.6994 49.4415L46.7083 49.4504L48.279 51.0014L46.7083 52.5524L46.7052 52.5555C46.1649 53.0914 45.736 53.729 45.4433 54.4315C45.1507 55.134 45 55.8875 45 56.6484C45 57.4094 45.1507 58.1629 45.4433 58.8654C45.735 59.5654 46.1618 60.2009 46.6993 60.7356C47.234 61.2732 47.8696 61.7 48.5696 61.9916C49.272 62.2843 50.0255 62.435 50.7865 62.435C51.5475 62.435 52.301 62.2843 53.0035 61.9916C53.706 61.699 54.3436 61.2701 54.8795 60.7298L54.8826 60.7267L56.4336 59.156L57.9846 60.7267L57.9877 60.7298C58.5236 61.2701 59.1612 61.699 59.8637 61.9916C60.5662 62.2843 61.3196 62.435 62.0807 62.435C62.8417 62.435 63.5951 62.2843 64.2976 61.9916C64.9976 61.7 65.6331 61.2732 66.1678 60.7356C66.7054 60.2009 67.1322 59.5654 67.4238 58.8654C67.7165 58.1629 67.8672 57.4094 67.8672 56.6484C67.8672 55.8875 67.7165 55.134 67.4238 54.4315C67.1312 53.729 66.7023 53.0914 66.162 52.5555L66.1589 52.5524L64.5882 51.0014L66.1589 49.4503Z" fill="#FF5E7B" stroke="#F8F9F9" stroke-width="4"/>
</svg>
