<svg width="52" height="64" viewBox="0 0 52 64" fill="none" xmlns="http://www.w3.org/2000/svg">
<path d="M34.272 31.072C33.9745 31.3719 33.6206 31.61 33.2306 31.7724C32.8407 31.9349 32.4224 32.0186 32 32.0186C31.5776 32.0186 31.1593 31.9349 30.7694 31.7724C30.3794 31.61 30.0255 31.3719 29.728 31.072L25.6 26.912L21.472 31.072C20.8694 31.6746 20.0522 32.0131 19.2 32.0131C18.3478 32.0131 17.5306 31.6746 16.928 31.072C16.3254 30.4694 15.9869 29.6522 15.9869 28.8C15.9869 27.9478 16.3254 27.1306 16.928 26.528L21.088 22.4L16.928 18.272C16.6281 17.9745 16.39 17.6206 16.2275 17.2306C16.0651 16.8407 15.9814 16.4224 15.9814 16C15.9814 15.5776 16.0651 15.1593 16.2275 14.7694C16.39 14.3794 16.6281 14.0255 16.928 13.728C17.2255 13.4281 17.5794 13.19 17.9694 13.0275C18.3593 12.8651 18.7776 12.7814 19.2 12.7814C19.6224 12.7814 20.0407 12.8651 20.4306 13.0275C20.8206 13.19 21.1745 13.4281 21.472 13.728L25.6 17.888L29.728 13.728C30.0255 13.4281 30.3794 13.19 30.7694 13.0275C31.1593 12.8651 31.5776 12.7814 32 12.7814C32.4224 12.7814 32.8407 12.8651 33.2306 13.0275C33.6206 13.19 33.9745 13.4281 34.272 13.728C34.5719 14.0255 34.81 14.3794 34.9725 14.7694C35.1349 15.1593 35.2186 15.5776 35.2186 16C35.2186 16.4224 35.1349 16.8407 34.9725 17.2306C34.81 17.6206 34.5719 17.9745 34.272 18.272L30.112 22.4L34.272 26.528C34.5719 26.8255 34.81 27.1794 34.9725 27.5694C35.1349 27.9593 35.2186 28.3776 35.2186 28.8C35.2186 29.2224 35.1349 29.6407 34.9725 30.0306C34.81 30.4206 34.5719 30.7745 34.272 31.072ZM51.2 41.792C51.1667 42.086 51.1023 42.3756 51.008 42.656V42.944C50.8541 43.273 50.6489 43.5755 50.4 43.84L31.2 63.04C30.9355 63.2889 30.633 63.4941 30.304 63.648H29.984C29.6728 63.8144 29.3384 63.933 28.992 64H9.6C7.05392 64 4.61212 62.9886 2.81178 61.1882C1.01143 59.3879 0 56.9461 0 54.4V9.6C0 7.05392 1.01143 4.61212 2.81178 2.81177C4.61212 1.01143 7.05392 0 9.6 0H41.6C44.1461 0 46.5879 1.01143 48.3882 2.81177C50.1886 4.61212 51.2 7.05392 51.2 9.6V41.6C51.2 41.6 51.2 41.6 51.2 41.792ZM32 53.088L40.288 44.8H35.2C34.3513 44.8 33.5374 45.1371 32.9373 45.7373C32.3371 46.3374 32 47.1513 32 48V53.088ZM44.8 9.6C44.8 8.7513 44.4629 7.93737 43.8627 7.33725C43.2626 6.73714 42.4487 6.4 41.6 6.4H9.6C8.75131 6.4 7.93738 6.73714 7.33726 7.33725C6.73714 7.93737 6.4 8.7513 6.4 9.6V54.4C6.4 55.2487 6.73714 56.0626 7.33726 56.6627C7.93738 57.2629 8.75131 57.6 9.6 57.6H25.6V48C25.6 45.4539 26.6114 43.0121 28.4118 41.2118C30.2121 39.4114 32.6539 38.4 35.2 38.4H44.8V9.6Z" fill="#FF5E7B"/>
</svg>
