<svg viewBox="0 0 48 46" fill="none" xmlns="http://www.w3.org/2000/svg">
<path d="M0 0H41C44.866 0 48 3.13401 48 7V39C48 42.866 44.866 46 41 46H0V0Z" fill="#548CA8" fill-opacity="0.08"/>
<svg  viewBox="0 0 16 16" fill="none" xmlns="http://www.w3.org/2000/svg">
<path d="M8 5.6C7.52532 5.6 7.06131 5.74076 6.66663 6.00447C6.27195 6.26819 5.96434 6.64302 5.78269 7.08156C5.60104 7.5201 5.55351 8.00266 5.64612 8.46822C5.73872 8.93377 5.9673 9.36141 6.30294 9.69706C6.63859 10.0327 7.06623 10.2613 7.53178 10.3539C7.99734 10.4465 8.4799 10.399 8.91844 10.2173C9.35698 10.0357 9.73181 9.72805 9.99553 9.33337C10.2592 8.93869 10.4 8.47468 10.4 8C10.4 7.36348 10.1471 6.75303 9.69706 6.30294C9.24697 5.85286 8.63652 5.6 8 5.6ZM8 8.8C7.84178 8.8 7.6871 8.75308 7.55554 8.66518C7.42398 8.57727 7.32145 8.45233 7.2609 8.30615C7.20035 8.15997 7.1845 7.99911 7.21537 7.84393C7.24624 7.68874 7.32243 7.5462 7.43431 7.43431C7.5462 7.32243 7.68874 7.24624 7.84393 7.21537C7.99911 7.1845 8.15997 7.20035 8.30615 7.2609C8.45233 7.32145 8.57727 7.42398 8.66518 7.55554C8.75308 7.6871 8.8 7.84178 8.8 8C8.8 8.21217 8.71571 8.41566 8.56569 8.56569C8.41566 8.71571 8.21217 8.8 8 8.8ZM15.2 7.2H14.344C14.1654 5.79198 13.5239 4.48326 12.5203 3.47967C11.5167 2.47608 10.208 1.83455 8.8 1.656V0.8C8.8 0.587827 8.71571 0.384344 8.56569 0.234315C8.41566 0.0842854 8.21217 0 8 0C7.78783 0 7.58434 0.0842854 7.43431 0.234315C7.28429 0.384344 7.2 0.587827 7.2 0.8V1.656C5.79198 1.83455 4.48326 2.47608 3.47967 3.47967C2.47608 4.48326 1.83455 5.79198 1.656 7.2H0.8C0.587827 7.2 0.384344 7.28429 0.234315 7.43431C0.0842854 7.58434 0 7.78783 0 8C0 8.21217 0.0842854 8.41566 0.234315 8.56569C0.384344 8.71571 0.587827 8.8 0.8 8.8H1.656C1.83455 10.208 2.47608 11.5167 3.47967 12.5203C4.48326 13.5239 5.79198 14.1654 7.2 14.344V15.2C7.2 15.4122 7.28429 15.6157 7.43431 15.7657C7.58434 15.9157 7.78783 16 8 16C8.21217 16 8.41566 15.9157 8.56569 15.7657C8.71571 15.6157 8.8 15.4122 8.8 15.2V14.344C10.208 14.1654 11.5167 13.5239 12.5203 12.5203C13.5239 11.5167 14.1654 10.208 14.344 8.8H15.2C15.4122 8.8 15.6157 8.71571 15.7657 8.56569C15.9157 8.41566 16 8.21217 16 8C16 7.78783 15.9157 7.58434 15.7657 7.43431C15.6157 7.28429 15.4122 7.2 15.2 7.2ZM8 12.8C7.05065 12.8 6.12262 12.5185 5.33326 11.9911C4.54391 11.4636 3.92868 10.714 3.56538 9.83688C3.20208 8.9598 3.10702 7.99468 3.29223 7.06357C3.47744 6.13246 3.9346 5.27718 4.60589 4.60589C5.27718 3.9346 6.13246 3.47744 7.06357 3.29223C7.99468 3.10702 8.9598 3.20208 9.83688 3.56538C10.714 3.92868 11.4636 4.54391 11.9911 5.33326C12.5185 6.12262 12.8 7.05065 12.8 8C12.8 9.27304 12.2943 10.4939 11.3941 11.3941C10.4939 12.2943 9.27304 12.8 8 12.8Z" fill="#6E7377"/>
</svg>

</svg>
