<svg width="35" height="40" viewBox="0 0 35 40" fill="none" xmlns="http://www.w3.org/2000/svg">
<path d="M28.75 18.75H1.25C0.5625 18.75 0 19.3125 0 20V32.5C0 33.1875 0.5625 33.75 1.25 33.75H28.75C29.4386 33.75 30 33.1875 30 32.5V20C30 19.3125 29.4386 18.75 28.75 18.75ZM7.11143 30H4.7325C4.40242 30 4.04249 29.8186 4.04249 29.38V23.7037C4.04249 23.3437 4.40242 23.0837 4.7325 23.0837H7.02129C11.5888 23.0837 11.4889 30 7.11141 30L7.11143 30ZM15.3129 30.0999C13.4641 30.18 11.5441 28.9497 11.5441 26.5011C11.5441 24.0424 13.4629 22.8337 15.3129 22.8337C17.0617 22.9224 18.8916 24.1325 18.8916 26.5011C18.8916 28.8714 17.0629 30.0999 15.3129 30.0999ZM25.9457 29.2899C25.2445 29.9411 24.4058 30.0712 23.5757 30.0712C21.1583 30.0712 20.0671 28.421 20.0671 26.4925C20.0671 24.5636 21.2783 22.9048 23.5757 22.9048C24.4471 22.9048 25.1357 23.1649 25.8656 23.7949C26.1343 24.0438 26.1656 24.4835 25.8944 24.7636C25.6257 25.0024 25.2155 24.9737 24.9745 24.7335C24.5671 24.3035 24.1469 24.1846 23.5757 24.1846C22.0384 24.1846 21.2981 25.2748 21.2981 26.4935C21.2981 27.7334 22.028 28.8721 23.5757 28.8721C24.1469 28.8721 24.677 28.6408 25.1357 28.2321C25.4457 27.9921 25.8757 28.1107 26.0557 28.3521C26.2144 28.57 26.2945 28.9399 25.9457 29.2898L25.9457 29.2899Z" fill="#FF9903"/>
<path d="M15.2037 24.1338C14.0837 24.1338 12.865 24.9237 12.865 26.5026C12.865 28.0726 14.0848 28.8726 15.2037 28.8726C16.3538 28.8726 17.5823 28.0727 17.5823 26.5026C17.5826 24.9226 16.3538 24.1338 15.2037 24.1338Z" fill="#FF9903"/>
<path d="M7.02134 24.3018H5.36255V28.7792H7.02134C9.71998 28.7795 9.84026 24.3018 7.02134 24.3018Z" fill="#FF9903"/>
<path d="M33.7502 9.48214L25.5181 1.25C24.7954 0.525143 23.5256 0 22.5005 0H8.75049C6.68299 0 5.00049 1.6825 5.00049 3.75V16.25C5.00049 16.9411 5.55936 17.5 6.25049 17.5C6.94162 17.5 7.50049 16.9411 7.50049 16.25V3.75C7.50049 3.06139 8.06047 2.5 8.75049 2.5H20.0005C21.3816 2.5 22.5005 3.62 22.5005 5V9.6875C22.5005 11.2349 23.7681 12.5 25.313 12.5H30.0005C31.3816 12.5 32.5005 13.62 32.5005 15V36.25C32.5005 36.9386 31.9416 37.5 31.2505 37.5H8.75049C8.06047 37.5 7.50049 36.9386 7.50049 36.25C7.50049 35.5589 6.94162 35 6.25049 35C5.55936 35 5.00049 35.5589 5.00049 36.25C5.00049 38.3175 6.68299 40 8.75049 40H31.2505C33.318 40 35.0005 38.3175 35.0005 36.25V12.5C35.0005 11.4763 34.4754 10.2062 33.7505 9.48243L33.7502 9.48214Z" fill="#FF9903"/>
</svg>
