<svg width="16" height="16" viewBox="0 0 16 16" fill="none" xmlns="http://www.w3.org/2000/svg">
<path d="M9.84517 12.2294L8.8125 13.27V8.79511C8.8125 8.5828 8.72816 8.37918 8.57803 8.22906C8.42791 8.07893 8.22429 7.99459 8.01198 7.99459C7.79967 7.99459 7.59605 8.07893 7.44592 8.22906C7.2958 8.37918 7.21146 8.5828 7.21146 8.79511V13.27L6.17878 12.2294C6.10414 12.1547 6.01553 12.0955 5.91801 12.0551C5.82049 12.0147 5.71597 11.9939 5.61041 11.9939C5.50485 11.9939 5.40033 12.0147 5.30281 12.0551C5.20529 12.0955 5.11668 12.1547 5.04204 12.2294C4.9674 12.304 4.90819 12.3926 4.8678 12.4901C4.8274 12.5876 4.80661 12.6922 4.80661 12.7977C4.80661 12.9033 4.8274 13.0078 4.8678 13.1053C4.90819 13.2028 4.9674 13.2915 5.04204 13.3661L7.44361 15.7677C7.51974 15.8405 7.60951 15.8977 7.70778 15.9358C7.8036 15.9781 7.90721 16 8.01198 16C8.11674 16 8.22035 15.9781 8.31618 15.9358C8.41444 15.8977 8.50422 15.8405 8.58035 15.7677L10.9819 13.3661C11.1327 13.2154 11.2173 13.0109 11.2173 12.7977C11.2173 12.5845 11.1327 12.3801 10.9819 12.2294C10.8312 12.0786 10.6267 11.9939 10.4135 11.9939C10.2004 11.9939 9.99592 12.0786 9.84517 12.2294ZM13.1513 3.36757C12.6622 2.24364 11.8181 1.31109 10.7482 0.712816C9.67839 0.114545 8.44191 -0.116441 7.22824 0.0552526C6.01457 0.226946 4.89068 0.791848 4.02878 1.66339C3.16688 2.53494 2.61453 3.66505 2.45635 4.88055C1.69312 5.06333 1.02359 5.52004 0.574914 6.16394C0.126234 6.80785 -0.0703505 7.59411 0.0224938 8.37341C0.115338 9.15271 0.491145 9.87077 1.07855 10.3912C1.66595 10.9117 2.42403 11.1983 3.20884 11.1967C3.42115 11.1967 3.62477 11.1123 3.7749 10.9622C3.92502 10.8121 4.00937 10.6085 4.00937 10.3962C4.00937 10.1838 3.92502 9.98023 3.7749 9.8301C3.62477 9.67997 3.42115 9.59563 3.20884 9.59563C2.78422 9.59563 2.37699 9.42695 2.07673 9.1267C1.77648 8.82644 1.6078 8.41921 1.6078 7.99459C1.6078 7.56996 1.77648 7.16273 2.07673 6.86248C2.37699 6.56222 2.78422 6.39354 3.20884 6.39354C3.42115 6.39354 3.62477 6.3092 3.7749 6.15907C3.92502 6.00895 4.00937 5.80533 4.00937 5.59302C4.01141 4.64622 4.34902 3.73081 4.9622 3.0094C5.57539 2.28799 6.42445 1.80731 7.35855 1.65275C8.29265 1.49818 9.25129 1.67975 10.0642 2.16519C10.8771 2.65063 11.4915 3.40851 11.7984 4.30418C11.8442 4.44174 11.9265 4.56429 12.0364 4.65876C12.1464 4.75322 12.28 4.81605 12.4229 4.84053C12.9561 4.94129 13.4394 5.21966 13.7942 5.63027C14.1489 6.04088 14.3542 6.55954 14.3765 7.10172C14.3987 7.6439 14.2367 8.17764 13.9169 8.61598C13.597 9.05432 13.1381 9.37141 12.615 9.51558C12.513 9.54186 12.4172 9.58797 12.3331 9.65128C12.2489 9.71458 12.178 9.79384 12.1245 9.88453C12.071 9.97522 12.0359 10.0756 12.0211 10.1798C12.0064 10.2841 12.0123 10.3902 12.0386 10.4922C12.0649 10.5942 12.111 10.69 12.1743 10.7741C12.2376 10.8583 12.3169 10.9292 12.4076 10.9827C12.4982 11.0362 12.5986 11.0713 12.7029 11.0861C12.8071 11.1008 12.9133 11.0949 13.0152 11.0686C13.8577 10.846 14.6045 10.3545 15.1422 9.66885C15.68 8.98319 15.9793 8.14077 15.9947 7.26953C16.0101 6.39829 15.7407 5.54582 15.2275 4.84159C14.7144 4.13735 13.9854 3.61981 13.1513 3.36757Z" fill="#3981F7"/>
</svg>
