<svg width="16" height="17" viewBox="0 0 16 17" fill="none" xmlns="http://www.w3.org/2000/svg">
<path d="M9.84517 12.9036L8.8125 13.979V9.35488C8.8125 9.13549 8.72816 8.92509 8.57803 8.76996C8.42791 8.61483 8.22429 8.52768 8.01198 8.52768C7.79967 8.52768 7.59605 8.61483 7.44592 8.76996C7.2958 8.92509 7.21146 9.13549 7.21146 9.35488V13.979L6.17878 12.9036C6.10414 12.8265 6.01553 12.7653 5.91801 12.7235C5.82049 12.6818 5.71597 12.6603 5.61041 12.6603C5.50485 12.6603 5.40033 12.6818 5.30281 12.7235C5.20529 12.7653 5.11668 12.8265 5.04204 12.9036C4.9674 12.9807 4.90819 13.0723 4.8678 13.1731C4.8274 13.2738 4.80661 13.3818 4.80661 13.4909C4.80661 13.6 4.8274 13.708 4.8678 13.8088C4.90819 13.9095 4.9674 14.0011 5.04204 14.0782L7.44361 16.5599C7.51974 16.6352 7.60951 16.6942 7.70778 16.7336C7.8036 16.7773 7.90721 16.7999 8.01198 16.7999C8.11674 16.7999 8.22035 16.7773 8.31618 16.7336C8.41444 16.6942 8.50422 16.6352 8.58035 16.5599L10.9819 14.0782C11.1327 13.9225 11.2173 13.7112 11.2173 13.4909C11.2173 13.2706 11.1327 13.0594 10.9819 12.9036C10.8312 12.7478 10.6267 12.6603 10.4135 12.6603C10.2004 12.6603 9.99592 12.7478 9.84517 12.9036ZM13.1513 3.74642C12.6622 2.58503 11.8181 1.62139 10.7482 1.00318C9.67839 0.384965 8.44191 0.146279 7.22824 0.323696C6.01457 0.501113 4.89068 1.08484 4.02878 1.98544C3.16688 2.88604 2.61453 4.05382 2.45635 5.30984C1.69312 5.49871 1.02359 5.97064 0.574914 6.63601C0.126234 7.30138 -0.0703505 8.11385 0.0224938 8.91912C0.115338 9.7244 0.491145 10.4664 1.07855 11.0042C1.66595 11.542 2.42403 11.8382 3.20884 11.8365C3.42115 11.8365 3.62477 11.7493 3.7749 11.5942C3.92502 11.4391 4.00937 11.2287 4.00937 11.0093C4.00937 10.7899 3.92502 10.5795 3.7749 10.4244C3.62477 10.2692 3.42115 10.1821 3.20884 10.1821C2.78422 10.1821 2.37699 10.0078 2.07673 9.69752C1.77648 9.38726 1.6078 8.96645 1.6078 8.52768C1.6078 8.0889 1.77648 7.66809 2.07673 7.35783C2.37699 7.04757 2.78422 6.87326 3.20884 6.87326C3.42115 6.87326 3.62477 6.78611 3.7749 6.63098C3.92502 6.47585 4.00937 6.26544 4.00937 6.04606C4.01141 5.0677 4.34902 4.12177 4.9622 3.37632C5.57539 2.63086 6.42445 2.13415 7.35855 1.97444C8.29265 1.81473 9.25129 2.00234 10.0642 2.50396C10.8771 3.00558 11.4915 3.78872 11.7984 4.71425C11.8442 4.8564 11.9265 4.98304 12.0364 5.08065C12.1464 5.17826 12.28 5.24318 12.4229 5.26848C12.9561 5.3726 13.4394 5.66025 13.7942 6.08455C14.1489 6.50885 14.3542 7.04479 14.3765 7.60504C14.3987 8.1653 14.2367 8.71683 13.9169 9.16978C13.597 9.62273 13.1381 9.95039 12.615 10.0994C12.513 10.1265 12.4172 10.1742 12.3331 10.2396C12.2489 10.305 12.178 10.3869 12.1245 10.4806C12.071 10.5743 12.0359 10.678 12.0211 10.7858C12.0064 10.8935 12.0123 11.0032 12.0386 11.1086C12.0649 11.2139 12.111 11.3129 12.1743 11.3999C12.2376 11.4868 12.3169 11.5601 12.4076 11.6154C12.4982 11.6707 12.5986 11.707 12.7029 11.7222C12.8071 11.7374 12.9133 11.7313 13.0152 11.7041C13.8577 11.4741 14.6045 10.9663 15.1422 10.2577C15.68 9.54923 15.9793 8.67873 15.9947 7.77845C16.0101 6.87817 15.7407 5.99729 15.2275 5.26957C14.7144 4.54186 13.9854 4.00707 13.1513 3.74642Z" fill="white"/>
</svg>
