<svg width="18" height="14" viewBox="0 0 18 14" fill="none" xmlns="http://www.w3.org/2000/svg">
<path opacity="0.64" d="M14.8327 0.335938H3.16602C2.50297 0.335938 1.86709 0.59933 1.39825 1.06817C0.929408 1.53701 0.666016 2.1729 0.666016 2.83594V11.1693C0.666016 11.8323 0.929408 12.4682 1.39825 12.937C1.86709 13.4059 2.50297 13.6693 3.16602 13.6693H14.8327C15.4957 13.6693 16.1316 13.4059 16.6005 12.937C17.0693 12.4682 17.3327 11.8323 17.3327 11.1693V2.83594C17.3327 2.1729 17.0693 1.53701 16.6005 1.06817C16.1316 0.59933 15.4957 0.335938 14.8327 0.335938ZM14.491 2.0026L9.59102 6.9026C9.51355 6.98071 9.42138 7.0427 9.31983 7.08501C9.21828 7.12732 9.10936 7.1491 8.99935 7.1491C8.88934 7.1491 8.78042 7.12732 8.67887 7.08501C8.57732 7.0427 8.48515 6.98071 8.40768 6.9026L3.50768 2.0026H14.491ZM15.666 11.1693C15.666 11.3903 15.5782 11.6022 15.4219 11.7585C15.2657 11.9148 15.0537 12.0026 14.8327 12.0026H3.16602C2.945 12.0026 2.73304 11.9148 2.57676 11.7585C2.42048 11.6022 2.33268 11.3903 2.33268 11.1693V3.1776L7.23268 8.0776C7.70144 8.54577 8.33685 8.80874 8.99935 8.80874C9.66185 8.80874 10.2973 8.54577 10.766 8.0776L15.666 3.1776V11.1693Z" fill="#476072"/>
</svg>
