<svg width="15" height="16" viewBox="0 0 15 16" fill="none" xmlns="http://www.w3.org/2000/svg">
<path d="M14.6809 12.3203L12.455 8.47638C12.9105 7.63983 13.1478 6.70198 13.1449 5.74948C13.1449 4.22462 12.5392 2.76222 11.461 1.68398C10.3827 0.605747 8.92032 0 7.39546 0C5.8706 0 4.4082 0.605747 3.32996 1.68398C2.25172 2.76222 1.64598 4.22462 1.64598 5.74948C1.64315 6.70198 1.88044 7.63983 2.33592 8.47638L0.110045 12.3203C0.0378156 12.4454 -0.000142312 12.5874 4.00944e-07 12.7318C0.000143114 12.8763 0.0383812 13.0181 0.110857 13.1431C0.183333 13.268 0.287483 13.3717 0.4128 13.4435C0.538117 13.5154 0.680169 13.5529 0.824623 13.5523H3.18191L4.38109 15.5729C4.42151 15.6398 4.4713 15.7007 4.52893 15.7536C4.68119 15.9003 4.88419 15.9827 5.09567 15.9836H5.21066C5.33466 15.9666 5.45314 15.9215 5.55705 15.8518C5.66097 15.782 5.74757 15.6894 5.81025 15.5811L7.39546 12.8542L8.98067 15.6057C9.04427 15.7125 9.13128 15.8035 9.23514 15.8718C9.339 15.9401 9.457 15.9839 9.58026 16H9.69525C9.90957 16.0013 10.1159 15.9187 10.2702 15.77C10.3254 15.7201 10.3726 15.6619 10.4098 15.5975L11.609 13.577H13.9663C14.111 13.5776 14.2533 13.5399 14.3788 13.4678C14.5043 13.3957 14.6085 13.2917 14.6809 13.1663C14.7576 13.0386 14.7982 12.8923 14.7982 12.7433C14.7982 12.5943 14.7576 12.4481 14.6809 12.3203ZM5.08745 13.577L4.35645 12.3532C4.28447 12.2318 4.18241 12.1309 4.06012 12.0604C3.93783 11.9899 3.79944 11.9521 3.6583 11.9507H2.23735L3.41189 9.91375C4.2207 10.6931 5.24008 11.2185 6.34413 11.425L5.08745 13.577ZM7.39546 9.85625C6.58322 9.85625 5.78921 9.6154 5.11386 9.16414C4.4385 8.71288 3.91213 8.07149 3.6013 7.32107C3.29046 6.57066 3.20914 5.74493 3.3676 4.94829C3.52606 4.15165 3.91719 3.4199 4.49153 2.84555C5.06588 2.27121 5.79763 1.88008 6.59427 1.72162C7.3909 1.56316 8.21664 1.64449 8.96705 1.95532C9.71747 2.26615 10.3589 2.79253 10.8101 3.46788C11.2614 4.14324 11.5022 4.93724 11.5022 5.74948C11.5022 6.83867 11.0696 7.88324 10.2994 8.65341C9.52922 9.42358 8.48464 9.85625 7.39546 9.85625ZM11.1326 11.9507C10.9915 11.9521 10.8531 11.9899 10.7308 12.0604C10.6085 12.1309 10.5065 12.2318 10.4345 12.3532L9.70347 13.577L8.45501 11.4004C9.5552 11.1896 10.5708 10.6647 11.379 9.88911L12.5536 11.9261L11.1326 11.9507Z" fill="white"/>
</svg>
