<svg width="20" height="20" viewBox="0 0 20 20" fill="none" xmlns="http://www.w3.org/2000/svg">
<path d="M17.416 1.66406H2.58268C2.33957 1.66406 2.10641 1.76064 1.9345 1.93255C1.76259 2.10446 1.66602 2.33761 1.66602 2.58073V17.4141C1.66602 17.5344 1.68973 17.6536 1.73579 17.7649C1.78186 17.8761 1.84938 17.9771 1.9345 18.0622C2.01962 18.1474 2.12067 18.2149 2.23189 18.261C2.3431 18.307 2.4623 18.3307 2.58268 18.3307H10.566V11.8724H8.39935V9.3724H10.566V7.4974C10.5211 7.05719 10.5731 6.6125 10.7183 6.19451C10.8635 5.77652 11.0983 5.39535 11.4064 5.07774C11.7145 4.76013 12.0883 4.51376 12.5017 4.35593C12.9151 4.19809 13.358 4.13261 13.7993 4.16406C14.448 4.16007 15.0963 4.19346 15.741 4.26406V6.51406H14.416C13.366 6.51406 13.166 7.01406 13.166 7.73906V9.3474H15.666L15.341 11.8474H13.166V18.3307H17.416C17.5364 18.3307 17.6556 18.307 17.7668 18.261C17.878 18.2149 17.9791 18.1474 18.0642 18.0622C18.1493 17.9771 18.2168 17.8761 18.2629 17.7649C18.309 17.6536 18.3327 17.5344 18.3327 17.4141V2.58073C18.3327 2.46035 18.309 2.34115 18.2629 2.22994C18.2168 2.11872 18.1493 2.01767 18.0642 1.93255C17.9791 1.84743 17.878 1.77991 17.7668 1.73384C17.6556 1.68777 17.5364 1.66406 17.416 1.66406Z" fill="white"/>
</svg>
