<svg width="54" height="64" viewBox="0 0 54 64" fill="none" xmlns="http://www.w3.org/2000/svg">
<path d="M5.40057 40.8125L2.65916 41.5779L0.927734 44.2569L5.112 62.1168L7.4927 63.0736H46.089L48.5418 61.7341L52.8704 44.2569L51.6439 42.0882L49.3354 40.8125H5.40057Z" fill="#A4B4C2"/>
<path d="M48.8505 39.8833L4.94561 39.8828C2.17402 40.1174 0 42.1582 0 44.6345L3.48255 59.4231C3.60508 61.9547 6.03946 63.999 8.95983 63.999H44.8371C47.7582 63.999 50.1931 61.9547 50.3134 59.4226L53.7567 44.9901L53.7977 44.6355C53.7971 42.1587 51.6225 40.1184 48.8509 39.8838L48.8505 39.8833ZM48.0776 59.1067L48.0552 59.2864C48.0175 60.7974 46.5747 62.0286 44.8374 62.0286H8.96007C7.22333 62.0286 5.77983 60.7978 5.74227 59.2864L2.26476 44.5416C2.32097 43.0386 3.74193 41.8313 5.48097 41.8313L48.3168 41.8318C50.0726 41.8318 51.5053 43.0655 51.533 44.5897L48.0776 59.1067Z" fill="#A4B4C2"/>
<path d="M28.2782 49.1602C28.2438 50.2621 27.8494 51.1351 27.3614 51.1351C26.8739 51.1351 26.479 50.2631 26.4447 49.1602C25.1011 49.5669 24.1152 50.8241 24.1152 52.3307C24.1152 54.1657 25.5682 55.653 27.3614 55.653C29.1546 55.653 30.6081 54.1657 30.6081 52.3307C30.6091 50.8241 29.6227 49.5668 28.2781 49.1602H28.2782Z" fill="white"/>
<path d="M47.3926 38.6275H49.694L49.6934 38.4279V37.8511H49.6625C49.3515 32.1346 45.3617 28.4777 39.3029 28.4777H36.71L18.0147 28.4766H15.4218C9.36394 28.4766 5.37375 32.1335 5.06212 37.8505H5.03125V38.6276L47.3926 38.6275Z" fill="white"/>
<path d="M27.3739 0C19.7401 0 13.4688 6.27133 13.4688 13.9052C13.4688 21.539 19.7401 27.8103 27.3739 27.8103C35.0077 27.8103 41.279 21.539 41.279 13.9052C41.279 6.27035 35.1448 0 27.3739 0ZM37.871 13.9052C37.871 19.6307 33.0992 24.4022 27.3739 24.4022C21.6483 24.4013 17.0136 19.6305 17.0136 13.9052C17.0136 13.0874 17.1496 12.1327 17.2865 11.3148C18.5132 11.8596 20.6946 12.8144 23.285 12.8144C25.0575 12.8144 27.102 12.4055 29.0105 11.0419C29.1465 10.9059 33.7823 7.63382 37.4623 10.9059C37.7352 11.8597 37.8712 12.8144 37.8712 13.905L37.871 13.9052Z" fill="white"/>
</svg>
