<svg width="27" height="32" viewBox="0 0 27 32" fill="none" xmlns="http://www.w3.org/2000/svg">
<path d="M10.1053 0C9.1751 0 8.42105 0.754047 8.42105 1.68421C8.42105 2.61437 9.1751 3.36842 10.1053 3.36842H11.7895V5.15687C5.14305 5.98567 0 11.6554 0 18.5263C0 25.9676 6.03237 32 13.4737 32C20.915 32 26.9474 25.9676 26.9474 18.5263C26.9474 11.6554 21.8043 5.98567 15.1579 5.15687V3.36842H16.8421C17.7723 3.36842 18.5263 2.61437 18.5263 1.68421C18.5263 0.754047 17.7723 0 16.8421 0H10.1053Z" fill="#6A8CAA"/>
<path d="M4.66726 4.16563C4.18185 3.37408 3.14123 3.11995 2.39693 3.6751C1.74001 4.16508 1.11632 4.6981 0.529982 5.27066C-0.134352 5.91938 -0.0454599 6.98689 0.660798 7.5897C1.36706 8.19251 2.42241 8.10067 3.09966 7.46545C3.44042 7.14584 3.79576 6.84215 4.16455 6.55536C4.89753 5.98534 5.15268 4.95718 4.66726 4.16563Z" fill="#A6BACC"/>
<path d="M22.2795 4.16563C22.7649 3.37408 23.8055 3.11995 24.5498 3.6751C25.2068 4.16508 25.8305 4.6981 26.4168 5.27066C27.0811 5.91938 26.9922 6.98689 26.286 7.5897C25.5797 8.19251 24.5244 8.10067 23.8471 7.46545C23.5064 7.14584 23.151 6.84215 22.7822 6.55536C22.0492 5.98534 21.7941 4.95718 22.2795 4.16563Z" fill="#A6BACC"/>
<circle cx="13.4" cy="18.4" r="10.4" fill="#A6BACC"/>
<path d="M20.7143 18.2859C20.7143 22.0729 17.6442 25.143 13.8571 25.143C10.07 25.143 7 22.0729 7 18.2859C7 14.4988 10.07 11.4287 13.8571 11.4287C17.6442 11.4287 20.7143 14.4988 20.7143 18.2859ZM12.3439 18.2859C12.3439 19.1216 13.0214 19.7991 13.8571 19.7991C14.6929 19.7991 15.3704 19.1216 15.3704 18.2859C15.3704 17.4501 14.6929 16.7726 13.8571 16.7726C13.0214 16.7726 12.3439 17.4501 12.3439 18.2859Z" fill="#6A8CAA"/>
</svg>
