<svg width="18" height="18" viewBox="0 0 18 18" fill="none" xmlns="http://www.w3.org/2000/svg">
<path opacity="0.64" d="M16.841 6.19652C16.841 6.19652 16.841 6.19652 16.841 6.15486C16.2538 4.55171 15.1884 3.16759 13.7889 2.18974C12.3894 1.21189 10.7233 0.6875 9.01602 0.6875C7.30872 0.6875 5.64263 1.21189 4.24311 2.18974C2.84359 3.16759 1.77818 4.55171 1.19102 6.15486C1.19102 6.15486 1.19102 6.15486 1.19102 6.19652C0.535286 8.0056 0.535286 9.98744 1.19102 11.7965C1.19102 11.7965 1.19102 11.7965 1.19102 11.8382C1.77818 13.4413 2.84359 14.8255 4.24311 15.8033C5.64263 16.7812 7.30872 17.3055 9.01602 17.3055C10.7233 17.3055 12.3894 16.7812 13.7889 15.8033C15.1884 14.8255 16.2538 13.4413 16.841 11.8382C16.841 11.8382 16.841 11.8382 16.841 11.7965C17.4967 9.98744 17.4967 8.0056 16.841 6.19652ZM2.54935 10.6632C2.26037 9.57087 2.26037 8.42218 2.54935 7.32986H4.09935C3.96604 8.43697 3.96604 9.55608 4.09935 10.6632H2.54935ZM3.23268 12.3299H4.39935C4.59495 13.0731 4.87453 13.7916 5.23268 14.4715C4.41543 13.9148 3.73226 13.1832 3.23268 12.3299ZM4.39935 5.66319H3.23268C3.72507 4.81243 4.39951 4.08108 5.20768 3.52152C4.85814 4.20256 4.58697 4.92104 4.39935 5.66319ZM8.16602 15.4132C7.14249 14.6621 6.42364 13.5676 6.14102 12.3299H8.16602V15.4132ZM8.16602 10.6632H5.78268C5.62717 9.55752 5.62717 8.43553 5.78268 7.32986H8.16602V10.6632ZM8.16602 5.66319H6.14102C6.42364 4.4255 7.14249 3.33096 8.16602 2.57986V5.66319ZM14.766 5.66319H13.5993C13.4038 4.91999 13.1242 4.20147 12.766 3.52152C13.5833 4.07825 14.2664 4.80981 14.766 5.66319ZM9.83268 2.57986C10.8562 3.33096 11.5751 4.4255 11.8577 5.66319H9.83268V2.57986ZM9.83268 15.4132V12.3299H11.8577C11.5751 13.5676 10.8562 14.6621 9.83268 15.4132ZM12.216 10.6632H9.83268V7.32986H12.216C12.3715 8.43553 12.3715 9.55752 12.216 10.6632ZM12.791 14.4715C13.1492 13.7916 13.4287 13.0731 13.6243 12.3299H14.791C14.2914 13.1832 13.6083 13.9148 12.791 14.4715ZM15.4493 10.6632H13.8993C13.9671 10.1102 14.0005 9.55361 13.9993 8.99652C14.0003 8.43944 13.9669 7.88283 13.8993 7.32986H15.4493C15.7383 8.42218 15.7383 9.57087 15.4493 10.6632Z" fill="#6E7377"/>
</svg>
