<svg width="20" height="21" viewBox="0 0 20 21" fill="none" xmlns="http://www.w3.org/2000/svg">
<path d="M19.8052 8.05699H18.9997V8.01549H9.99983V12.0154H15.6512C14.8267 14.3439 12.6113 16.0154 9.99983 16.0154C6.68639 16.0154 3.99993 13.3289 3.99993 10.0155C3.99993 6.70201 6.68639 4.01556 9.99983 4.01556C11.5293 4.01556 12.9208 4.59255 13.9803 5.53503L16.8087 2.70658C15.0227 1.04211 12.6338 0.015625 9.99983 0.015625C4.47742 0.015625 0 4.49305 0 10.0155C0 15.5379 4.47742 20.0153 9.99983 20.0153C15.5222 20.0153 19.9997 15.5379 19.9997 10.0155C19.9997 9.34496 19.9307 8.69048 19.8052 8.05699Z" fill="#FFC107"/>
<path d="M1.15234 5.36103L4.43779 7.77049C5.32677 5.56953 7.47974 4.01556 9.99919 4.01556C11.5287 4.01556 12.9201 4.59255 13.9796 5.53503L16.8081 2.70658C15.0221 1.04211 12.6331 0.015625 9.99919 0.015625C6.15826 0.015625 2.82731 2.18409 1.15234 5.36103Z" fill="#FF3D00"/>
<path d="M10 20.0156C12.583 20.0156 14.9299 19.0271 16.7044 17.4196L13.6094 14.8007C12.6055 15.5612 11.3575 16.0157 10 16.0157C7.39905 16.0157 5.19059 14.3572 4.3586 12.0427L1.09766 14.5552C2.75263 17.7936 6.11357 20.0156 10 20.0156Z" fill="#4CAF50"/>
<path d="M19.8053 8.05688H18.9998V8.01538H10V12.0153H15.6514C15.2554 13.1338 14.5359 14.0983 13.6079 14.8008C13.6084 14.8003 13.6089 14.8003 13.6094 14.7998L16.7044 17.4187C16.4854 17.6177 19.9998 15.0153 19.9998 10.0153C19.9998 9.34486 19.9308 8.69037 19.8053 8.05688Z" fill="#1976D2"/>
</svg>
