<svg width="24" height="19" viewBox="0 0 24 19" fill="none" xmlns="http://www.w3.org/2000/svg">
<path d="M23.4171 6.41236L22.274 5.7837L11.9868 0.0685813H11.8611C11.791 0.0389528 11.7183 0.0159909 11.6439 0H11.4267H11.221C11.1429 0.0160015 11.0664 0.0389532 10.9924 0.0685813H10.8667L0.579454 5.7837C0.403545 5.88339 0.257228 6.02796 0.155431 6.20266C0.0536343 6.37736 0 6.57593 0 6.77813C0 6.98032 0.0536343 7.1789 0.155431 7.3536C0.257228 7.5283 0.403545 7.67287 0.579454 7.77256L3.42558 9.34993V14.7679C3.42558 15.6773 3.78686 16.5495 4.42993 17.1926C5.07301 17.8357 5.94521 18.1969 6.85465 18.1969H15.9988C16.9083 18.1969 17.7805 17.8357 18.4236 17.1926C19.0666 16.5495 19.4279 15.6773 19.4279 14.7679V9.34993L21.714 8.06975V11.3388C21.714 11.6419 21.8344 11.9327 22.0487 12.147C22.2631 12.3614 22.5538 12.4818 22.857 12.4818C23.1601 12.4818 23.4509 12.3614 23.6652 12.147C23.8796 11.9327 24 11.6419 24 11.3388V7.40679C23.9997 7.20425 23.9455 7.00544 23.8431 6.83071C23.7406 6.65598 23.5936 6.5116 23.4171 6.41236ZM17.1419 14.7679C17.1419 15.071 17.0214 15.3617 16.8071 15.5761C16.5927 15.7905 16.302 15.9109 15.9988 15.9109H6.85465C6.5515 15.9109 6.26077 15.7905 6.04641 15.5761C5.83205 15.3617 5.71163 15.071 5.71163 14.7679V10.6187L10.8667 13.4762L11.0381 13.5448H11.141C11.2359 13.5568 11.3319 13.5568 11.4267 13.5448C11.5216 13.5568 11.6176 13.5568 11.7125 13.5448H11.8154C11.8761 13.532 11.9341 13.5088 11.9868 13.4762L17.1419 10.6187V14.7679ZM11.4267 11.1788L3.49416 6.7667L11.4267 2.35463L19.3593 6.7667L11.4267 11.1788Z" fill="#548CA8"/>
</svg>
