<svg width="16" height="16" viewBox="0 0 16 16" fill="none" xmlns="http://www.w3.org/2000/svg">
<path d="M8 4C7.78783 4 7.58434 4.08429 7.43431 4.23431C7.28429 4.38434 7.2 4.58783 7.2 4.8V8C7.2 8.21217 7.28429 8.41566 7.43431 8.56569C7.58434 8.71571 7.78783 8.8 8 8.8C8.21217 8.8 8.41566 8.71571 8.56569 8.56569C8.71571 8.41566 8.8 8.21217 8.8 8V4.8C8.8 4.58783 8.71571 4.38434 8.56569 4.23431C8.41566 4.08429 8.21217 4 8 4ZM8 10.4C7.84177 10.4 7.6871 10.4469 7.55554 10.5348C7.42398 10.6227 7.32145 10.7477 7.2609 10.8939C7.20035 11.04 7.1845 11.2009 7.21537 11.3561C7.24624 11.5113 7.32243 11.6538 7.43431 11.7657C7.5462 11.8776 7.68874 11.9538 7.84393 11.9846C7.99911 12.0155 8.15997 11.9997 8.30615 11.9391C8.45233 11.8786 8.57727 11.776 8.66518 11.6445C8.75308 11.5129 8.8 11.3582 8.8 11.2C8.8 10.9878 8.71571 10.7843 8.56569 10.6343C8.41566 10.4843 8.21217 10.4 8 10.4ZM15.768 4.448L11.552 0.232C11.3987 0.085813 11.1958 0.00294679 10.984 0H5.016C4.80419 0.00294679 4.60131 0.085813 4.448 0.232L0.232 4.448C0.085813 4.60131 0.00294679 4.80419 0 5.016V10.984C0.00294679 11.1958 0.085813 11.3987 0.232 11.552L4.448 15.768C4.60131 15.9142 4.80419 15.9971 5.016 16H10.984C11.1958 15.9971 11.3987 15.9142 11.552 15.768L15.768 11.552C15.9142 11.3987 15.9971 11.1958 16 10.984V5.016C15.9971 4.80419 15.9142 4.60131 15.768 4.448ZM14.4 10.648L10.648 14.4H5.352L1.6 10.648V5.352L5.352 1.6H10.648L14.4 5.352V10.648Z" fill="#FF5E7B"/>
</svg>
