<svg width="20" height="20" viewBox="0 0 20 20" fill="none" xmlns="http://www.w3.org/2000/svg">
<path d="M9.99935 7.93073C9.5906 7.93073 9.19103 8.05194 8.85117 8.27902C8.51131 8.50611 8.24642 8.82888 8.09 9.20652C7.93358 9.58415 7.89265 9.99969 7.97239 10.4006C8.05214 10.8015 8.24897 11.1697 8.53799 11.4587C8.82702 11.7478 9.19527 11.9446 9.59616 12.0244C9.99706 12.1041 10.4126 12.0632 10.7902 11.9067C11.1679 11.7503 11.4906 11.4854 11.7177 11.1456C11.9448 10.8057 12.066 10.4061 12.066 9.9974C12.066 9.726 12.0126 9.45726 11.9087 9.20652C11.8048 8.95578 11.6526 8.72795 11.4607 8.53604C11.2688 8.34413 11.041 8.1919 10.7902 8.08804C10.5395 7.98418 10.2707 7.93073 9.99935 7.93073ZM18.2743 5.88906C18.27 5.24553 18.1515 4.60787 17.9243 4.00573C17.7571 3.56511 17.4983 3.16497 17.165 2.83172C16.8318 2.49846 16.4316 2.23966 15.991 2.0724C15.3889 1.84528 14.7512 1.72678 14.1077 1.7224C13.0327 1.66406 12.716 1.66406 9.99935 1.66406C7.28268 1.66406 6.96602 1.66406 5.89102 1.7224C5.24748 1.72678 4.60982 1.84528 4.00768 2.0724C3.56707 2.23966 3.16693 2.49846 2.83367 2.83172C2.50041 3.16497 2.24161 3.56511 2.07435 4.00573C1.84724 4.60787 1.72873 5.24553 1.72435 5.88906C1.66602 6.96406 1.66602 7.28073 1.66602 9.9974C1.66602 12.7141 1.66602 13.0307 1.72435 14.1057C1.73332 14.7515 1.85166 15.3911 2.07435 15.9974C2.24087 16.436 2.49946 16.8338 2.83268 17.1641C3.16451 17.4993 3.56551 17.7581 4.00768 17.9224C4.60982 18.1495 5.24748 18.268 5.89102 18.2724C6.96602 18.3307 7.28268 18.3307 9.99935 18.3307C12.716 18.3307 13.0327 18.3307 14.1077 18.2724C14.7512 18.268 15.3889 18.1495 15.991 17.9224C16.4332 17.7581 16.8342 17.4993 17.166 17.1641C17.4992 16.8338 17.7578 16.436 17.9243 15.9974C18.1512 15.3923 18.2697 14.752 18.2743 14.1057C18.3327 13.0307 18.3327 12.7141 18.3327 9.9974C18.3327 7.28073 18.3327 6.96406 18.2743 5.88906ZM16.1577 12.5557C16.1309 13.07 16.0212 13.5765 15.8327 14.0557C15.6709 14.4555 15.4304 14.8186 15.1255 15.1235C14.8205 15.4284 14.4574 15.669 14.0577 15.8307C13.5739 16.0087 13.0646 16.1072 12.5493 16.1224C11.891 16.1224 11.716 16.1224 9.99935 16.1224C8.28268 16.1224 8.10768 16.1224 7.44935 16.1224C6.93412 16.1072 6.42476 16.0087 5.94102 15.8307C5.52777 15.6772 5.15458 15.4322 4.84935 15.1141C4.5474 14.8151 4.31422 14.454 4.16602 14.0557C3.98731 13.5725 3.89152 13.0625 3.88268 12.5474C3.88268 11.8891 3.88268 11.7141 3.88268 9.9974C3.88268 8.28073 3.88268 8.10573 3.88268 7.4474C3.89152 6.93225 3.98731 6.4223 4.16602 5.93906C4.31958 5.52582 4.56458 5.15263 4.88268 4.8474C5.18296 4.54708 5.54374 4.31414 5.94102 4.16406C6.42476 3.98607 6.93412 3.88757 7.44935 3.8724C8.10768 3.8724 8.28268 3.8724 9.99935 3.8724C11.716 3.8724 11.891 3.8724 12.5493 3.8724C13.0646 3.88757 13.5739 3.98607 14.0577 4.16406C14.4709 4.31763 14.8441 4.56262 15.1493 4.88073C15.4513 5.17969 15.6845 5.54084 15.8327 5.93906C16.0107 6.4228 16.1092 6.93217 16.1243 7.4474C16.1243 8.10573 16.1243 8.28073 16.1243 9.9974C16.1243 11.7141 16.1827 11.8891 16.1577 12.5474V12.5557ZM14.8243 6.35573C14.7251 6.08655 14.5687 5.8421 14.3658 5.63924C14.163 5.43638 13.9185 5.27995 13.6493 5.18073C13.2797 5.05261 12.8905 4.99055 12.4993 4.9974C11.8493 4.9974 11.666 4.9974 9.99935 4.9974C8.33268 4.9974 8.14935 4.9974 7.49935 4.9974C7.10624 5.00124 6.71691 5.07459 6.34935 5.21406C6.08429 5.30878 5.84243 5.45882 5.63984 5.65423C5.43724 5.84964 5.27857 6.08593 5.17435 6.3474C5.05333 6.71853 4.99421 7.10706 4.99935 7.4974C4.99935 8.1474 4.99935 8.33073 4.99935 9.9974C4.99935 11.6641 4.99935 11.8474 4.99935 12.4974C5.00761 12.8901 5.08082 13.2786 5.21602 13.6474C5.31524 13.9166 5.47167 14.161 5.67453 14.3639C5.87738 14.5667 6.12184 14.7232 6.39102 14.8224C6.74657 14.9532 7.12073 15.0263 7.49935 15.0391C8.14935 15.0391 8.33268 15.0391 9.99935 15.0391C11.666 15.0391 11.8493 15.0391 12.4993 15.0391C12.8925 15.0352 13.2818 14.9619 13.6493 14.8224C13.9185 14.7232 14.163 14.5667 14.3658 14.3639C14.5687 14.161 14.7251 13.9166 14.8243 13.6474C14.9638 13.2798 15.0372 12.8905 15.041 12.4974C15.041 11.8474 15.041 11.6641 15.041 9.9974C15.041 8.33073 15.041 8.1474 15.041 7.4974C15.0413 7.10389 14.9678 6.71383 14.8243 6.3474V6.35573ZM9.99935 13.1807C9.5817 13.1807 9.16815 13.0983 8.7824 12.9383C8.39665 12.7782 8.04627 12.5436 7.75133 12.2478C7.4564 11.9521 7.2227 11.6011 7.06364 11.215C6.90457 10.8288 6.82325 10.415 6.82435 9.9974C6.82435 9.36744 7.01126 8.75164 7.36142 8.22797C7.71158 7.70429 8.20924 7.29628 8.79141 7.05559C9.37357 6.8149 10.0141 6.75235 10.6318 6.87585C11.2495 6.99936 11.8167 7.30337 12.2616 7.7494C12.7065 8.19543 13.009 8.76343 13.1309 9.38148C13.2527 9.99954 13.1885 10.6399 12.9463 11.2214C12.7041 11.8029 12.2948 12.2995 11.7702 12.6483C11.2456 12.9971 10.6293 13.1824 9.99935 13.1807ZM13.3327 7.43906C13.1485 7.41956 12.978 7.33258 12.8541 7.19487C12.7302 7.05716 12.6616 6.87847 12.6616 6.69323C12.6616 6.50799 12.7302 6.3293 12.8541 6.19159C12.978 6.05388 13.1485 5.96689 13.3327 5.9474C13.5169 5.96689 13.6874 6.05388 13.8113 6.19159C13.9352 6.3293 14.0037 6.50799 14.0037 6.69323C14.0037 6.87847 13.9352 7.05716 13.8113 7.19487C13.6874 7.33258 13.5169 7.41956 13.3327 7.43906Z" fill="white"/>
</svg>
