<svg width="12" height="12" viewBox="0 0 12 12" fill="none" xmlns="http://www.w3.org/2000/svg">
<path d="M11.8072 2.71942L10.9567 1.87374L11.8072 1.02806C11.92 0.915125 11.9833 0.761946 11.9833 0.602226C11.9833 0.442506 11.92 0.289327 11.8072 0.176388C11.6944 0.0634486 11.5414 0 11.3819 0C11.2224 0 11.0695 0.0634486 10.9567 0.176388L4.64388 6.49798C4.0246 6.08884 3.2757 5.92446 2.5423 6.03669C1.8089 6.14893 1.14321 6.52978 0.674225 7.10546C0.205237 7.68114 -0.0336587 8.41066 0.00382788 9.15266C0.0413145 9.89466 0.352515 10.5963 0.877128 11.1217C1.40174 11.647 2.10242 11.9586 2.84338 11.9962C3.58435 12.0337 4.31285 11.7945 4.88774 11.3248C5.46262 10.8552 5.84294 10.1886 5.95502 9.45416C6.0671 8.71974 5.90294 7.9698 5.49437 7.34966L8.41719 4.41678L9.26169 5.26845C9.31766 5.32404 9.38403 5.36802 9.457 5.39786C9.52998 5.42771 9.60812 5.44284 9.68694 5.44238C9.76577 5.44284 9.8439 5.42771 9.91688 5.39786C9.98985 5.36802 10.0562 5.32404 10.1122 5.26845C10.1683 5.21269 10.2129 5.14636 10.2433 5.07327C10.2737 5.00018 10.2894 4.92179 10.2894 4.84261C10.2894 4.76344 10.2737 4.68504 10.2433 4.61196C10.2129 4.53887 10.1683 4.47253 10.1122 4.41678L9.26169 3.60109L10.1122 2.74941L10.9567 3.60109C11.0127 3.65667 11.079 3.70065 11.152 3.7305C11.225 3.76035 11.3031 3.77548 11.3819 3.77502C11.4608 3.77548 11.5389 3.76035 11.6119 3.7305C11.6848 3.70065 11.7512 3.65667 11.8072 3.60109C11.868 3.54492 11.9165 3.47676 11.9497 3.40089C11.9829 3.32501 12 3.24308 12 3.16025C12 3.07742 11.9829 2.99549 11.9497 2.91962C11.9165 2.84375 11.868 2.77558 11.8072 2.71942ZM2.9968 10.7983C2.64142 10.7983 2.29402 10.6928 1.99854 10.4951C1.70306 10.2974 1.47275 10.0164 1.33676 9.6876C1.20076 9.35882 1.16518 8.99704 1.23451 8.648C1.30384 8.29897 1.47497 7.97836 1.72626 7.72672C1.97755 7.47509 2.29771 7.30372 2.64626 7.23429C2.9948 7.16486 3.35608 7.2005 3.68441 7.33668C4.01273 7.47287 4.29336 7.70349 4.49079 7.99939C4.68823 8.29528 4.79361 8.64316 4.79361 8.99903C4.79361 9.47624 4.60431 9.9339 4.26734 10.2713C3.93037 10.6088 3.47334 10.7983 2.9968 10.7983Z" fill="#6E7377"/>
</svg>
