<svg width="20" height="20" viewBox="0 0 20 20" fill="none" xmlns="http://www.w3.org/2000/svg">
<path d="M18.8889 0H1.11111C0.497461 0 0 0.497461 0 1.11111V18.8889C0 19.5025 0.497461 20 1.11111 20H18.8889C19.5025 20 20 19.5025 20 18.8889V1.11111C20 0.497461 19.5025 0 18.8889 0Z" fill="#117EB8"/>
<path fill-rule="evenodd" clip-rule="evenodd" d="M3.6506 7.73649H6.32366V16.3371H3.6506V7.73649ZM4.98755 3.46122C5.84227 3.46122 6.53671 4.15566 6.53671 5.01038C6.53671 5.86594 5.84227 6.56066 4.98755 6.56066C4.78156 6.56456 4.57687 6.52736 4.38544 6.45123C4.194 6.3751 4.01966 6.26157 3.87261 6.11728C3.72556 5.97299 3.60875 5.80083 3.52901 5.61087C3.44927 5.42091 3.4082 5.21696 3.4082 5.01094C3.4082 4.80492 3.44927 4.60097 3.52901 4.41101C3.60875 4.22105 3.72556 4.04889 3.87261 3.9046C4.01966 3.7603 4.194 3.64678 4.38544 3.57065C4.57687 3.49452 4.78156 3.45732 4.98755 3.46122ZM8.00032 7.73622H10.5642V8.91149H10.5998C10.9567 8.23538 11.8287 7.5226 13.1289 7.5226C15.8356 7.5226 16.3356 9.30399 16.3356 11.6198V16.3371H13.6642V12.1545C13.6642 11.1573 13.6459 9.87427 12.2753 9.87427C10.8845 9.87427 10.6709 10.9607 10.6709 12.0826V16.3371H8.00005V7.73649L8.00032 7.73622Z" fill="white"/>
</svg>
