<svg width="20" height="20" viewBox="0 0 20 20" fill="none" xmlns="http://www.w3.org/2000/svg">
<path d="M17.0585 1.66418H2.9418C2.78311 1.66198 2.62555 1.69105 2.4781 1.74975C2.33066 1.80845 2.19622 1.89561 2.08246 2.00627C1.96871 2.11693 1.87786 2.24892 1.81512 2.39469C1.75238 2.54046 1.71897 2.69716 1.7168 2.85585V17.1392C1.71897 17.2979 1.75238 17.4546 1.81512 17.6003C1.87786 17.7461 1.96871 17.8781 2.08246 17.9888C2.19622 18.0994 2.33066 18.1866 2.4781 18.2453C2.62555 18.304 2.78311 18.333 2.9418 18.3308H17.0585C17.2171 18.333 17.3747 18.304 17.5222 18.2453C17.6696 18.1866 17.804 18.0994 17.9178 17.9888C18.0316 17.8781 18.1224 17.7461 18.1851 17.6003C18.2479 17.4546 18.2813 17.2979 18.2835 17.1392V2.85585C18.2813 2.69716 18.2479 2.54046 18.1851 2.39469C18.1224 2.24892 18.0316 2.11693 17.9178 2.00627C17.804 1.89561 17.6696 1.80845 17.5222 1.74975C17.3747 1.69105 17.2171 1.66198 17.0585 1.66418ZM6.7418 15.6142H4.2418V8.11418H6.7418V15.6142ZM5.4918 7.06418C5.14702 7.06418 4.81636 6.92722 4.57256 6.68342C4.32876 6.43962 4.1918 6.10896 4.1918 5.76418C4.1918 5.4194 4.32876 5.08874 4.57256 4.84494C4.81636 4.60114 5.14702 4.46418 5.4918 4.46418C5.67488 4.44342 5.86028 4.46156 6.03586 4.51742C6.21144 4.57327 6.37325 4.66559 6.51068 4.78831C6.64811 4.91104 6.75807 5.06141 6.83336 5.22958C6.90864 5.39775 6.94756 5.57993 6.94756 5.76418C6.94756 5.94843 6.90864 6.13061 6.83336 6.29878C6.75807 6.46695 6.64811 6.61732 6.51068 6.74004C6.37325 6.86277 6.21144 6.95509 6.03586 7.01094C5.86028 7.0668 5.67488 7.08494 5.4918 7.06418ZM15.7585 15.6142H13.2585V11.5892C13.2585 10.5808 12.9001 9.92251 11.9918 9.92251C11.7107 9.92457 11.437 10.0127 11.2075 10.1752C10.978 10.3376 10.8039 10.5664 10.7085 10.8308C10.6433 11.0267 10.615 11.233 10.6251 11.4392V15.6058H8.12513C8.12513 15.6058 8.12513 8.78918 8.12513 8.10585H10.6251V9.16418C10.8522 8.7701 11.1826 8.44545 11.5805 8.22518C11.9784 8.00492 12.4289 7.89739 12.8835 7.91418C14.5501 7.91418 15.7585 8.98918 15.7585 11.2975V15.6142Z" fill="white"/>
</svg>
