<svg width="14" height="16" viewBox="0 0 14 16" fill="none" xmlns="http://www.w3.org/2000/svg">
<path d="M11.5529 1.98217C10.2838 0.713009 8.56242 -1.33728e-08 6.76756 0C4.97269 1.33728e-08 3.25133 0.713009 1.98217 1.98217C0.713008 3.25133 1.33728e-08 4.97269 0 6.76756C-1.33728e-08 8.56243 0.713008 10.2838 1.98217 11.5529L6.18534 15.7641C6.25948 15.8388 6.34769 15.8982 6.44488 15.9387C6.54207 15.9792 6.64632 16 6.75161 16C6.85689 16 6.96114 15.9792 7.05833 15.9387C7.15552 15.8982 7.24373 15.8388 7.31788 15.7641L11.5529 11.5131C12.8168 10.2492 13.5268 8.535 13.5268 6.74762C13.5268 4.96023 12.8168 3.24605 11.5529 1.98217V1.98217ZM10.4124 10.3725L6.76756 14.0334L3.12269 10.3725C2.4026 9.6518 1.91237 8.73375 1.71395 7.73444C1.51553 6.73512 1.61783 5.69942 2.00794 4.75824C2.39804 3.81706 3.05842 3.01266 3.9056 2.44673C4.75279 1.8808 5.74874 1.57875 6.76756 1.57875C7.78638 1.57875 8.78233 1.8808 9.62951 2.44673C10.4767 3.01266 11.1371 3.81706 11.5272 4.75824C11.9173 5.69942 12.0196 6.73512 11.8212 7.73444C11.6227 8.73375 11.1325 9.6518 10.4124 10.3725V10.3725ZM4.37486 4.31903C3.731 4.96488 3.36945 5.83964 3.36945 6.75161C3.36945 7.66357 3.731 8.53833 4.37486 9.18418C4.85321 9.66334 5.46241 9.99058 6.12604 10.1248C6.78966 10.2591 7.47815 10.1944 8.10513 9.9388C8.73211 9.68323 9.26966 9.24821 9.65034 8.68829C10.031 8.12838 10.2379 7.46851 10.2449 6.79148C10.2485 6.33943 10.1615 5.89124 9.98884 5.47342C9.81623 5.0556 9.5616 4.67663 9.24001 4.35891C8.92391 4.03556 8.54699 3.77792 8.13093 3.6008C7.71488 3.42368 7.2679 3.33059 6.81573 3.32689C6.36356 3.32318 5.91512 3.40893 5.49622 3.5792C5.07731 3.74948 4.69622 4.00091 4.37486 4.31903V4.31903ZM8.11544 8.05164C7.8132 8.35849 7.41375 8.55083 6.98539 8.59578C6.55704 8.64072 6.12637 8.53547 5.76702 8.29803C5.40767 8.06058 5.14196 7.70569 5.01531 7.29402C4.88867 6.88235 4.90895 6.43947 5.0727 6.0411C5.23645 5.64273 5.53349 5.31361 5.91303 5.11001C6.29258 4.90641 6.73107 4.84097 7.15353 4.92488C7.57598 5.00879 7.95618 5.23684 8.2291 5.57004C8.50203 5.90324 8.65074 6.3209 8.64981 6.75161C8.63821 7.24392 8.43167 7.7115 8.07556 8.05164H8.11544Z" fill="#6E7377"/>
</svg>
