<svg width="15" height="17" viewBox="0 0 15 17" fill="none" xmlns="http://www.w3.org/2000/svg">
<path d="M12.275 2.10606C10.9265 0.757572 9.09758 -1.42086e-08 7.19053 0C5.28348 1.42086e-08 3.45454 0.757572 2.10606 2.10606C0.757571 3.45454 1.42086e-08 5.28348 0 7.19053C-1.42086e-08 9.09758 0.757571 10.9265 2.10606 12.275L6.57192 16.7493C6.6507 16.8288 6.74442 16.8918 6.84769 16.9348C6.95095 16.9778 7.06171 17 7.17358 17C7.28545 17 7.39621 16.9778 7.49948 16.9348C7.60274 16.8918 7.69647 16.8288 7.77524 16.7493L12.275 12.2326C13.6179 10.8898 14.3723 9.06844 14.3723 7.16934C14.3723 5.27025 13.6179 3.44893 12.275 2.10606ZM11.0632 11.0208L7.19053 14.9105L3.31786 11.0208C2.55277 10.255 2.03189 9.27961 1.82107 8.21784C1.61025 7.15607 1.71895 6.05563 2.13343 5.05563C2.54791 4.05563 3.24957 3.20096 4.1497 2.59966C5.04983 1.99836 6.10803 1.67742 7.19053 1.67742C8.27303 1.67742 9.33122 1.99836 10.2314 2.59966C11.1315 3.20096 11.8331 4.05563 12.2476 5.05563C12.6621 6.05563 12.7708 7.15607 12.56 8.21784C12.3492 9.27961 11.8283 10.255 11.0632 11.0208ZM4.64829 4.58897C3.96419 5.27519 3.58004 6.20462 3.58004 7.17358C3.58004 8.14254 3.96419 9.07198 4.64829 9.75819C5.15654 10.2673 5.80381 10.615 6.50891 10.7576C7.21401 10.9003 7.94553 10.8315 8.6117 10.56C9.27787 10.2884 9.84901 9.82622 10.2535 9.23131C10.658 8.6364 10.8777 7.9353 10.8852 7.21595C10.8891 6.73564 10.7965 6.25944 10.6131 5.81551C10.4297 5.37157 10.1592 4.96892 9.81751 4.63135C9.48165 4.28779 9.08117 4.01404 8.63911 3.82585C8.19706 3.63766 7.72215 3.53876 7.24171 3.53482C6.76128 3.53088 6.28481 3.62199 5.83973 3.80291C5.39465 3.98382 4.98973 4.25097 4.64829 4.58897ZM8.62265 8.55486C8.30152 8.8809 7.87711 9.08526 7.42198 9.13301C6.96685 9.18076 6.50926 9.06894 6.12746 8.81665C5.74565 8.56437 5.46333 8.18729 5.32877 7.74989C5.19421 7.31249 5.21576 6.84194 5.38974 6.41867C5.56372 5.9954 5.87933 5.64571 6.2826 5.42938C6.68587 5.21306 7.15176 5.14353 7.60062 5.23268C8.04948 5.32184 8.45344 5.56414 8.74342 5.91817C9.0334 6.27219 9.19141 6.71595 9.19042 7.17358C9.17809 7.69666 8.95865 8.19347 8.58029 8.55486H8.62265Z" fill="#548CA8"/>
</svg>
