<svg width="16" height="18" viewBox="0 0 16 18" fill="none" xmlns="http://www.w3.org/2000/svg">
<path opacity="0.64" d="M13.0008 2.73513C11.6747 1.40905 9.87612 0.664062 8.00075 0.664062C6.12539 0.664063 4.32684 1.40905 3.00076 2.73513C1.67467 4.06121 0.929688 5.85977 0.929688 7.73513C0.929687 9.61049 1.67467 11.409 3.00076 12.7351L7.39242 17.1351C7.46989 17.2132 7.56206 17.2752 7.66361 17.3175C7.76516 17.3598 7.87408 17.3816 7.98409 17.3816C8.0941 17.3816 8.20302 17.3598 8.30457 17.3175C8.40612 17.2752 8.49829 17.2132 8.57575 17.1351L13.0008 12.6935C14.3213 11.3729 15.0632 9.58184 15.0632 7.7143C15.0632 5.84675 14.3213 4.0557 13.0008 2.73513ZM11.8091 11.5018L8.00075 15.3268L4.19242 11.5018C3.44004 10.7487 2.92782 9.7895 2.7205 8.74537C2.51318 7.70124 2.62008 6.61909 3.02768 5.6357C3.43527 4.65231 4.12527 3.81184 5.01045 3.22053C5.89563 2.62922 6.93624 2.31361 8.00075 2.31361C9.06527 2.31361 10.1059 2.62922 10.9911 3.22053C11.8762 3.81184 12.5662 4.65231 12.9738 5.6357C13.3814 6.61909 13.4883 7.70124 13.281 8.74537C13.0737 9.7895 12.5615 10.7487 11.8091 11.5018ZM5.50075 5.1768C4.82802 5.85161 4.45025 6.7656 4.45025 7.71846C4.45025 8.67132 4.82802 9.58532 5.50075 10.2601C6.00056 10.7608 6.63708 11.1027 7.33046 11.243C8.02385 11.3832 8.74322 11.3156 9.39832 11.0486C10.0534 10.7816 10.6151 10.327 11.0128 9.742C11.4106 9.15698 11.6267 8.46752 11.6341 7.76013C11.6378 7.2878 11.5469 6.81951 11.3665 6.38295C11.1862 5.94639 10.9201 5.55043 10.5841 5.21846C10.2538 4.88061 9.85999 4.61141 9.42527 4.42635C8.99056 4.24129 8.52354 4.14403 8.05109 4.14015C7.57864 4.13628 7.11009 4.22588 6.6724 4.40379C6.23471 4.5817 5.83652 4.84441 5.50075 5.1768ZM9.40909 9.0768C9.09329 9.39742 8.67593 9.59838 8.22836 9.64534C7.78079 9.6923 7.33081 9.58233 6.95534 9.33424C6.57988 9.08614 6.30225 8.71533 6.16993 8.2852C6.0376 7.85507 6.0588 7.39233 6.22989 6.97609C6.40098 6.55986 6.71134 6.21598 7.10791 6.00324C7.50448 5.79051 7.96263 5.72214 8.40404 5.80981C8.84544 5.89748 9.24268 6.13576 9.52785 6.48391C9.81301 6.83205 9.96839 7.26844 9.96742 7.71846C9.9553 8.23286 9.7395 8.7214 9.36742 9.0768H9.40909Z" fill="#6E7377"/>
</svg>
