<svg width="14" height="18" viewBox="0 0 14 18" fill="none" xmlns="http://www.w3.org/2000/svg">
<path opacity="0.64" d="M7.00065 9.83073C6.74694 9.82776 6.49841 9.90259 6.28852 10.0451C6.07862 10.1877 5.91744 10.3911 5.82666 10.6281C5.73588 10.865 5.71987 11.1241 5.78077 11.3704C5.84168 11.6167 5.97658 11.8384 6.16732 12.0057V13.1641C6.16732 13.3851 6.25511 13.597 6.4114 13.7533C6.56768 13.9096 6.77964 13.9974 7.00065 13.9974C7.22166 13.9974 7.43363 13.9096 7.58991 13.7533C7.74619 13.597 7.83398 13.3851 7.83398 13.1641V12.0057C8.02472 11.8384 8.15962 11.6167 8.22053 11.3704C8.28143 11.1241 8.26542 10.865 8.17464 10.6281C8.08386 10.3911 7.92268 10.1877 7.71278 10.0451C7.50289 9.90259 7.25436 9.82776 7.00065 9.83073ZM11.1673 6.4974V4.83073C11.1673 3.72566 10.7283 2.66585 9.94693 1.88445C9.16553 1.10305 8.10572 0.664063 7.00065 0.664062C5.89558 0.664063 4.83577 1.10305 4.05437 1.88445C3.27297 2.66585 2.83398 3.72566 2.83398 4.83073V6.4974C2.17094 6.4974 1.53506 6.76079 1.06622 7.22963C0.597377 7.69847 0.333984 8.33435 0.333984 8.9974V14.8307C0.333984 15.4938 0.597377 16.1297 1.06622 16.5985C1.53506 17.0673 2.17094 17.3307 2.83398 17.3307H11.1673C11.8304 17.3307 12.4662 17.0673 12.9351 16.5985C13.4039 16.1297 13.6673 15.4938 13.6673 14.8307V8.9974C13.6673 8.33435 13.4039 7.69847 12.9351 7.22963C12.4662 6.76079 11.8304 6.4974 11.1673 6.4974ZM4.50065 4.83073C4.50065 4.16769 4.76404 3.5318 5.23288 3.06296C5.70172 2.59412 6.33761 2.33073 7.00065 2.33073C7.66369 2.33073 8.29958 2.59412 8.76842 3.06296C9.23726 3.5318 9.50065 4.16769 9.50065 4.83073V6.4974H4.50065V4.83073ZM12.0007 14.8307C12.0007 15.0517 11.9129 15.2637 11.7566 15.42C11.6003 15.5763 11.3883 15.6641 11.1673 15.6641H2.83398C2.61297 15.6641 2.40101 15.5763 2.24473 15.42C2.08845 15.2637 2.00065 15.0517 2.00065 14.8307V8.9974C2.00065 8.77638 2.08845 8.56442 2.24473 8.40814C2.40101 8.25186 2.61297 8.16406 2.83398 8.16406H11.1673C11.3883 8.16406 11.6003 8.25186 11.7566 8.40814C11.9129 8.56442 12.0007 8.77638 12.0007 8.9974V14.8307Z" fill="#476072"/>
</svg>
