<svg width="58" height="64" viewBox="0 0 58 64" fill="none" xmlns="http://www.w3.org/2000/svg">
<path d="M27.6696 0C34.1438 0 39.4152 5.20506 39.4152 11.6061C39.4152 13.2398 38.0913 14.5577 36.4636 14.5577C34.8359 14.5577 33.512 13.2398 33.512 11.6061C33.512 8.46613 30.8944 5.90333 27.6755 5.90333H11.7456C8.52682 5.90333 5.90912 8.46022 5.90912 11.6061V52.3939C5.90912 55.5339 8.52669 58.0967 11.7456 58.0967H27.6755C30.8943 58.0967 33.512 55.5398 33.512 52.3939C33.512 50.7602 34.8359 49.4423 36.4636 49.4423C38.0913 49.4423 39.4152 50.7602 39.4152 52.3939C39.4152 58.7948 34.1438 64 27.6696 64H11.7397C5.26588 64 0 58.7949 0 52.3939V11.6061C0 5.20519 5.26588 0 11.7397 0H27.6696ZM47.1743 20.6369L56.5133 29.9759C56.5199 29.9824 56.5264 29.989 56.5329 29.9955L56.5927 30.0598L56.6304 30.099C56.6339 30.1025 56.6374 30.1065 56.6404 30.1105L56.5329 29.9955C56.5842 30.0477 56.6334 30.101 56.6796 30.1557C56.7755 30.2677 56.8609 30.3847 56.9367 30.5068C56.9473 30.5239 56.9583 30.5414 56.9689 30.559C56.9849 30.5861 57.0005 30.6138 57.0161 30.6414C57.6418 31.7729 57.4661 33.2208 56.5028 34.1741L47.1624 43.3749C46.5853 43.9399 45.8319 44.2252 45.0852 44.2252C44.3258 44.2252 43.561 43.9339 42.9838 43.3448C41.8357 42.1786 41.8543 40.3143 43.014 39.1662L47.2236 35.0183H29.702C28.0743 35.0183 26.7504 33.7004 26.7504 32.0667C26.7504 30.4329 28.0743 29.1151 29.702 29.1151H47.3021L42.9954 24.809C41.8413 23.6614 41.8413 21.7846 42.9954 20.637C44.1496 19.4828 46.0202 19.4828 47.1743 20.6369Z" fill="#FF5E7B"/>
</svg>
