<svg width="20" height="21" viewBox="0 0 20 21" fill="none" xmlns="http://www.w3.org/2000/svg">
<path d="M0.500397 7.05397L9.5004 12.254C9.65242 12.3417 9.82486 12.3879 10.0004 12.3879C10.1759 12.3879 10.3484 12.3417 10.5004 12.254L19.5004 7.05397C19.6515 6.96672 19.7772 6.84143 19.8649 6.69056C19.9526 6.53969 19.9993 6.36849 20.0004 6.19397C20.0011 6.01776 19.9552 5.8445 19.8674 5.69172C19.7796 5.53894 19.653 5.41208 19.5004 5.32397L10.5004 0.133975C10.3484 0.0462063 10.1759 0 10.0004 0C9.82486 0 9.65242 0.0462063 9.5004 0.133975L0.500397 5.32397C0.347792 5.41208 0.221178 5.53894 0.133375 5.69172C0.0455716 5.8445 -0.000302856 6.01776 0.000396711 6.19397C0.00145008 6.36849 0.0481556 6.53969 0.135871 6.69056C0.223587 6.84143 0.349259 6.96672 0.500397 7.05397ZM10.0004 2.19397L17.0004 6.19397L10.0004 10.194L3.0004 6.19397L10.0004 2.19397ZM18.5004 9.36397L10.0004 14.194L1.5004 9.32397C1.38626 9.25786 1.26018 9.21497 1.1294 9.19779C0.998619 9.1806 0.865733 9.18946 0.738393 9.22385C0.611053 9.25824 0.491775 9.31749 0.387428 9.39817C0.283081 9.47886 0.195727 9.57939 0.130397 9.69397C2.43336e-05 9.92359 -0.0342419 10.1955 0.0350749 10.4502C0.104392 10.705 0.271665 10.9221 0.500397 11.054L9.5004 16.254C9.65242 16.3417 9.82486 16.388 10.0004 16.388C10.1759 16.388 10.3484 16.3417 10.5004 16.254L19.5004 11.054C19.7291 10.9221 19.8964 10.705 19.9657 10.4502C20.035 10.1955 20.0008 9.92359 19.8704 9.69397C19.8051 9.57939 19.7177 9.47886 19.6134 9.39817C19.509 9.31749 19.3897 9.25824 19.2624 9.22385C19.1351 9.18946 19.0022 9.1806 18.8714 9.19779C18.7406 9.21497 18.6145 9.25786 18.5004 9.32397V9.36397ZM18.5004 13.364L10.0004 18.194L1.5004 13.324C1.38626 13.2579 1.26018 13.215 1.1294 13.1978C0.998619 13.1806 0.865733 13.1895 0.738393 13.2239C0.611053 13.2582 0.491775 13.3175 0.387428 13.3982C0.283081 13.4789 0.195727 13.5794 0.130397 13.694C2.43336e-05 13.9236 -0.0342419 14.1955 0.0350749 14.4502C0.104392 14.705 0.271665 14.9221 0.500397 15.054L9.5004 20.254C9.65242 20.3417 9.82486 20.388 10.0004 20.388C10.1759 20.388 10.3484 20.3417 10.5004 20.254L19.5004 15.054C19.7291 14.9221 19.8964 14.705 19.9657 14.4502C20.035 14.1955 20.0008 13.9236 19.8704 13.694C19.8051 13.5794 19.7177 13.4789 19.6134 13.3982C19.509 13.3175 19.3897 13.2582 19.2624 13.2239C19.1351 13.1895 19.0022 13.1806 18.8714 13.1978C18.7406 13.215 18.6145 13.2579 18.5004 13.324V13.364Z" fill="#548CA8"/>
</svg>
