<svg width="20" height="17" viewBox="0 0 20 17" fill="none" xmlns="http://www.w3.org/2000/svg">
<path d="M16.444 4.22389C15.8324 2.81856 14.7769 1.65253 13.4392 0.904467C12.1016 0.156408 10.5555 -0.132411 9.03797 0.0822697C7.52044 0.29695 6.11515 1.00329 5.03746 2.09304C3.95977 3.1828 3.26912 4.59585 3.07135 6.11568C2.11703 6.34422 1.27987 6.91527 0.718854 7.72039C0.157838 8.52551 -0.0879641 9.50862 0.0281255 10.483C0.144215 11.4574 0.614112 12.3553 1.34858 13.0061C2.08305 13.6568 3.03094 14.0152 4.01224 14.0132C4.27771 14.0132 4.5323 13.9077 4.72001 13.72C4.90773 13.5323 5.01319 13.2777 5.01319 13.0122C5.01319 12.7467 4.90773 12.4921 4.72001 12.3044C4.5323 12.1167 4.27771 12.0113 4.01224 12.0113C3.4813 12.0113 2.97211 11.8003 2.59668 11.4249C2.22125 11.0495 2.01034 10.5403 2.01034 10.0094C2.01034 9.47843 2.22125 8.96924 2.59668 8.59381C2.97211 8.21838 3.4813 8.00747 4.01224 8.00747C4.27771 8.00747 4.5323 7.90201 4.72001 7.7143C4.90773 7.52658 5.01319 7.27199 5.01319 7.00652C5.01574 5.82268 5.43787 4.67807 6.20458 3.77604C6.97129 2.87402 8.03294 2.27299 9.2009 2.07973C10.3689 1.88647 11.5675 2.11349 12.5839 2.72047C13.6003 3.32745 14.3687 4.27507 14.7524 5.39499C14.8096 5.567 14.9125 5.72023 15.05 5.83835C15.1875 5.95646 15.3545 6.03502 15.5332 6.06563C16.1999 6.19162 16.8042 6.53968 17.2478 7.0531C17.6914 7.56652 17.948 8.21503 17.9759 8.89295C18.0037 9.57087 17.8012 10.2383 17.4012 10.7863C17.0013 11.3344 16.4275 11.7309 15.7734 11.9112C15.5159 11.9775 15.2953 12.1435 15.1601 12.3725C15.025 12.6015 14.9863 12.8748 15.0527 13.1323C15.1191 13.3898 15.285 13.6104 15.514 13.7456C15.743 13.8807 16.0164 13.9194 16.2739 13.853C17.3272 13.5747 18.261 12.9602 18.9334 12.1028C19.6057 11.2455 19.98 10.1921 19.9992 9.10278C20.0185 8.01341 19.6817 6.94751 19.04 6.06695C18.3984 5.18639 17.4869 4.53928 16.444 4.22389V4.22389ZM12.7305 10.2996C12.6374 10.2058 12.5267 10.1314 12.4048 10.0805C12.2828 10.0297 12.152 10.0036 12.0198 10.0036C11.8877 10.0036 11.7569 10.0297 11.6349 10.0805C11.5129 10.1314 11.4022 10.2058 11.3092 10.2996L10.0179 11.6009L8.7267 10.2996C8.53822 10.1112 8.28258 10.0053 8.01603 10.0053C7.74948 10.0053 7.49384 10.1112 7.30536 10.2996C7.11687 10.4881 7.01099 10.7438 7.01099 11.0103C7.01099 11.2769 7.11687 11.5325 7.30536 11.721L8.60659 13.0122L7.30536 14.3034C7.21154 14.3965 7.13708 14.5072 7.08626 14.6292C7.03544 14.7511 7.00928 14.882 7.00928 15.0141C7.00928 15.1462 7.03544 15.2771 7.08626 15.3991C7.13708 15.521 7.21154 15.6317 7.30536 15.7248C7.39841 15.8186 7.50911 15.8931 7.63109 15.9439C7.75306 15.9947 7.88389 16.0209 8.01603 16.0209C8.14817 16.0209 8.279 15.9947 8.40097 15.9439C8.52295 15.8931 8.63365 15.8186 8.7267 15.7248L10.0179 14.4235L11.3092 15.7248C11.4022 15.8186 11.5129 15.8931 11.6349 15.9439C11.7569 15.9947 11.8877 16.0209 12.0198 16.0209C12.152 16.0209 12.2828 15.9947 12.4048 15.9439C12.5267 15.8931 12.6374 15.8186 12.7305 15.7248C12.8243 15.6317 12.8988 15.521 12.9496 15.3991C13.0004 15.2771 13.0266 15.1462 13.0266 15.0141C13.0266 14.882 13.0004 14.7511 12.9496 14.6292C12.8988 14.5072 12.8243 14.3965 12.7305 14.3034L11.4293 13.0122L12.7305 11.721C12.8243 11.6279 12.8988 11.5172 12.9496 11.3953C13.0004 11.2733 13.0266 11.1425 13.0266 11.0103C13.0266 10.8782 13.0004 10.7473 12.9496 10.6254C12.8988 10.5034 12.8243 10.3927 12.7305 10.2996V10.2996Z" fill="#558CA7"/>
</svg>
