<svg width="21" height="22" viewBox="0 0 21 22" fill="none" xmlns="http://www.w3.org/2000/svg">
<path d="M14.9773 8.26265H12.7036V5.2522C12.7036 4.89433 12.4089 4.59961 12.051 4.59961C11.6932 4.59961 11.3984 4.89434 11.3984 5.2522V8.93641C11.3984 9.29429 11.6932 9.58901 12.051 9.58901H14.9773C15.3352 9.58901 15.6299 9.29428 15.6299 8.93641C15.6509 8.55739 15.3562 8.26265 14.9773 8.26265H14.9773Z" fill="#A4A5AC"/>
<path d="M3.96595 8.93684C3.96595 10.0456 4.19047 11.0941 4.60012 12.042L1.16619 17.7862L1.16618 17.7861L1.16521 17.7878C0.761039 18.484 0.736446 19.3205 1.14422 20.0227C1.54872 20.7194 2.27073 21.15 3.06349 21.15H12.7056C13.5173 21.15 14.241 20.7211 14.6258 20.0211C15.0324 19.3194 15.0077 18.4836 14.6039 17.7878L14.603 17.7863L13.9924 16.7626C17.5159 15.8951 20.1395 12.7058 20.1396 8.93684H20.1396C20.1396 4.47505 16.5145 0.85 12.0528 0.85C7.591 0.85 3.96595 4.47509 3.96595 8.93684ZM13.2483 18.6104C13.3964 18.8928 13.3053 19.1214 13.2558 19.2087L13.2505 19.2176C13.1953 19.3096 13.0451 19.5236 12.7265 19.5236H3.08441C2.76594 19.5236 2.61567 19.3095 2.56046 19.2176C2.51178 19.1364 2.41058 18.8824 2.56163 18.612L7.38161 10.5507L7.38166 10.5507L7.38361 10.5472C7.53059 10.2859 7.79036 10.2658 7.90546 10.2658C8.00592 10.2658 8.26007 10.2997 8.43129 10.554L13.2483 18.6104ZM18.5133 8.9159C18.5133 12.1319 16.1775 14.7843 13.1193 15.299L9.8028 9.72332L9.80252 9.72284C9.39722 9.04717 8.69627 8.63951 7.9055 8.63951C7.11498 8.63951 6.41451 9.04675 6.00911 9.72179L5.71402 10.1965C5.62977 9.79071 5.59221 9.3711 5.59221 8.93695C5.59235 5.35629 8.49382 2.45538 12.0527 2.45538C15.612 2.45538 18.5133 5.35668 18.5133 8.9159Z" fill="#A4A5AC" stroke="#A4A5AC" stroke-width="0.3"/>
<path d="M8.61915 18.0107C8.61915 18.406 8.29873 18.7264 7.9034 18.7264C7.50808 18.7264 7.1875 18.406 7.1875 18.0107C7.1875 17.6154 7.50808 17.2949 7.9034 17.2949C8.29873 17.2949 8.61915 17.6154 8.61915 18.0107Z" fill="#A4A5AC"/>
<path d="M7.82249 12.4098C7.38031 12.452 7.04358 12.852 7.08557 13.294L7.3593 16.2413C7.3803 16.4939 7.59089 16.7045 7.84347 16.7255C8.1382 16.7465 8.3908 16.536 8.43295 16.2413L8.70668 13.294V13.1466C8.66468 12.7045 8.26465 12.3677 7.82247 12.4098L7.82249 12.4098Z" fill="#A4A5AC"/>
</svg>
