<svg width="16" height="21" viewBox="0 0 16 21" fill="none" xmlns="http://www.w3.org/2000/svg">
<path d="M15.8894 8.5498C15.8063 8.38488 15.6791 8.2462 15.522 8.14912C15.3649 8.05204 15.184 8.00036 14.9994 7.9998H9.99937V1.9998C10.0101 1.78048 9.94835 1.56373 9.82365 1.383C9.69894 1.20227 9.51822 1.06761 9.30937 0.999799C9.1086 0.933742 8.89206 0.933 8.69083 0.997678C8.48961 1.06236 8.31406 1.18913 8.18937 1.3598L0.189373 12.3598C0.0891389 12.5047 0.0289519 12.6734 0.0149038 12.849C0.00085566 13.0246 0.0334451 13.2008 0.109373 13.3598C0.179295 13.5415 0.300762 13.6989 0.458863 13.8126C0.616964 13.9263 0.804821 13.9914 0.999373 13.9998H5.99937V19.9998C5.99953 20.2107 6.06634 20.4161 6.19027 20.5867C6.31419 20.7574 6.48888 20.8844 6.68937 20.9498C6.78985 20.9809 6.8942 20.9978 6.99937 20.9998C7.15716 21.0002 7.3128 20.9633 7.45358 20.892C7.59436 20.8208 7.71628 20.7172 7.80937 20.5898L15.8094 9.5898C15.9171 9.4406 15.9816 9.26455 15.9957 9.08106C16.0098 8.89756 15.973 8.71373 15.8894 8.5498V8.5498ZM7.99937 16.9198V12.9998C7.99937 12.7346 7.89402 12.4802 7.70648 12.2927C7.51894 12.1052 7.26459 11.9998 6.99937 11.9998H2.99937L7.99937 5.0798V8.9998C7.99937 9.26502 8.10473 9.51937 8.29227 9.70691C8.4798 9.89444 8.73416 9.9998 8.99937 9.9998H12.9994L7.99937 16.9198Z" fill="#548CA8"/>
</svg>
