<svg width="21" height="22" viewBox="0 0 21 22" fill="none" xmlns="http://www.w3.org/2000/svg">
<path d="M14.9773 8.26265H12.7036V5.2522C12.7036 4.89433 12.4089 4.59961 12.051 4.59961C11.6932 4.59961 11.3984 4.89434 11.3984 5.2522V8.93641C11.3984 9.29429 11.6932 9.58901 12.051 9.58901H14.9773C15.3352 9.58901 15.6299 9.29428 15.6299 8.93641C15.6509 8.55739 15.3562 8.26265 14.9773 8.26265H14.9773Z" fill="#548CA8"/>
<path d="M4.01595 8.93684C4.01595 10.048 4.2428 11.0979 4.65621 12.0456L1.2091 17.8118L1.2091 17.8118L1.20845 17.8129C0.812715 18.4946 0.789264 19.3118 1.18745 19.9976C1.58341 20.6796 2.28934 21.1 3.06349 21.1H12.7056C13.4993 21.1 14.2063 20.6807 14.5822 19.9965C14.9796 19.3112 14.9562 18.4944 14.5606 17.8129L14.56 17.8119L13.9147 16.73C17.4495 15.8915 20.0895 12.7056 20.0896 8.93684H20.0896C20.0896 4.50267 16.4869 0.9 12.0528 0.9C7.61862 0.9 4.01595 4.5027 4.01595 8.93684ZM13.2919 18.5859C13.452 18.8899 13.3535 19.1381 13.2989 19.234L13.2933 19.2433C13.2355 19.3397 13.0722 19.5736 12.7265 19.5736H3.08441C2.73875 19.5736 2.57542 19.3397 2.51758 19.2433C2.46408 19.1541 2.35451 18.8795 2.51835 18.587L7.3387 10.525L7.33873 10.525L7.34003 10.5227C7.50116 10.2362 7.78664 10.2158 7.90546 10.2158C8.01453 10.2158 8.28924 10.2524 8.47353 10.5272L13.2919 18.5859ZM18.5633 8.9159C18.5633 12.1686 16.1922 14.8492 13.0938 15.3539L9.75983 9.74888L9.75964 9.74856C9.36315 9.08757 8.67827 8.68951 7.9055 8.68951C7.13283 8.68951 6.44831 9.08731 6.05176 9.7479C6.05163 9.74812 6.05149 9.74834 6.05136 9.74856L5.69157 10.3273C5.58784 9.88027 5.54221 9.41703 5.54221 8.93695C5.54235 5.32878 8.4661 2.40538 12.0527 2.40538C15.6396 2.40538 18.5633 5.32906 18.5633 8.9159Z" fill="#548CA8" stroke="#6A8CAA" stroke-width="0.2"/>
<path d="M8.61915 18.0107C8.61915 18.406 8.29873 18.7264 7.9034 18.7264C7.50808 18.7264 7.1875 18.406 7.1875 18.0107C7.1875 17.6154 7.50808 17.2949 7.9034 17.2949C8.29873 17.2949 8.61915 17.6154 8.61915 18.0107Z" fill="#548CA8"/>
<path d="M7.82249 12.4098C7.38031 12.452 7.04358 12.852 7.08557 13.294L7.3593 16.2413C7.3803 16.4939 7.59089 16.7045 7.84347 16.7255C8.1382 16.7465 8.3908 16.536 8.43295 16.2413L8.70668 13.294V13.1466C8.66468 12.7045 8.26465 12.3677 7.82247 12.4098L7.82249 12.4098Z" fill="#548CA8"/>
</svg>
