<svg width="194" height="220" viewBox="0 0 194 220" fill="none" xmlns="http://www.w3.org/2000/svg">
<path d="M168.989 64.0508C169.772 65.6645 170.351 67.1898 171.032 68.7831C171.713 70.3765 172.21 71.963 172.741 73.5904C173.818 76.8899 174.613 80.2748 175.118 83.7087C175.186 84.1377 175.22 84.6007 175.267 85.0705L175.335 85.7514C175.335 85.874 175.335 85.9625 175.335 86.1055V86.5481C175.358 87.5806 175.269 88.6125 175.07 89.6258C174.732 91.387 174.252 93.1177 173.633 94.8008C172.47 98.0004 171.021 101.088 169.303 104.027L165.844 102.563C166.613 99.4582 167.389 96.292 167.975 93.2347C168.261 91.7699 168.463 90.2899 168.581 88.8019C168.621 88.1936 168.607 87.583 168.54 86.9771L168.465 86.5481L168.37 86.0034C168.295 85.6425 168.247 85.2816 168.159 84.9139C167.48 81.9083 166.602 78.9511 165.53 76.0621C165.013 74.5845 164.441 73.1137 163.869 71.6361C163.297 70.1586 162.664 68.6742 162.078 67.3123L168.989 64.0508Z" fill="#7F3E3B"/>
<path d="M165.995 101.656L163.34 104.244L169.134 106.967C169.134 106.967 170.537 104.516 169.57 102.296L165.995 101.656Z" fill="#7F3E3B"/>
<path d="M161.201 108.103L166.09 110.105L169.134 106.939L163.339 104.242L161.201 108.103Z" fill="#7F3E3B"/>
<path opacity="0.2" d="M62.0254 105.313C71.6606 104.234 80.7595 100.322 88.1717 94.0723C95.5839 87.8224 100.976 79.515 103.668 70.2006C106.359 60.8862 106.228 50.9829 103.291 41.7428C100.355 32.5028 94.7444 24.341 87.1695 18.2893C79.5946 12.2376 70.3955 8.56777 60.7351 7.7438C51.0747 6.91983 41.387 8.97873 32.8966 13.6602C24.4063 18.3416 17.4947 25.4354 13.0356 34.0446C8.57656 42.6538 6.77032 52.3919 7.84525 62.0276C8.55925 68.4278 10.5272 74.6247 13.6367 80.2641C16.7463 85.9036 20.9364 90.8752 25.9678 94.8949C30.9992 98.9146 36.7733 101.904 42.9602 103.691C49.147 105.479 55.6255 106.03 62.0254 105.313Z" fill="#3981F7"/>
<path opacity="0.1" d="M26.3535 17.971L100.913 77.5236C101.233 76.8427 101.533 76.1617 101.826 75.4808C103.694 71.0349 104.888 66.3346 105.367 61.5358L40.9659 10.1133C35.6808 11.8758 30.738 14.5338 26.3535 17.971Z" fill="white"/>
<path opacity="0.1" d="M9.15234 44.0759L79.2454 100.081C85.9055 96.6073 91.6784 91.6499 96.1184 85.5911L19.5703 24.418C14.6371 30.0857 11.0727 36.8115 9.15234 44.0759Z" fill="white"/>
<path d="M177.345 111.652C177.256 110.413 176.85 109.218 176.167 108.18C175.671 107.416 174.977 106.802 174.159 106.403L169.508 104.121C166.417 102.589 163.305 101.098 160.193 99.607C157.081 98.1158 153.949 96.6519 150.831 95.1743C147.712 93.6967 144.566 92.26 141.414 90.8505C135.122 87.9998 128.789 85.2262 122.416 82.5298C119.229 81.1679 116.036 79.8606 112.815 78.5805C111.875 78.2102 111.111 77.4963 110.677 76.5835C110.243 75.6707 110.173 74.6271 110.48 73.6643C114.791 60.072 113.809 45.353 107.731 32.4537C101.653 19.5543 90.9273 9.42661 77.7008 4.0979C64.4743 -1.23081 49.7232 -1.36729 36.4004 3.71579C23.0776 8.79887 12.1662 18.7264 5.85054 31.5111C-0.465122 44.2957 -1.719 58.9941 2.3399 72.6638C6.3988 86.3335 15.4709 97.9657 27.7403 105.232C40.0096 112.498 54.5707 114.862 68.5086 111.851C82.4466 108.84 94.7329 100.675 102.908 88.9916C103.487 88.1612 104.359 87.5818 105.349 87.3706C106.339 87.1595 107.372 87.3325 108.24 87.8545C111.217 89.6249 114.209 91.3657 117.214 93.0771C123.22 96.4998 129.271 99.8363 135.367 103.086C138.411 104.734 141.495 106.321 144.525 107.935C147.555 109.548 150.654 111.121 153.738 112.701C156.823 114.281 159.866 115.826 162.992 117.352L167.629 119.653C168.443 120.063 169.355 120.242 170.264 120.171C171.501 120.083 172.695 119.677 173.73 118.993C174.963 118.235 175.958 117.143 176.597 115.845C177.237 114.546 177.497 113.092 177.345 111.652ZM36.8255 96.5906C28.91 92.6847 22.3305 86.5192 17.9192 78.8738C13.5079 71.2284 11.4628 62.4465 12.0427 53.6388C12.6226 44.8311 15.8014 36.3932 21.1771 29.3922C26.5527 22.3911 33.8837 17.1415 42.2431 14.3071C50.6024 11.4727 59.6145 11.1809 68.1396 13.4687C76.6648 15.7564 84.3201 20.5208 90.1373 27.1594C95.9546 33.7981 99.6725 42.0127 100.821 50.7644C101.969 59.5162 100.497 68.4119 96.5892 76.3267C93.9958 81.5816 90.3927 86.2741 85.9857 90.1365C81.5787 93.9988 76.4541 96.9553 70.9044 98.837C65.3548 100.719 59.4888 101.489 53.6415 101.103C47.7942 100.718 42.0801 99.1845 36.8255 96.5906Z" fill="#3981F7"/>
<path d="M143.315 43.0049C143.315 43.4067 143.104 43.7335 142.838 43.7335C142.572 43.7335 142.361 43.4067 142.361 43.0049C142.361 42.6032 142.572 42.2695 142.838 42.2695C143.104 42.2695 143.315 42.5964 143.315 43.0049Z" fill="#263238"/>
<path d="M143.139 43.7305C142.66 44.9639 142.014 46.1256 141.219 47.1827C141.494 47.3797 141.809 47.5141 142.142 47.5765C142.475 47.6388 142.818 47.6276 143.146 47.5436L143.139 43.7305Z" fill="#630F0F"/>
<path d="M144.741 40.7555C144.791 40.7541 144.838 40.7374 144.878 40.7076C144.917 40.6778 144.947 40.6365 144.962 40.5894C144.976 40.5422 144.976 40.4916 144.961 40.4445C144.946 40.3974 144.917 40.3562 144.877 40.3265C144.576 40.101 144.226 39.9501 143.856 39.8862C143.485 39.8222 143.105 39.8471 142.746 39.9588C142.714 39.9676 142.684 39.983 142.658 40.004C142.632 40.0251 142.611 40.0513 142.596 40.0811C142.581 40.1108 142.572 40.1434 142.571 40.1766C142.569 40.2099 142.574 40.2432 142.586 40.2743C142.598 40.3054 142.617 40.3337 142.64 40.3572C142.664 40.3808 142.692 40.3992 142.723 40.4111C142.754 40.4231 142.787 40.4284 142.821 40.4268C142.854 40.4251 142.886 40.4164 142.916 40.4014C143.202 40.3164 143.504 40.2998 143.797 40.353C144.09 40.4063 144.367 40.5278 144.605 40.7078C144.643 40.7392 144.691 40.7561 144.741 40.7555Z" fill="#263238"/>
<path d="M157.089 46.0391C156.367 49.7024 155.652 56.4094 158.212 58.847C158.212 58.847 157.211 62.558 150.416 62.558C142.926 62.558 146.841 58.847 146.841 58.847C150.927 57.8733 150.818 54.8433 150.103 52.0379L157.089 46.0391Z" fill="#7F3E3B"/>
<path d="M159.526 56.5528C160.091 56.7366 159.356 60.1003 159.356 60.1003C159.356 60.1003 158.423 62.4495 146.834 61.6324C145.942 61.5643 146.282 58.3367 147.134 57.8669C149.878 56.3689 157.701 55.9535 159.526 56.5528Z" fill="#263238"/>
<path d="M183.065 197.235C183.692 197.174 184.604 196.023 184.863 195.601C184.874 195.582 184.88 195.561 184.88 195.54C184.88 195.518 184.874 195.497 184.863 195.478C184.852 195.458 184.834 195.442 184.814 195.432C184.793 195.422 184.77 195.42 184.747 195.424C184.679 195.424 183.031 195.737 182.629 196.377C182.587 196.444 182.559 196.519 182.547 196.598C182.536 196.677 182.54 196.757 182.561 196.833C182.65 197.133 182.82 197.215 182.956 197.235H183.065ZM184.502 195.717C184.059 196.329 183.331 197.044 182.983 196.997C182.949 196.997 182.847 196.997 182.786 196.765C182.773 196.721 182.769 196.674 182.776 196.628C182.784 196.582 182.801 196.538 182.827 196.5C183.296 196.08 183.879 195.807 184.502 195.717Z" fill="#3981F7"/>
<path d="M184.434 195.718C184.556 195.708 184.677 195.688 184.795 195.657C184.815 195.651 184.833 195.639 184.847 195.624C184.862 195.608 184.872 195.589 184.877 195.569C184.881 195.547 184.879 195.526 184.872 195.505C184.865 195.485 184.852 195.467 184.836 195.453C184.795 195.412 183.692 194.472 182.943 194.547C182.853 194.553 182.765 194.578 182.685 194.62C182.605 194.662 182.535 194.721 182.48 194.792C182.416 194.854 182.376 194.937 182.367 195.025C182.358 195.114 182.381 195.203 182.432 195.276C182.677 195.664 183.753 195.786 184.434 195.718ZM184.489 195.48C183.808 195.562 182.814 195.426 182.623 195.146C182.623 195.146 182.568 195.058 182.664 194.935C182.702 194.89 182.749 194.853 182.801 194.827C182.854 194.8 182.911 194.783 182.97 194.779C183.535 194.857 184.063 195.101 184.489 195.48Z" fill="#3981F7"/>
<path d="M136.252 215.146C136.768 215.144 137.283 215.098 137.791 215.009C137.814 215.003 137.834 214.991 137.851 214.974C137.868 214.958 137.88 214.937 137.886 214.914C137.89 214.89 137.887 214.865 137.876 214.843C137.865 214.821 137.847 214.803 137.825 214.792C137.75 214.744 136.007 213.75 135.169 213.974C135.013 214.014 134.878 214.115 134.795 214.254C134.742 214.329 134.713 214.42 134.713 214.512C134.713 214.605 134.742 214.695 134.795 214.771C135.013 215.071 135.612 215.146 136.252 215.146ZM137.41 214.832C136.477 214.962 135.21 214.955 134.979 214.635C134.945 214.594 134.917 214.519 134.979 214.369C135.004 214.327 135.037 214.291 135.077 214.263C135.117 214.235 135.162 214.215 135.21 214.206C135.748 214.063 136.797 214.519 137.41 214.832Z" fill="#3981F7"/>
<path d="M137.735 215.008C137.759 215.015 137.785 215.015 137.81 215.008C137.825 214.994 137.838 214.977 137.846 214.959C137.854 214.94 137.858 214.919 137.858 214.899C137.858 214.844 137.715 213.496 137.081 212.972C136.987 212.893 136.879 212.835 136.762 212.8C136.645 212.765 136.522 212.754 136.4 212.767C136.074 212.801 135.985 212.965 135.958 213.101C135.869 213.666 137.068 214.749 137.667 215.021L137.735 215.008ZM136.516 212.965C136.668 212.969 136.814 213.024 136.931 213.121C137.309 213.553 137.547 214.09 137.612 214.66C136.993 214.293 136.182 213.441 136.251 213.101C136.251 213.101 136.251 212.992 136.482 212.972L136.516 212.965Z" fill="#3981F7"/>
<path d="M143.265 214.894H138.268L137.764 203.305H142.768L143.265 214.894Z" fill="#7F3E3B"/>
<path d="M189.234 191.942L185.332 195.067L175.404 188.176L179.313 185.051L189.234 191.942Z" fill="#7F3E3B"/>
<path d="M184.616 194.865L188.606 190.909C188.678 190.84 188.771 190.797 188.869 190.787C188.968 190.777 189.067 190.801 189.151 190.854L192.985 193.319C193.078 193.379 193.156 193.46 193.213 193.555C193.27 193.65 193.305 193.756 193.315 193.866C193.325 193.977 193.309 194.088 193.27 194.191C193.23 194.295 193.168 194.388 193.087 194.463C191.67 195.825 190.915 196.411 189.158 198.147C188.082 199.223 185.447 202.423 183.956 203.901C182.465 205.378 180.803 204.098 181.287 203.356C183.431 200.047 184.16 197.316 184.255 195.655C184.276 195.357 184.404 195.076 184.616 194.865Z" fill="#263238"/>
<path d="M138.294 214.313H143.742C143.841 214.312 143.937 214.346 144.013 214.408C144.09 214.47 144.144 214.556 144.164 214.653L145.151 219.099C145.176 219.206 145.176 219.317 145.152 219.424C145.127 219.531 145.079 219.631 145.01 219.716C144.941 219.802 144.853 219.87 144.754 219.917C144.655 219.963 144.546 219.986 144.436 219.984C142.462 219.984 139.615 219.842 137.137 219.842C134.243 219.842 131.744 219.998 128.346 219.998C126.304 219.998 125.725 217.921 126.583 217.731C130.498 216.88 133.691 216.784 137.069 214.701C137.433 214.459 137.858 214.325 138.294 214.313Z" fill="#263238"/>
<path d="M168.073 60.3442C172.41 62.3869 174.201 76.3865 174.201 76.3865L164.226 80.3017C162.677 76.5112 161.423 72.6071 160.474 68.6241C159.078 62.3052 163.613 58.2197 168.073 60.3442Z" fill="#3981F7"/>
<path opacity="0.3" d="M168.073 60.3442C172.41 62.3869 174.201 76.3865 174.201 76.3865L164.226 80.3017C162.677 76.5112 161.423 72.6071 160.474 68.6241C159.078 62.3052 163.613 58.2197 168.073 60.3442Z" fill="white"/>
<path opacity="0.2" d="M161.608 64.4506C161.268 64.2855 160.912 64.1555 160.546 64.0625C160.148 65.5554 160.134 67.1248 160.505 68.6246C161.45 72.608 162.702 76.5122 164.25 80.3023L167.538 79.0153C166.932 75.3588 165.074 66.1121 161.608 64.4506Z" fill="black"/>
<path d="M139.143 60.2362C139.143 60.2362 133.819 66.2486 138.844 103.474H165.604C165.788 99.3886 163.207 79.329 167.17 59.9774C164.21 59.4083 161.217 59.0307 158.209 58.8471C154.422 58.6291 150.625 58.6291 146.838 58.8471C144.241 59.1088 141.668 59.5732 139.143 60.2362Z" fill="#3981F7"/>
<path opacity="0.3" d="M139.143 60.2362C139.143 60.2362 133.819 66.2486 138.844 103.474H165.604C165.788 99.3886 163.207 79.329 167.17 59.9774C164.21 59.4083 161.217 59.0307 158.209 58.8471C154.422 58.6291 150.625 58.6291 146.838 58.8471C144.241 59.1088 141.668 59.5732 139.143 60.2362Z" fill="white"/>
<path opacity="0.2" d="M144.546 68.2169C143.334 64.5808 140.42 63.4164 137.451 65.5749C136.852 69.1021 136.43 74.7877 136.913 83.803L142.136 83.7553C142.136 83.7553 146.337 73.6301 144.546 68.2169Z" fill="black"/>
<path d="M143.565 66.7275C143.347 68.5523 143.048 70.207 142.714 71.9297C142.38 73.6524 141.992 75.3342 141.55 77.0297C140.676 80.495 139.486 83.8728 137.995 87.1208C137.607 87.9583 137.158 88.7822 136.681 89.6061C136.436 90.0215 136.191 90.4369 135.912 90.8454C135.55 91.4132 135.122 91.9365 134.638 92.4047C133.699 93.276 132.585 93.9375 131.37 94.3453C130.384 94.6909 129.363 94.9305 128.326 95.0603C126.476 95.2897 124.605 95.3126 122.75 95.1283C121.842 95.0557 120.957 94.94 120.094 94.7811C119.209 94.6245 118.371 94.4611 117.459 94.2227L117.902 90.4913C121.009 90.3608 124.095 89.9044 127.108 89.1295C127.72 88.9481 128.315 88.7111 128.885 88.4214C129.259 88.2499 129.586 87.9906 129.838 87.6655C129.783 87.7132 130.281 86.8893 130.573 86.3037C130.866 85.7181 131.193 84.9419 131.472 84.261C132.044 82.8583 132.534 81.3739 132.984 79.8555C133.433 78.3371 133.828 76.7914 134.196 75.2253C134.563 73.6592 134.877 72.0795 135.217 70.4589C135.558 68.8383 135.803 67.2314 136.048 65.7266L143.565 66.7275Z" fill="#7F3E3B"/>
<path d="M145.832 63.9074C147.242 68.4763 141.522 82.0946 141.522 82.0946L129.477 79.0645C130.214 74.76 131.455 70.5572 133.174 66.5425C137.055 58.0447 144.137 58.3988 145.832 63.9074Z" fill="#3981F7"/>
<path opacity="0.3" d="M145.832 63.9074C147.242 68.4763 141.522 82.0946 141.522 82.0946L129.477 79.0645C130.214 74.76 131.455 70.5572 133.174 66.5425C137.055 58.0447 144.137 58.3988 145.832 63.9074Z" fill="white"/>
<path d="M118.071 90.5102L112.406 90.3672L115.13 96.2571C115.13 96.2571 117.431 96.5635 119.324 93.4517L121.319 91.0753L119.025 90.6123C118.71 90.5511 118.392 90.5169 118.071 90.5102Z" fill="#7F3E3B"/>
<path d="M108.832 91.4635L112.08 96.3456L115.137 96.2571L112.407 90.3672L108.832 91.4635Z" fill="#7F3E3B"/>
<path opacity="0.2" d="M137.77 203.312L138.021 209.284H143.026L142.767 203.312H137.77Z" fill="black"/>
<path opacity="0.2" d="M179.313 185.051L175.404 188.176L180.525 191.731L184.433 188.605L179.313 185.051Z" fill="black"/>
<path d="M156.802 42.1172C156.503 47.0742 156.584 49.9885 154.079 52.5351C150.32 56.3618 144.199 54.1012 143.014 49.1306C141.945 44.6774 142.619 37.3235 147.467 35.3421C148.536 34.8999 149.701 34.7391 150.849 34.875C151.998 35.011 153.093 35.4392 154.029 36.1187C154.966 36.7982 155.712 37.7064 156.198 38.7565C156.683 39.8067 156.891 40.9637 156.802 42.1172Z" fill="#7F3E3B"/>
<path d="M160.808 37.5168C160.808 37.5168 163.416 38.2931 162.599 41.2686C161.367 45.7899 158.466 50.9921 154.721 51.3189C150.057 51.7343 147.953 46.9202 147.34 41.9427C144.548 40.0294 142.478 38.2386 143.145 36.2503C144.167 33.1862 147.871 30.5443 153.768 31.2252C159.664 31.9061 162.599 35.7192 160.808 37.5168Z" fill="#263238"/>
<path d="M150.177 42.9614C150.086 44.1908 149.593 45.3562 148.774 46.2774C147.685 47.4758 146.541 46.7268 146.35 45.2697C146.18 43.9487 146.534 41.7357 147.869 41.0753C149.203 40.4148 150.265 41.477 150.177 42.9614Z" fill="#7F3E3B"/>
<path d="M148.338 103.477C148.338 103.477 146.649 137.195 149.938 151.481C155.147 174.101 178.046 192.227 178.046 192.227L185.4 186.337C185.4 186.337 166.559 172.317 164.863 153.483C163.345 136.569 165.592 117.142 165.592 103.477H148.338Z" fill="#3981F7"/>
<path opacity="0.2" d="M148.338 103.477C148.338 103.477 146.649 137.195 149.938 151.481C155.147 174.101 178.046 192.227 178.046 192.227L185.4 186.337C185.4 186.337 166.559 172.317 164.863 153.483C163.345 136.569 165.592 117.142 165.592 103.477H148.338Z" fill="black"/>
<path opacity="0.2" d="M150.853 113.464C150.172 112.149 148.844 116.065 147.918 121.09C147.918 128.021 148.041 135.906 148.647 142.586C153.27 134.041 152.289 116.187 150.853 113.464Z" fill="black"/>
<path d="M174.711 190.773L177.503 192.938L185.994 186.054L183.447 183.746L174.711 190.773Z" fill="#2C6BDB"/>
<path opacity="0.4" d="M174.711 190.773L177.503 192.938L185.994 186.054L183.447 183.746L174.711 190.773Z" fill="#FAFAFA"/>
<path d="M138.848 103.477C138.848 103.477 131.317 135.411 130.786 150.664C130.193 167.775 136.158 208.126 136.158 208.126H144.635C144.635 208.126 145.677 167.462 146.058 151.876C146.467 134.887 156.435 103.477 156.435 103.477H138.848Z" fill="#3981F7"/>
<path opacity="0.2" d="M138.848 103.477C138.848 103.477 131.317 135.411 130.786 150.664C130.193 167.775 136.158 208.126 136.158 208.126H144.635C144.635 208.126 145.677 167.462 146.058 151.876C146.467 134.887 156.435 103.477 156.435 103.477H138.848Z" fill="black"/>
<path d="M134.53 204.75C134.489 204.75 135.006 208.27 135.006 208.27H145.315L145.594 205.131L134.53 204.75Z" fill="#2C6BDB"/>
<path opacity="0.4" d="M134.53 204.75C134.489 204.75 135.006 208.27 135.006 208.27H145.315L145.594 205.131L134.53 204.75Z" fill="#FAFAFA"/>
</svg>
