<svg width="121" height="83" viewBox="0 0 121 83" fill="none" xmlns="http://www.w3.org/2000/svg">
<path d="M56.7171 82.9478C88.041 82.9478 113.434 81.4652 113.434 79.6364C113.434 77.8076 88.041 76.3251 56.7171 76.3251C25.3931 76.3251 0 77.8076 0 79.6364C0 81.4652 25.3931 82.9478 56.7171 82.9478Z" fill="#2B68CB" fill-opacity="0.08"/>
<path d="M39.2857 23.2669C39.1223 22.5577 38.7232 21.9248 38.1537 21.4716C37.5841 21.0184 36.8777 20.7717 36.1499 20.7717H12.7481C11.8947 20.7717 11.0763 21.1107 10.4728 21.7142C9.86941 22.3176 9.5304 23.1361 9.5304 23.9895V76.0057C9.5304 76.8591 9.86941 77.6776 10.4728 78.281C11.0763 78.8844 11.8947 79.2234 12.7481 79.2234H87.0487C87.9021 79.2234 88.7205 78.8844 89.324 78.281C89.9274 77.6776 90.2664 76.8591 90.2664 76.0057V32.3117C90.2664 31.4583 89.9274 30.6399 89.324 30.0364C88.7205 29.433 87.9021 29.094 87.0487 29.094H46.6075C44.9079 29.0943 43.2584 28.5182 41.9285 27.4598C40.5986 26.4014 39.6669 24.9233 39.2857 23.2669Z" fill="#B7C7E0"/>
<path d="M50.5324 27.9038C50.528 27.5657 50.4559 27.2319 50.3203 26.9221C50.1847 26.6123 49.9883 26.3329 49.7429 26.1003C49.4975 25.8677 49.2079 25.6866 48.8913 25.5678C48.5748 25.449 48.2376 25.3949 47.8997 25.4086H24.4687C22.6931 25.4086 20.9584 26.8507 20.625 28.6263L11.3784 76.0002C11.0332 77.7758 12.1916 79.218 13.9672 79.218H88.2677C90.0433 79.218 91.7634 77.7788 92.1115 76.0002L99.7375 36.9486C100.083 35.17 98.9243 33.7308 97.1487 33.7308H56.7192C53.209 33.7308 50.6523 31.3146 50.5324 27.9038Z" fill="#8FB1E7"/>
<path opacity="0.2" d="M62.1346 47.1018C65.6725 48.3432 69.4991 48.5078 73.1306 47.5747C76.762 46.6415 80.0353 44.6526 82.5364 41.8593C85.0376 39.0661 86.6544 35.5939 87.1824 31.8818C87.7104 28.1698 87.1259 24.3845 85.5028 21.0046C83.8797 17.6247 81.2908 14.802 78.0636 12.8933C74.8363 10.9846 71.1156 10.0756 67.3719 10.2813C63.6281 10.4871 60.0294 11.7982 57.0307 14.049C54.032 16.2999 51.7681 19.3893 50.5251 22.9267C49.6994 25.2763 49.3448 27.7655 49.4815 30.2523C49.6181 32.739 50.2433 35.1744 51.3214 37.4194C52.3996 39.6644 53.9094 41.675 55.7648 43.3363C57.6201 44.9977 59.7846 46.2772 62.1346 47.1018Z" fill="#476072"/>
<path opacity="0.1" d="M64.366 10.683L80.3449 43.9464C80.5707 43.7629 80.7894 43.5759 81.0057 43.3879C82.403 42.1526 83.6078 40.7154 84.5802 39.1239L70.7758 10.3983C68.6387 10.1252 66.4705 10.2215 64.366 10.683Z" fill="white"/>
<path opacity="0.1" d="M53.9915 16.8917L69.0097 48.1693C71.9131 48.0772 74.7565 47.3191 77.3204 45.9536L60.9209 11.7919C58.2508 12.9383 55.88 14.6832 53.9915 16.8917Z" fill="white"/>
<path d="M101.245 68.6684C101.422 68.2217 101.481 67.7371 101.417 67.2608C101.373 66.9116 101.234 66.581 101.016 66.3045L99.7786 64.7291C98.9588 63.6765 98.125 62.6346 97.2912 61.5927C96.4574 60.5508 95.612 59.515 94.7735 58.4768C93.9351 57.4385 93.0803 56.4099 92.2186 55.3896C90.5052 53.3403 88.7646 51.311 86.9969 49.3018C86.1153 48.2924 85.2222 47.3008 84.315 46.3142C84.0496 46.0274 83.9031 45.6504 83.9053 45.2595C83.9074 44.8687 84.058 44.4934 84.3266 44.2094C88.1102 40.1978 90.239 34.905 90.2868 29.3908C90.3347 23.8765 88.298 18.5477 84.5846 14.4709C80.8712 10.3942 75.755 7.87045 70.2602 7.4049C64.7654 6.93934 59.2976 8.56633 54.9512 11.9602C50.6048 15.354 47.7006 20.2642 46.82 25.7079C45.9394 31.1516 47.1473 36.7271 50.2021 41.3182C53.2568 45.9092 57.9328 49.1771 63.2941 50.4677C68.6555 51.7583 74.3064 50.9763 79.1158 48.2783C79.4568 48.0861 79.8581 48.0307 80.2384 48.1233C80.6187 48.2159 80.9496 48.4496 81.1641 48.7771C81.9043 49.8937 82.6543 51.0024 83.414 52.1031C84.9317 54.3036 86.4797 56.4818 88.0581 58.6375C88.8418 59.7225 89.6501 60.793 90.4349 61.8639C91.2196 62.9347 92.0349 64.0028 92.8443 65.0709C93.6538 66.139 94.4547 67.1885 95.2875 68.2445L96.5166 69.8247C96.7317 70.1042 97.0191 70.3195 97.3478 70.4473C97.7936 70.6245 98.2777 70.6835 98.753 70.6187C99.31 70.5618 99.8396 70.3485 100.281 70.0034C100.721 69.6583 101.056 69.1955 101.245 68.6684ZM54.8178 39.8327C52.7158 37.1432 51.4586 33.8907 51.2052 30.4866C50.9517 27.0826 51.7134 23.6798 53.394 20.7086C55.0745 17.7375 57.5984 15.3314 60.6464 13.7948C63.6944 12.2581 67.1297 11.6598 70.5178 12.0756C73.9059 12.4913 77.0946 13.9025 79.6806 16.1306C82.2666 18.3587 84.1338 21.3036 85.0461 24.5929C85.9584 27.8823 85.8747 31.3683 84.8057 34.61C83.7367 37.8518 81.7303 40.7038 79.0404 42.8052C77.2548 44.2006 75.2118 45.2306 73.0281 45.8364C70.8444 46.4422 68.5627 46.612 66.3134 46.336C64.0641 46.0599 61.8912 45.3435 59.9188 44.2277C57.9464 43.1119 56.2131 41.6184 54.8178 39.8327Z" fill="#476072"/>
<path d="M54.0103 67.3874C54.0464 66.9987 54.2342 66.6399 54.5331 66.3889C56.0634 65.1588 57.9679 64.4883 59.9312 64.4883C61.8946 64.4883 63.799 65.1588 65.3293 66.3889C65.6282 66.6399 65.8161 66.9987 65.8522 67.3874C65.8883 67.776 65.7697 68.1633 65.5221 68.4651C65.3976 68.6152 65.2447 68.7393 65.0722 68.8303C64.8996 68.9213 64.7108 68.9774 64.5166 68.9953C64.3224 69.0132 64.1265 68.9926 63.9402 68.9347C63.754 68.8768 63.5809 68.7827 63.4311 68.6578C62.4397 67.8586 61.2047 67.4227 59.9312 67.4227C58.6578 67.4227 57.4227 67.8586 56.4314 68.6578C56.2815 68.7827 56.1085 68.8768 55.9222 68.9347C55.736 68.9926 55.5401 69.0132 55.3459 68.9953C55.1516 68.9774 54.9628 68.9213 54.7903 68.8303C54.6177 68.7393 54.4648 68.6152 54.3404 68.4651C54.0928 68.1633 53.9742 67.776 54.0103 67.3874Z" fill="#3981F7"/>
<path d="M63.7111 57.2696C63.9742 57.0938 64.2836 57 64.6 57C65.0243 57 65.4313 57.1686 65.7314 57.4686C66.0314 57.7687 66.2 58.1757 66.2 58.6C66.2 58.9164 66.1062 59.2258 65.9304 59.4889C65.7545 59.752 65.5047 59.9571 65.2123 60.0782C64.9199 60.1993 64.5982 60.231 64.2879 60.1693C63.9775 60.1075 63.6924 59.9551 63.4686 59.7314C63.2449 59.5076 63.0925 59.2225 63.0307 58.9121C62.969 58.6018 63.0007 58.2801 63.1218 57.9877C63.2429 57.6953 63.448 57.4455 63.7111 57.2696Z" fill="#3981F7"/>
<path d="M54.7111 57.2696C54.9742 57.0938 55.2836 57 55.6 57C56.0243 57 56.4313 57.1686 56.7314 57.4686C57.0314 57.7687 57.2 58.1757 57.2 58.6C57.2 58.9164 57.1062 59.2258 56.9304 59.4889C56.7545 59.752 56.5047 59.9571 56.2123 60.0782C55.9199 60.1993 55.5982 60.231 55.2879 60.1693C54.9775 60.1075 54.6924 59.9551 54.4686 59.7314C54.2449 59.5076 54.0925 59.2225 54.0307 58.9121C53.969 58.6018 54.0007 58.2801 54.1218 57.9877C54.2429 57.6953 54.448 57.4455 54.7111 57.2696Z" fill="#3981F7"/>
</svg>
