<svg width="13" height="16" viewBox="0 0 13 16" fill="none" xmlns="http://www.w3.org/2000/svg">
<path d="M11.2362 8.96714V6.42585C11.2362 4.08423 9.54801 2.06934 7.22454 1.68815V0.798693C7.22454 0.363042 6.8615 0 6.4077 0C5.97205 0 5.609 0.363042 5.609 0.798693V1.66999C3.30368 2.06934 1.61554 4.06607 1.59739 6.4077V8.96714C0.653476 9.31204 0 10.2196 0 11.2362V12.8335C0 13.2873 0.363042 13.6322 0.798693 13.6322H3.32184C3.79379 15.3567 5.55455 16.3551 7.26085 15.8831C8.36812 15.5927 9.22127 14.7214 9.51171 13.6322H12.0349C12.4887 13.6322 12.8335 13.2873 12.8335 12.8335V11.2362C12.8335 10.2196 12.1982 9.31204 11.2362 8.96714ZM6.4077 14.4309C5.84498 14.4309 5.31857 14.1223 5.02814 13.6322H7.80541C7.51498 14.1405 6.98856 14.4309 6.4077 14.4309ZM11.2362 12.0349H1.61554V11.2362C1.61554 10.8005 1.97858 10.4375 2.41423 10.4375H2.52314C2.90434 10.4375 3.21292 10.1289 3.21292 9.74769V6.42585C3.21292 4.64694 4.64694 3.21292 6.42585 3.21292C8.20476 3.21292 9.63877 4.64694 9.63877 6.42585V8.33182V9.83845C9.69323 10.1833 9.96551 10.4375 10.3286 10.4375H10.4375C10.8913 10.4375 11.2362 10.8005 11.2362 11.2362V12.0349Z" fill="#6E7377"/>
</svg>
