<svg width="55" height="60" viewBox="0 0 55 60" fill="none" xmlns="http://www.w3.org/2000/svg">
<g opacity="0.4">
<path d="M24 10.375C24 9.27043 24.8954 8.375 26 8.375H52.9767C54.0813 8.375 54.9767 9.27043 54.9767 10.375V59.9976H24V10.375Z" fill="#CBE6FF"/>
<path d="M34.2844 18.0331H29.0035C28.8923 18.0329 28.7856 17.9712 28.707 17.8615C28.6283 17.7517 28.5841 17.603 28.584 17.4478V13.5228C28.5841 13.3676 28.6283 13.2189 28.707 13.1091C28.7856 12.9994 28.8923 12.9377 29.0035 12.9375H34.2844C34.3956 12.9377 34.5023 12.9994 34.5809 13.1091C34.6596 13.2189 34.7038 13.3676 34.7039 13.5228V17.4478C34.7038 17.603 34.6596 17.7517 34.5809 17.8615C34.5023 17.9712 34.3956 18.0329 34.2844 18.0331Z" fill="#548CA8"/>
<path d="M42.3215 18.0331H37.0406C36.9294 18.0329 36.8228 17.9712 36.7441 17.8615C36.6655 17.7517 36.6212 17.603 36.6211 17.4478V13.5228C36.6212 13.3676 36.6655 13.2189 36.7441 13.1091C36.8228 12.9994 36.9294 12.9377 37.0406 12.9375H42.3215C42.4327 12.9377 42.5394 12.9994 42.618 13.1091C42.6967 13.2189 42.7409 13.3676 42.741 13.5228V17.4478C42.7409 17.603 42.6967 17.7517 42.618 17.8615C42.5394 17.9712 42.4327 18.0329 42.3215 18.0331Z" fill="#548CA8"/>
<path d="M50.3586 18.0331H45.0777C44.9665 18.0329 44.8599 17.9712 44.7812 17.8615C44.7026 17.7517 44.6583 17.603 44.6582 17.4478V13.5228C44.6583 13.3676 44.7026 13.2189 44.7812 13.1091C44.8599 12.9994 44.9665 12.9377 45.0777 12.9375H50.3586C50.4699 12.9377 50.5765 12.9994 50.6551 13.1091C50.7338 13.2189 50.778 13.3676 50.7781 13.5228V17.4478C50.778 17.603 50.7338 17.7517 50.6551 17.8615C50.5765 17.9712 50.4699 18.0329 50.3586 18.0331Z" fill="#548CA8"/>
<path d="M34.2844 27.8768H29.0035C28.8923 27.8767 28.7856 27.815 28.707 27.7052C28.6283 27.5955 28.5841 27.4467 28.584 27.2915V23.3666C28.5841 23.2114 28.6283 23.0626 28.707 22.9529C28.7856 22.8431 28.8923 22.7814 29.0035 22.7812H34.2844C34.3956 22.7814 34.5023 22.8431 34.5809 22.9529C34.6596 23.0626 34.7038 23.2114 34.7039 23.3666V27.2915C34.7038 27.4467 34.6596 27.5955 34.5809 27.7052C34.5023 27.815 34.3956 27.8767 34.2844 27.8768Z" fill="#548CA8"/>
<path d="M42.3215 27.8768H37.0406C36.9294 27.8767 36.8228 27.815 36.7441 27.7052C36.6655 27.5955 36.6212 27.4467 36.6211 27.2915V23.3666C36.6212 23.2114 36.6655 23.0626 36.7441 22.9529C36.8228 22.8431 36.9294 22.7814 37.0406 22.7812H42.3215C42.4327 22.7814 42.5394 22.8431 42.618 22.9529C42.6967 23.0626 42.7409 23.2114 42.741 23.3666V27.2915C42.7409 27.4467 42.6967 27.5955 42.618 27.7052C42.5394 27.815 42.4327 27.8767 42.3215 27.8768Z" fill="#548CA8"/>
<path d="M50.3586 27.8768H45.0777C44.9665 27.8767 44.8599 27.815 44.7812 27.7052C44.7026 27.5955 44.6583 27.4467 44.6582 27.2915V23.3666C44.6583 23.2114 44.7026 23.0626 44.7812 22.9529C44.8599 22.8431 44.9665 22.7814 45.0777 22.7812H50.3586C50.4699 22.7814 50.5765 22.8431 50.6551 22.9529C50.7338 23.0626 50.778 23.2114 50.7781 23.3666V27.2915C50.778 27.4467 50.7338 27.5955 50.6551 27.7052C50.5765 27.815 50.4699 27.8767 50.3586 27.8768Z" fill="#548CA8"/>
<path d="M34.2844 37.4784H29.0035C28.8923 37.4782 28.7856 37.4165 28.707 37.3068C28.6283 37.1971 28.5841 37.0483 28.584 36.8931V32.9681C28.5841 32.8129 28.6283 32.6642 28.707 32.5544C28.7856 32.4447 28.8923 32.383 29.0035 32.3828H34.2844C34.3956 32.383 34.5023 32.4447 34.5809 32.5544C34.6596 32.6642 34.7038 32.8129 34.7039 32.9681V36.8931C34.7038 37.0483 34.6596 37.1971 34.5809 37.3068C34.5023 37.4165 34.3956 37.4782 34.2844 37.4784Z" fill="#548CA8"/>
<path d="M42.3215 37.4784H37.0406C36.9294 37.4782 36.8228 37.4165 36.7441 37.3068C36.6655 37.1971 36.6212 37.0483 36.6211 36.8931V32.9681C36.6212 32.8129 36.6655 32.6642 36.7441 32.5544C36.8228 32.4447 36.9294 32.383 37.0406 32.3828H42.3215C42.4327 32.383 42.5394 32.4447 42.618 32.5544C42.6967 32.6642 42.7409 32.8129 42.741 32.9681V36.8931C42.7409 37.0483 42.6967 37.1971 42.618 37.3068C42.5394 37.4165 42.4327 37.4782 42.3215 37.4784Z" fill="#548CA8"/>
<path d="M50.3586 37.4784H45.0777C44.9665 37.4782 44.8599 37.4165 44.7812 37.3068C44.7026 37.1971 44.6583 37.0483 44.6582 36.8931V32.9681C44.6583 32.8129 44.7026 32.6642 44.7812 32.5544C44.8599 32.4447 44.9665 32.383 45.0777 32.3828H50.3586C50.4699 32.383 50.5765 32.4447 50.6551 32.5544C50.7338 32.6642 50.778 32.8129 50.7781 32.9681V36.8931C50.778 37.0483 50.7338 37.1971 50.6551 37.3068C50.5765 37.4165 50.4699 37.4782 50.3586 37.4784Z" fill="#548CA8"/>
<path d="M34.2844 47.0878H29.0035C28.8923 47.0876 28.7856 47.0259 28.707 46.9162C28.6283 46.8064 28.5841 46.6577 28.584 46.5025V42.5775C28.5841 42.4223 28.6283 42.2735 28.707 42.1638C28.7856 42.0541 28.8923 41.9924 29.0035 41.9922H34.2844C34.3956 41.9924 34.5023 42.0541 34.5809 42.1638C34.6596 42.2735 34.7038 42.4223 34.7039 42.5775V46.5025C34.7038 46.6577 34.6596 46.8064 34.5809 46.9162C34.5023 47.0259 34.3956 47.0876 34.2844 47.0878Z" fill="#548CA8"/>
<path d="M42.3215 47.0878H37.0406C36.9294 47.0876 36.8228 47.0259 36.7441 46.9162C36.6655 46.8064 36.6212 46.6577 36.6211 46.5025V42.5775C36.6212 42.4223 36.6655 42.2735 36.7441 42.1638C36.8228 42.0541 36.9294 41.9924 37.0406 41.9922H42.3215C42.4327 41.9924 42.5394 42.0541 42.618 42.1638C42.6967 42.2735 42.7409 42.4223 42.741 42.5775V46.5025C42.7409 46.6577 42.6967 46.8064 42.618 46.9162C42.5394 47.0259 42.4327 47.0876 42.3215 47.0878Z" fill="#548CA8"/>
<path d="M50.3586 47.0878H45.0777C44.9665 47.0876 44.8599 47.0259 44.7812 46.9162C44.7026 46.8064 44.6583 46.6577 44.6582 46.5025V42.5775C44.6583 42.4223 44.7026 42.2735 44.7812 42.1638C44.8599 42.0541 44.9665 41.9924 45.0777 41.9922H50.3586C50.4699 41.9924 50.5765 42.0541 50.6551 42.1638C50.7338 42.2735 50.778 42.4223 50.7781 42.5775V46.5025C50.778 46.6577 50.7338 46.8064 50.6551 46.9162C50.5765 47.0259 50.4699 47.0876 50.3586 47.0878Z" fill="#548CA8"/>
<path d="M34.2844 56.6893H29.0035C28.8923 56.6892 28.7856 56.6275 28.707 56.5177C28.6283 56.408 28.5841 56.2592 28.584 56.104V52.1791C28.5841 52.0239 28.6283 51.8751 28.707 51.7654C28.7856 51.6556 28.8923 51.5939 29.0035 51.5938H34.2844C34.3956 51.5939 34.5023 51.6556 34.5809 51.7654C34.6596 51.8751 34.7038 52.0239 34.7039 52.1791V56.104C34.7038 56.2592 34.6596 56.408 34.5809 56.5177C34.5023 56.6275 34.3956 56.6892 34.2844 56.6893Z" fill="#548CA8"/>
<path d="M42.3215 56.6893H37.0406C36.9294 56.6892 36.8228 56.6275 36.7441 56.5177C36.6655 56.408 36.6212 56.2592 36.6211 56.104V52.1791C36.6212 52.0239 36.6655 51.8751 36.7441 51.7654C36.8228 51.6556 36.9294 51.5939 37.0406 51.5938H42.3215C42.4327 51.5939 42.5394 51.6556 42.618 51.7654C42.6967 51.8751 42.7409 52.0239 42.741 52.1791V56.104C42.7409 56.2592 42.6967 56.408 42.618 56.5177C42.5394 56.6275 42.4327 56.6892 42.3215 56.6893Z" fill="#548CA8"/>
<path d="M50.3586 56.6893H45.0777C44.9665 56.6892 44.8599 56.6275 44.7812 56.5177C44.7026 56.408 44.6583 56.2592 44.6582 56.104V52.1791C44.6583 52.0239 44.7026 51.8751 44.7812 51.7654C44.8599 51.6556 44.9665 51.5939 45.0777 51.5938H50.3586C50.4699 51.5939 50.5765 51.6556 50.6551 51.7654C50.7338 51.8751 50.778 52.0239 50.7781 52.1791V56.104C50.778 56.2592 50.7338 56.408 50.6551 56.5177C50.5765 56.6275 50.4699 56.6892 50.3586 56.6893Z" fill="#548CA8"/>
</g>
<path d="M0 2C0 0.895434 0.895431 0 2 0H34C35.1046 0 36 0.89543 36 2V59.9938H0V2Z" fill="#CBE6FF"/>
<path d="M11.9529 11.2188H5.81567C5.68641 11.2186 5.56248 11.1469 5.47108 11.0193C5.37968 10.8918 5.32827 10.7189 5.32812 10.5386V5.97709C5.32827 5.79675 5.37968 5.62385 5.47108 5.49633C5.56248 5.36881 5.68641 5.29708 5.81567 5.29688H11.9529C12.0822 5.29708 12.2061 5.36881 12.2975 5.49633C12.3889 5.62385 12.4403 5.79675 12.4405 5.97709V10.5386C12.4403 10.7189 12.3889 10.8918 12.2975 11.0193C12.2061 11.1469 12.0822 11.2186 11.9529 11.2188Z" fill="#548CA8"/>
<path d="M21.2928 11.2188H15.1555C15.0263 11.2186 14.9023 11.1469 14.8109 11.0193C14.7195 10.8918 14.6681 10.7189 14.668 10.5386V5.97709C14.6681 5.79675 14.7195 5.62385 14.8109 5.49633C14.9023 5.36881 15.0263 5.29708 15.1555 5.29688H21.2928C21.4221 5.29708 21.546 5.36881 21.6374 5.49633C21.7288 5.62385 21.7802 5.79675 21.7803 5.97709V10.5386C21.7802 10.7189 21.7288 10.8918 21.6374 11.0193C21.546 11.1469 21.422 11.2186 21.2928 11.2188Z" fill="#548CA8"/>
<path d="M30.6326 11.2188H24.4954C24.3661 11.2186 24.2422 11.1469 24.1508 11.0193C24.0594 10.8918 24.008 10.7189 24.0078 10.5386V5.97709C24.008 5.79675 24.0594 5.62385 24.1508 5.49633C24.2422 5.36881 24.3661 5.29708 24.4954 5.29688H30.6326C30.7619 5.29708 30.8858 5.36881 30.9772 5.49633C31.0686 5.62385 31.12 5.79675 31.1202 5.97709V10.5386C31.12 10.7189 31.0686 10.8918 30.9772 11.0193C30.8858 11.1469 30.7619 11.2186 30.6326 11.2188Z" fill="#548CA8"/>
<path d="M11.9529 22.6641H5.81567C5.68641 22.6639 5.56248 22.5922 5.47108 22.4646C5.37968 22.3371 5.32827 22.1642 5.32812 21.9839V17.4224C5.32827 17.2421 5.37968 17.0692 5.47108 16.9416C5.56248 16.8141 5.68641 16.7424 5.81567 16.7422H11.9529C12.0822 16.7424 12.2061 16.8141 12.2975 16.9416C12.3889 17.0692 12.4403 17.2421 12.4405 17.4224V21.9839C12.4403 22.1642 12.3889 22.3371 12.2975 22.4646C12.2061 22.5922 12.0822 22.6639 11.9529 22.6641Z" fill="#548CA8"/>
<path d="M21.2928 22.6641H15.1555C15.0263 22.6639 14.9023 22.5922 14.8109 22.4646C14.7195 22.3371 14.6681 22.1642 14.668 21.9839V17.4224C14.6681 17.2421 14.7195 17.0692 14.8109 16.9416C14.9023 16.8141 15.0263 16.7424 15.1555 16.7422H21.2928C21.4221 16.7424 21.546 16.8141 21.6374 16.9416C21.7288 17.0692 21.7802 17.2421 21.7803 17.4224V21.9839C21.7802 22.1642 21.7288 22.3371 21.6374 22.4646C21.546 22.5922 21.422 22.6639 21.2928 22.6641Z" fill="#548CA8"/>
<path d="M30.6326 22.6641H24.4954C24.3661 22.6639 24.2422 22.5922 24.1508 22.4646C24.0594 22.3371 24.008 22.1642 24.0078 21.9839V17.4224C24.008 17.2421 24.0594 17.0692 24.1508 16.9416C24.2422 16.8141 24.3661 16.7424 24.4954 16.7422H30.6326C30.7619 16.7424 30.8858 16.8141 30.9772 16.9416C31.0686 17.0692 31.12 17.2421 31.1202 17.4224V21.9839C31.12 22.1642 31.0686 22.3371 30.9772 22.4646C30.8858 22.5922 30.7619 22.6639 30.6326 22.6641Z" fill="#548CA8"/>
<path d="M11.9529 33.8282H5.81567C5.68641 33.828 5.56248 33.7562 5.47108 33.6287C5.37968 33.5012 5.32827 33.3283 5.32812 33.1479V28.5865C5.32827 28.4061 5.37968 28.2332 5.47108 28.1057C5.56248 27.9782 5.68641 27.9065 5.81567 27.9062H11.9529C12.0822 27.9065 12.2061 27.9782 12.2975 28.1057C12.3889 28.2332 12.4403 28.4061 12.4405 28.5865V33.1479C12.4403 33.3283 12.3889 33.5012 12.2975 33.6287C12.2061 33.7562 12.0822 33.828 11.9529 33.8282Z" fill="#548CA8"/>
<path d="M21.2928 33.8282H15.1555C15.0263 33.828 14.9023 33.7562 14.8109 33.6287C14.7195 33.5012 14.6681 33.3283 14.668 33.1479V28.5865C14.6681 28.4061 14.7195 28.2332 14.8109 28.1057C14.9023 27.9782 15.0263 27.9065 15.1555 27.9062H21.2928C21.4221 27.9065 21.546 27.9782 21.6374 28.1057C21.7288 28.2332 21.7802 28.4061 21.7803 28.5865V33.1479C21.7802 33.3283 21.7288 33.5012 21.6374 33.6287C21.546 33.7562 21.422 33.828 21.2928 33.8282Z" fill="#548CA8"/>
<path d="M30.6326 33.8282H24.4954C24.3661 33.828 24.2422 33.7562 24.1508 33.6287C24.0594 33.5012 24.008 33.3283 24.0078 33.1479V28.5865C24.008 28.4061 24.0594 28.2332 24.1508 28.1057C24.2422 27.9782 24.3661 27.9065 24.4954 27.9062H30.6326C30.7619 27.9065 30.8858 27.9782 30.9772 28.1057C31.0686 28.2332 31.12 28.4061 31.1202 28.5865V33.1479C31.12 33.3283 31.0686 33.5012 30.9772 33.6287C30.8858 33.7562 30.7619 33.828 30.6326 33.8282Z" fill="#548CA8"/>
<path d="M11.9529 44.9844H5.81567C5.68641 44.9842 5.56248 44.9125 5.47108 44.785C5.37968 44.6574 5.32827 44.4845 5.32812 44.3042V39.7427C5.32827 39.5624 5.37968 39.3895 5.47108 39.262C5.56248 39.1344 5.68641 39.0627 5.81567 39.0625H11.9529C12.0822 39.0627 12.2061 39.1344 12.2975 39.262C12.3889 39.3895 12.4403 39.5624 12.4405 39.7427V44.3042C12.4403 44.4845 12.3889 44.6574 12.2975 44.785C12.2061 44.9125 12.0822 44.9842 11.9529 44.9844Z" fill="#548CA8"/>
<path d="M21.2928 44.9844H15.1555C15.0263 44.9842 14.9023 44.9125 14.8109 44.785C14.7195 44.6574 14.6681 44.4845 14.668 44.3042V39.7427C14.6681 39.5624 14.7195 39.3895 14.8109 39.262C14.9023 39.1344 15.0263 39.0627 15.1555 39.0625H21.2928C21.4221 39.0627 21.546 39.1344 21.6374 39.262C21.7288 39.3895 21.7802 39.5624 21.7803 39.7427V44.3042C21.7802 44.4845 21.7288 44.6574 21.6374 44.785C21.546 44.9125 21.422 44.9842 21.2928 44.9844Z" fill="#548CA8"/>
<path d="M30.6326 44.9844H24.4954C24.3661 44.9842 24.2422 44.9125 24.1508 44.785C24.0594 44.6574 24.008 44.4845 24.0078 44.3042V39.7427C24.008 39.5624 24.0594 39.3895 24.1508 39.262C24.2422 39.1344 24.3661 39.0627 24.4954 39.0625H30.6326C30.7619 39.0627 30.8858 39.1344 30.9772 39.262C31.0686 39.3895 31.12 39.5624 31.1202 39.7427V44.3042C31.12 44.4845 31.0686 44.6574 30.9772 44.785C30.8858 44.9125 30.7619 44.9842 30.6326 44.9844Z" fill="#548CA8"/>
<path d="M11.9529 56.1485H5.81567C5.68641 56.1483 5.56248 56.0765 5.47108 55.949C5.37968 55.8215 5.32827 55.6486 5.32812 55.4683V50.9068C5.32827 50.7264 5.37968 50.5535 5.47108 50.426C5.56248 50.2985 5.68641 50.2268 5.81567 50.2266H11.9529C12.0822 50.2268 12.2061 50.2985 12.2975 50.426C12.3889 50.5535 12.4403 50.7264 12.4405 50.9068V55.4683C12.4403 55.6486 12.3889 55.8215 12.2975 55.949C12.2061 56.0765 12.0822 56.1483 11.9529 56.1485Z" fill="#548CA8"/>
<path d="M21.2928 56.1485H15.1555C15.0263 56.1483 14.9023 56.0765 14.8109 55.949C14.7195 55.8215 14.6681 55.6486 14.668 55.4683V50.9068C14.6681 50.7264 14.7195 50.5535 14.8109 50.426C14.9023 50.2985 15.0263 50.2268 15.1555 50.2266H21.2928C21.4221 50.2268 21.546 50.2985 21.6374 50.426C21.7288 50.5535 21.7802 50.7264 21.7803 50.9068V55.4683C21.7802 55.6486 21.7288 55.8215 21.6374 55.949C21.546 56.0765 21.422 56.1483 21.2928 56.1485Z" fill="#548CA8"/>
<path d="M30.6326 56.1485H24.4954C24.3661 56.1483 24.2422 56.0765 24.1508 55.949C24.0594 55.8215 24.008 55.6486 24.0078 55.4683V50.9068C24.008 50.7264 24.0594 50.5535 24.1508 50.426C24.2422 50.2985 24.3661 50.2268 24.4954 50.2266H30.6326C30.7619 50.2268 30.8858 50.2985 30.9772 50.426C31.0686 50.5535 31.12 50.7264 31.1202 50.9068V55.4683C31.12 55.6486 31.0686 55.8215 30.9772 55.949C30.8858 56.0765 30.7619 56.1483 30.6326 56.1485Z" fill="#548CA8"/>
</svg>
