<svg width="38" height="64" viewBox="0 0 38 64" fill="none" xmlns="http://www.w3.org/2000/svg">
<path d="M16.8219 14.2923C19.9187 14.2923 22.429 11.7819 22.429 8.68522C22.429 5.58851 19.9187 3.07812 16.8219 3.07812C13.7252 3.07812 11.2148 5.58851 11.2148 8.68522C11.2148 11.7819 13.7252 14.2923 16.8219 14.2923Z" fill="#FFB8B8"/>
<path d="M14.7852 12.5096V18.1167L18.6082 24.2336C18.6082 24.2336 24.4701 19.9008 23.1958 18.8813C21.9215 17.8619 21.6666 9.96094 21.6666 9.96094L14.7852 12.5096Z" fill="#FFB8B8"/>
<path d="M14.7821 17.1043L10.959 21.6919L14.7821 58.5L26.7608 58.2452L26.506 25.515L23.9574 18.3786L22.2091 16L19.1148 20.6724L14.7821 17.1043Z" fill="#548CA8"/>
<path d="M8.66552 33.6722L5.86197 44.3767L8.66552 55.0811L4.0779 61.198L0 41.828C0 41.828 3.05845 26.0262 3.3133 24.2421C3.56816 22.458 4.0779 22.2031 4.0779 22.2031L6.11685 22.458L8.66552 33.6722Z" fill="#CBE6FF"/>
<path d="M29.0566 37.7501L30.8408 41.0636L31.3507 46.6706L30.3312 53.0423L33.8992 58.9044L37.4673 42.8475L33.6444 22.2031H32.1151L29.0566 37.7501Z" fill="#CBE6FF"/>
<path d="M21.673 10.1422L21.8058 12.4088C21.8058 12.4088 23.4504 8.68986 23.7053 4.86684C23.9601 1.04382 19.6274 0.279215 17.0787 0.0243482C14.53 -0.230519 10.1973 1.55355 10.1973 3.5925C10.1973 5.63145 14.7849 5.12171 16.569 4.61198C18.353 4.10225 19.1177 8.435 19.1177 8.435L20.1371 8.68987L21.673 10.1422Z" fill="#2F2E41"/>
<path d="M13.2773 18.9064L14.7817 17.1016L19.1144 20.6696L14.7817 23.728L13.2773 18.9064Z" fill="#548CA8"/>
<path d="M23.9578 18.3719L22.1737 16.0781L19.1152 20.6657L22.9383 23.4693L23.9578 18.3719Z" fill="#548CA8"/>
<path d="M7.90213 37.2356L8.92161 46.9206L6.88267 52.7826L5.60832 58.3897C5.60832 58.3897 5.60835 63.7419 10.7057 63.9968C15.803 64.2517 20.1358 47.9401 20.1358 47.9401C20.1358 47.9401 20.9004 51.5083 21.4101 53.5472C21.9199 55.5862 30.5854 63.7419 30.5854 63.7419C30.5854 63.7419 32.6243 63.4871 34.4084 59.4092C36.1925 55.3313 30.8403 51.5083 30.8403 51.5083L29.3111 46.156L29.8208 39.5295L33.389 22.1984L22.8119 16.7188L23.9588 31.3737L20.1358 42.8427L14.4013 17.4834L12.4898 18.8851L4.33398 22.1984L7.90213 37.2356Z" fill="#CBE6FF"/>
</svg>
