<svg width="41" height="64" viewBox="0 0 41 64" fill="none" xmlns="http://www.w3.org/2000/svg">
<path d="M22.5331 14.6952C26.5911 14.6952 29.8807 11.4055 29.8807 7.34758C29.8807 3.28963 26.5911 0 22.5331 0C18.4752 0 15.1855 3.28963 15.1855 7.34758C15.1855 11.4055 18.4752 14.6952 22.5331 14.6952Z" fill="#2F2E41"/>
<path d="M15.55 54.5182L15.3555 51.1878L28.1092 48.8516L28.3966 53.7674L15.55 54.5182Z" fill="#FFB8B8"/>
<path d="M16.168 48.7474L16.5435 55.1707L12.4992 55.4071L11.8873 44.9395C12.4185 44.9085 12.9505 44.9823 13.453 45.1569C13.9556 45.3315 14.4188 45.6033 14.8163 45.9569C15.2138 46.3105 15.5378 46.7389 15.7697 47.2177C16.0017 47.6965 16.137 48.2163 16.168 48.7474Z" fill="#2F2E41"/>
<path d="M21.0974 54.4836L18.9788 57.0609L8.0293 50.1164L11.1558 46.3125L21.0974 54.4836Z" fill="#FFB8B8"/>
<path d="M16.7306 58.3L20.8162 53.3293L23.9459 55.9017L17.2879 64.0021C16.8769 63.6643 16.5365 63.2488 16.286 62.7794C16.0356 62.3101 15.8801 61.796 15.8283 61.2665C15.7766 60.737 15.8296 60.2025 15.9844 59.6935C16.1392 59.1845 16.3928 58.711 16.7306 58.3Z" fill="#2F2E41"/>
<path d="M15.0026 42.4955L13.5549 49.3202C13.5216 49.4774 13.5235 49.64 13.5604 49.7963C13.5973 49.9526 13.6684 50.0989 13.7685 50.2245C13.8686 50.3501 13.9953 50.452 14.1394 50.5229C14.2836 50.5938 14.4416 50.6319 14.6022 50.6345L28.8342 50.8641C28.9946 50.8667 29.1536 50.8337 29.2998 50.7677C29.4461 50.7016 29.5759 50.6041 29.68 50.482C29.7841 50.3599 29.8599 50.2163 29.9021 50.0615C29.9442 49.9067 29.9516 49.7445 29.9237 49.5865L28.6788 42.5322C28.6344 42.2802 28.5025 42.0519 28.3065 41.8874C28.1105 41.723 27.8627 41.6328 27.6069 41.6328H16.0675C15.818 41.6328 15.5761 41.7185 15.3822 41.8755C15.1884 42.0326 15.0544 42.2514 15.0026 42.4955Z" fill="#2F2E41"/>
<path d="M17.3621 44.9053C17.3621 44.9053 3.4833 36.197 0.761972 40.8233C-0.598692 43.1364 0.0816399 45.3815 1.10214 47.0483C2.04917 48.566 3.40859 49.7827 5.02153 50.5564L16.2735 56.0627L20.3555 51.7086L17.6342 49.2594L17.3621 44.9053Z" fill="#2F2E41"/>
<path d="M24.4368 43.5431C24.4368 43.5431 42.3976 38.3726 38.8599 48.1694C35.3221 57.9662 21.9876 54.1563 21.9876 54.1563L20.627 50.0743L25.2532 46.8087L24.4368 43.5431Z" fill="#2F2E41"/>
<path d="M22.6253 15.7115C26.3167 15.7115 29.3091 12.719 29.3091 9.02761C29.3091 5.33621 26.3167 2.34375 22.6253 2.34375C18.9339 2.34375 15.9414 5.33621 15.9414 9.02761C15.9414 12.719 18.9339 15.7115 22.6253 15.7115Z" fill="#FFB8B8"/>
<path d="M22.9755 44.624C20.1981 44.5819 17.435 44.2179 14.7415 43.5391L14.6619 43.5174L10.9322 26.3608C10.5967 24.8532 10.8248 23.2749 11.5735 21.924C12.3222 20.5731 13.5397 19.5431 14.9959 19.0286C19.4942 17.4146 24.3971 17.3167 28.9562 18.7498H28.9563C30.4861 19.2428 31.7738 20.2944 32.5624 21.6949C33.3511 23.0954 33.5827 24.7418 33.2111 26.3055L29.0452 43.503L28.9865 43.5309C27.2553 44.351 25.0903 44.624 22.9755 44.624Z" fill="#CBE6FF"/>
<path d="M17.9655 45.953C18.1009 45.5766 18.3172 45.2344 18.5992 44.9506C18.8812 44.6669 19.222 44.4484 19.5976 44.3105C19.9731 44.1727 20.3744 44.1189 20.773 44.1529C21.1716 44.1869 21.5579 44.3079 21.9047 44.5074L29.2486 38.1328L29.913 43.1424L22.8373 48.4277C22.4636 48.9881 21.8973 49.392 21.2458 49.5627C20.5942 49.7335 19.9027 49.6593 19.3022 49.3543C18.7016 49.0492 18.2339 48.5345 17.9875 47.9077C17.7412 47.2808 17.7333 46.5853 17.9655 45.953Z" fill="#FFB8B8"/>
<path d="M24.968 47.3463C24.8485 47.3462 24.7297 47.3287 24.6152 47.2945C24.4294 47.2404 24.2592 47.1426 24.119 47.0092C23.9787 46.8759 23.8724 46.7109 23.809 46.528L22.9226 44.0166C22.8396 43.7845 22.8291 43.5327 22.8924 43.2945C22.9556 43.0563 23.0898 42.8429 23.277 42.6826L33.283 36.6754L29.3387 19.079L29.439 19.0549C29.4798 19.0448 33.521 18.125 35.1771 22.541C36.3368 25.6339 40.6283 32.3588 40.3256 36.9032C40.268 37.8122 39.9058 38.6753 39.2974 39.3531C38.689 40.0309 37.8699 40.4839 36.9723 40.6389L25.7093 47.092C25.4971 47.2564 25.2364 47.3459 24.968 47.3463Z" fill="#CBE6FF"/>
<path d="M26.0902 45.3593C25.9547 44.9828 25.7384 44.6407 25.4564 44.3569C25.1744 44.0731 24.8336 43.8546 24.458 43.7168C24.0825 43.579 23.6813 43.5252 23.2826 43.5592C22.884 43.5932 22.4977 43.7142 22.1509 43.9136L14.807 37.5391L14.1426 42.5486L21.2183 47.834C21.592 48.3944 22.1583 48.7982 22.8098 48.969C23.4614 49.1398 24.1529 49.0656 24.7534 48.7605C25.354 48.4555 25.8217 47.9408 26.0681 47.3139C26.3144 46.687 26.3223 45.9916 26.0902 45.3593Z" fill="#FFB8B8"/>
<path d="M19.8236 47.3464C19.5552 47.346 19.2945 47.2566 19.0823 47.0921L7.00285 41.1833C6.10531 41.0283 5.2862 40.5753 4.67778 39.8975C4.06937 39.2197 3.70716 38.3566 3.64964 37.4476C3.34688 32.9032 8.45481 25.634 9.6145 22.5411C11.2704 18.1251 15.3117 19.0446 15.3526 19.055L15.4529 19.0792L10.6922 37.2198L21.5146 42.6827C21.7018 42.843 21.8359 43.0564 21.8992 43.2946C21.9625 43.5329 21.952 43.7847 21.869 44.0168L20.9825 46.5281C20.9191 46.711 20.8129 46.876 20.6726 47.0093C20.5324 47.1427 20.3622 47.2405 20.1764 47.2946C20.0619 47.3288 19.9431 47.3463 19.8236 47.3464Z" fill="#CBE6FF"/>
<path d="M34.2341 50.0741H10.0143C9.50927 50.0735 9.02508 49.8726 8.66797 49.5155C8.31085 49.1584 8.10996 48.6742 8.10938 48.1691V34.8346C8.10996 34.3296 8.31085 33.8454 8.66797 33.4883C9.02508 33.1312 9.50927 32.9303 10.0143 32.9297H34.2341C34.7392 32.9303 35.2234 33.1312 35.5805 33.4883C35.9376 33.8454 36.1385 34.3296 36.139 34.8346V48.1691C36.1385 48.6742 35.9376 49.1584 35.5804 49.5155C35.2233 49.8726 34.7392 50.0735 34.2341 50.0741Z" fill="#548CA8"/>
<path d="M22.125 43.1328C23.0268 43.1328 23.7578 42.4018 23.7578 41.5C23.7578 40.5982 23.0268 39.8672 22.125 39.8672C21.2232 39.8672 20.4922 40.5982 20.4922 41.5C20.4922 42.4018 21.2232 43.1328 22.125 43.1328Z" fill="white"/>
<path d="M15.8739 8.75604C15.4778 7.75124 16.1277 6.55382 17.0919 6.06709C18.0561 5.58036 19.2195 5.67293 20.2509 5.99372C21.1176 6.2633 21.9299 6.68109 22.7754 7.01107C23.609 7.38048 24.5196 7.54265 25.4295 7.48374C26.3314 7.38188 27.2291 6.87613 27.5981 6.04688C27.9807 5.18732 27.7205 4.13838 27.1314 3.4048C26.5046 2.69562 25.6933 2.17421 24.7878 1.8986C22.7992 1.19801 20.5022 1.17753 18.6561 2.1959C16.8099 3.21428 15.5553 5.38264 15.9369 7.45623" fill="#2F2E41"/>
</svg>
