<svg width="13" height="16" viewBox="0 0 13 16" fill="none" xmlns="http://www.w3.org/2000/svg">
<path d="M12.8 5.552C12.7917 5.47851 12.7756 5.4061 12.752 5.336V5.264C12.7135 5.18174 12.6622 5.10613 12.6 5.04L7.8 0.24C7.73387 0.177773 7.65826 0.126465 7.576 0.0879999C7.55212 0.0846081 7.52788 0.0846081 7.504 0.0879999C7.42273 0.041393 7.33298 0.0114754 7.24 0H2.4C1.76348 0 1.15303 0.252856 0.702944 0.702944C0.252856 1.15303 0 1.76348 0 2.4V13.6C0 14.2365 0.252856 14.847 0.702944 15.2971C1.15303 15.7471 1.76348 16 2.4 16H10.4C11.0365 16 11.647 15.7471 12.0971 15.2971C12.5471 14.847 12.8 14.2365 12.8 13.6V5.6C12.8 5.6 12.8 5.6 12.8 5.552ZM8 2.728L10.072 4.8H8.8C8.58783 4.8 8.38434 4.71571 8.23431 4.56569C8.08429 4.41566 8 4.21217 8 4V2.728ZM11.2 13.6C11.2 13.8122 11.1157 14.0157 10.9657 14.1657C10.8157 14.3157 10.6122 14.4 10.4 14.4H2.4C2.18783 14.4 1.98434 14.3157 1.83431 14.1657C1.68429 14.0157 1.6 13.8122 1.6 13.6V2.4C1.6 2.18783 1.68429 1.98434 1.83431 1.83431C1.98434 1.68429 2.18783 1.6 2.4 1.6H6.4V4C6.4 4.63652 6.65286 5.24697 7.10294 5.69706C7.55303 6.14714 8.16348 6.4 8.8 6.4H11.2V13.6ZM8.232 8.232L5.6 10.872L4.568 9.832C4.41736 9.68136 4.21304 9.59673 4 9.59673C3.78696 9.59673 3.58264 9.68136 3.432 9.832C3.28136 9.98264 3.19673 10.187 3.19673 10.4C3.19673 10.613 3.28136 10.8174 3.432 10.968L5.032 12.568C5.10637 12.643 5.19485 12.7025 5.29234 12.7431C5.38983 12.7837 5.49439 12.8046 5.6 12.8046C5.70561 12.8046 5.81017 12.7837 5.90766 12.7431C6.00515 12.7025 6.09363 12.643 6.168 12.568L9.368 9.368C9.51864 9.21736 9.60327 9.01304 9.60327 8.8C9.60327 8.58696 9.51864 8.38264 9.368 8.232C9.21736 8.08136 9.01304 7.99673 8.8 7.99673C8.58696 7.99673 8.38264 8.08136 8.232 8.232Z" fill="#6E7377"/>
</svg>
