<svg width="20" height="24" viewBox="0 0 20 24" fill="none" xmlns="http://www.w3.org/2000/svg">
<path d="M19.2 8.328C19.1875 8.21776 19.1634 8.10916 19.128 8.004V7.896C19.0703 7.77262 18.9933 7.6592 18.9 7.56L11.7 0.36C11.6008 0.266659 11.4874 0.189697 11.364 0.132C11.3282 0.126912 11.2918 0.126912 11.256 0.132C11.1341 0.0620895 10.9995 0.017213 10.86 0H3.6C2.64522 0 1.72955 0.379285 1.05442 1.05442C0.379285 1.72955 0 2.64522 0 3.6V20.4C0 21.3548 0.379285 22.2705 1.05442 22.9456C1.72955 23.6207 2.64522 24 3.6 24H15.6C16.5548 24 17.4705 23.6207 18.1456 22.9456C18.8207 22.2705 19.2 21.3548 19.2 20.4V8.4C19.2 8.4 19.2 8.4 19.2 8.328ZM12 4.092L15.108 7.2H13.2C12.8817 7.2 12.5765 7.07357 12.3515 6.84853C12.1264 6.62348 12 6.31826 12 6V4.092ZM16.8 20.4C16.8 20.7183 16.6736 21.0235 16.4485 21.2485C16.2235 21.4736 15.9183 21.6 15.6 21.6H3.6C3.28174 21.6 2.97652 21.4736 2.75147 21.2485C2.52643 21.0235 2.4 20.7183 2.4 20.4V3.6C2.4 3.28174 2.52643 2.97652 2.75147 2.75147C2.97652 2.52643 3.28174 2.4 3.6 2.4H9.6V6C9.6 6.95478 9.97928 7.87045 10.6544 8.54559C11.3295 9.22072 12.2452 9.6 13.2 9.6H16.8V20.4ZM12.348 12.348L8.4 16.308L6.852 14.748C6.62604 14.522 6.31956 14.3951 6 14.3951C5.68044 14.3951 5.37396 14.522 5.148 14.748C4.92204 14.974 4.79509 15.2804 4.79509 15.6C4.79509 15.9196 4.92204 16.226 5.148 16.452L7.548 18.852C7.65956 18.9645 7.79228 19.0537 7.93851 19.1147C8.08474 19.1756 8.24159 19.207 8.4 19.207C8.55841 19.207 8.71526 19.1756 8.86149 19.1147C9.00772 19.0537 9.14044 18.9645 9.252 18.852L14.052 14.052C14.278 13.826 14.4049 13.5196 14.4049 13.2C14.4049 12.8804 14.278 12.574 14.052 12.348C13.826 12.122 13.5196 11.9951 13.2 11.9951C12.8804 11.9951 12.574 12.122 12.348 12.348Z" fill="#FFD500"/>
</svg>
