<svg width="27" height="32" viewBox="0 0 27 32" fill="none" xmlns="http://www.w3.org/2000/svg">
<path d="M10.1053 0C9.1751 0 8.42105 0.754047 8.42105 1.68421C8.42105 2.61437 9.1751 3.36842 10.1053 3.36842H11.7895V5.15687C5.14305 5.98567 0 11.6554 0 18.5263C0 25.9676 6.03237 32 13.4737 32C20.915 32 26.9474 25.9676 26.9474 18.5263C26.9474 11.6554 21.8043 5.98567 15.1579 5.15687V3.36842H16.8421C17.7723 3.36842 18.5263 2.61437 18.5263 1.68421C18.5263 0.754047 17.7723 0 16.8421 0H10.1053Z" fill="#548CA8"/>
<path d="M4.66726 4.16563C4.18185 3.37408 3.14123 3.11995 2.39693 3.6751C1.74001 4.16508 1.11632 4.6981 0.529982 5.27066C-0.134352 5.91938 -0.0454599 6.98689 0.660798 7.5897C1.36706 8.19251 2.42241 8.10067 3.09966 7.46545C3.44042 7.14584 3.79576 6.84215 4.16455 6.55536C4.89753 5.98534 5.15268 4.95718 4.66726 4.16563Z" fill="#BBD1DC"/>
<path d="M22.2795 4.16563C22.7649 3.37408 23.8055 3.11995 24.5498 3.6751C25.2068 4.16508 25.8305 4.6981 26.4168 5.27066C27.0811 5.91938 26.9922 6.98689 26.286 7.5897C25.5797 8.19251 24.5244 8.10067 23.8471 7.46545C23.5064 7.14584 23.151 6.84215 22.7822 6.55536C22.0492 5.98534 21.7941 4.95718 22.2795 4.16563Z" fill="#BBD1DC"/>
<circle cx="13.4" cy="18.4" r="10.4" fill="#BBD1DC"/>
<path d="M13.8571 11.7287C13.8571 11.5861 13.8571 11.5148 13.9034 11.4705C13.9497 11.4262 14.0188 11.4292 14.1571 11.4353C14.9551 11.4702 15.7418 11.6444 16.4813 11.9507C17.3132 12.2953 18.0691 12.8004 18.7059 13.4371C19.3426 14.0739 19.8477 14.8298 20.1923 15.6617C20.4986 16.4012 20.6728 17.1879 20.7077 17.9859C20.7138 18.1242 20.7168 18.1933 20.6725 18.2396C20.6282 18.2859 20.5569 18.2859 20.4143 18.2859L14.1571 18.2859C14.0157 18.2859 13.945 18.2859 13.9011 18.2419C13.8571 18.198 13.8571 18.1273 13.8571 17.9859V11.7287Z" fill="#548CA8"/>
</svg>
