<svg width="35" height="40" viewBox="0 0 35 40" fill="none" xmlns="http://www.w3.org/2000/svg">
<path d="M8.43697 24.2529H6.76819V26.7418H8.43697C9.10689 26.7418 9.63705 26.1517 9.63705 25.5317C9.63565 24.8331 9.10691 24.253 8.43697 24.253V24.2529Z" fill="#FF5E7B"/>
<path d="M15.1537 24.3018H13.4949V28.7792H15.1537C17.8523 28.7795 17.9712 24.3018 15.1537 24.3018Z" fill="#FF5E7B"/>
<path d="M28.75 18.75H1.25C0.5625 18.75 0 19.3125 0 20V32.5C0 33.1875 0.5625 33.75 1.25 33.75H28.75C29.4386 33.75 30 33.1875 30 32.5V20C30 19.3125 29.4386 18.75 28.75 18.75ZM8.43714 27.9914H6.76836V29.3114C6.76836 29.7512 6.4885 30 6.12829 30C5.79821 30 5.44944 29.7512 5.44944 29.31V23.6839C5.44944 23.3538 5.70949 22.9928 6.12829 22.9928L8.43715 22.9925C9.73708 22.9925 10.907 23.8625 10.907 25.5313C10.9059 27.1113 9.73708 27.9913 8.43715 27.9913L8.43714 27.9914ZM15.2435 30.0001H12.8649C12.5348 30.0001 12.1748 29.8187 12.1748 29.3801V23.7037C12.1748 23.3438 12.5348 23.0838 12.8649 23.0838H15.1536C19.7209 23.0838 19.621 30 15.2435 30L15.2435 30.0001ZM24.1499 24.3826H21.2401V25.9713H23.7889C24.1503 25.9713 24.5088 26.3312 24.5088 26.6814C24.5088 27.0115 24.15 27.2802 23.7889 27.2802H21.2401V29.3789C21.2401 29.7288 20.9912 29.9989 20.6413 29.9989C20.2013 29.9989 19.9312 29.7288 19.9312 29.3789V23.7026C19.9312 23.3427 20.2024 23.0826 20.6413 23.0826H24.1499C24.59 23.0826 24.8486 23.3427 24.8486 23.7026C24.8486 24.0237 24.59 24.3826 24.1499 24.3826L24.1499 24.3826Z" fill="#FF5E7B"/>
<path d="M33.75 9.48214L25.5178 1.25C24.7952 0.525143 23.5253 0 22.5002 0H8.75024C6.68274 0 5.00024 1.6825 5.00024 3.75V16.25C5.00024 16.9411 5.55912 17.5 6.25024 17.5C6.94137 17.5 7.50024 16.9411 7.50024 16.25V3.75C7.50024 3.06139 8.06023 2.5 8.75024 2.5H20.0002C21.3814 2.5 22.5002 3.62 22.5002 5V9.6875C22.5002 11.2349 23.7678 12.5 25.3127 12.5H30.0002C31.3814 12.5 32.5002 13.62 32.5002 15V36.25C32.5002 36.9386 31.9414 37.5 31.2502 37.5H8.75024C8.06023 37.5 7.50024 36.9386 7.50024 36.25C7.50024 35.5589 6.94137 35 6.25024 35C5.55912 35 5.00024 35.5589 5.00024 36.25C5.00024 38.3175 6.68274 40 8.75024 40H31.2502C33.3177 40 35.0002 38.3175 35.0002 36.25V12.5C35.0002 11.4763 34.4751 10.2062 33.7502 9.48243L33.75 9.48214Z" fill="#FF5E7B"/>
</svg>
