<svg width="18" height="18" viewBox="0 0 18 18" fill="none" xmlns="http://www.w3.org/2000/svg">
<path opacity="0.64" d="M15.2008 9.83672C15.0175 9.83672 14.8258 9.77839 14.6425 9.73672C14.2712 9.65491 13.9064 9.54629 13.5508 9.41172C13.1642 9.27108 12.7393 9.27839 12.3577 9.43223C11.9762 9.58607 11.6651 9.87559 11.4841 10.2451L11.3008 10.6201C10.4892 10.1685 9.7433 9.60775 9.08415 8.95339C8.42979 8.29424 7.869 7.54839 7.41748 6.73672L7.76748 6.50339C8.13696 6.32249 8.42647 6.01133 8.58031 5.6298C8.73416 5.24827 8.74146 4.82332 8.60082 4.43672C8.4685 4.08041 8.35993 3.71572 8.27582 3.34506C8.23415 3.16172 8.20082 2.97006 8.17582 2.77839C8.07462 2.19141 7.76717 1.65984 7.30883 1.27942C6.8505 0.899003 6.2714 0.69473 5.67582 0.703389H3.17582C2.81668 0.700017 2.46102 0.774067 2.13307 0.920498C1.80512 1.06693 1.51257 1.2823 1.27534 1.55196C1.03811 1.82161 0.861762 2.13922 0.758306 2.48315C0.654851 2.82709 0.626716 3.18927 0.675816 3.54506C1.11976 7.03621 2.71417 10.28 5.20719 12.7639C7.70021 15.2479 10.9497 16.8305 14.4425 17.2617H14.7592C15.3737 17.2626 15.967 17.0372 16.4258 16.6284C16.6895 16.3926 16.9001 16.1035 17.0437 15.7803C17.1874 15.4571 17.2608 15.1071 17.2592 14.7534V12.2534C17.2489 11.6745 17.0382 11.1172 16.6628 10.6764C16.2874 10.2357 15.7707 9.93891 15.2008 9.83672ZM15.6175 14.8367C15.6173 14.955 15.592 15.072 15.5431 15.1797C15.4943 15.2875 15.423 15.3836 15.3342 15.4617C15.2413 15.5426 15.1325 15.6029 15.0147 15.6388C14.897 15.6747 14.773 15.6854 14.6508 15.6701C11.5299 15.2699 8.63101 13.8421 6.41141 11.612C4.19181 9.3818 2.77783 6.47617 2.39248 3.35339C2.37922 3.23132 2.39084 3.10783 2.42665 2.99038C2.46246 2.87293 2.52171 2.76396 2.60082 2.67006C2.67891 2.58117 2.77503 2.50992 2.8828 2.46107C2.99056 2.41222 3.1075 2.38687 3.22582 2.38672H5.72582C5.91961 2.38241 6.10884 2.44579 6.26094 2.56595C6.41304 2.68611 6.51849 2.85553 6.55915 3.04506C6.59248 3.27283 6.63415 3.49783 6.68415 3.72006C6.78042 4.15934 6.90853 4.59104 7.06748 5.01172L5.90082 5.55339C5.80106 5.59916 5.71134 5.66418 5.63678 5.74472C5.56223 5.82526 5.50432 5.91974 5.46638 6.02272C5.42843 6.1257 5.41121 6.23517 5.41569 6.34482C5.42017 6.45448 5.44627 6.56218 5.49248 6.66172C6.69182 9.23069 8.75685 11.2957 11.3258 12.4951C11.5287 12.5784 11.7563 12.5784 11.9592 12.4951C12.0631 12.4579 12.1586 12.4004 12.2401 12.326C12.3217 12.2517 12.3876 12.1618 12.4342 12.0617L12.9508 10.8951C13.3816 11.0491 13.8213 11.1771 14.2675 11.2784C14.4897 11.3284 14.7147 11.3701 14.9425 11.4034C15.132 11.444 15.3014 11.5495 15.4216 11.7016C15.5418 11.8537 15.6051 12.0429 15.6008 12.2367L15.6175 14.8367Z" fill="#6E7377"/>
</svg>
