<svg width="14" height="16" viewBox="0 0 14 16" fill="none" xmlns="http://www.w3.org/2000/svg">
<path d="M12.4369 8.46801L7.40385 13.5092C6.74403 14.0956 5.88509 14.4077 5.00275 14.3817C4.1204 14.3558 3.28131 13.9937 2.65713 13.3695C2.03294 12.7453 1.67083 11.9062 1.64486 11.0238C1.61888 10.1415 1.93101 9.28257 2.5174 8.62275L9.03266 2.10749C9.42164 1.73799 9.93766 1.53197 10.4742 1.53197C11.0107 1.53197 11.5267 1.73799 11.9157 2.10749C12.2947 2.49155 12.5071 3.00942 12.5071 3.54899C12.5071 4.08856 12.2947 4.60642 11.9157 4.99049L6.29625 10.6018C6.24064 10.6617 6.17377 10.71 6.09947 10.7441C6.02517 10.7781 5.94489 10.7972 5.86322 10.8002C5.78154 10.8032 5.70007 10.7901 5.62346 10.7617C5.54684 10.7332 5.47658 10.6899 5.41669 10.6343C5.3568 10.5787 5.30845 10.5119 5.2744 10.4376C5.24035 10.3633 5.22126 10.283 5.21824 10.2013C5.21521 10.1196 5.22831 10.0382 5.25677 9.96154C5.28523 9.88493 5.3285 9.81467 5.38411 9.75478L9.56203 5.58501C9.71538 5.43165 9.80154 5.22366 9.80154 5.00678C9.80154 4.7899 9.71538 4.5819 9.56203 4.42855C9.40867 4.27519 9.20068 4.18904 8.9838 4.18904C8.76692 4.18904 8.55892 4.27519 8.40557 4.42855L4.22765 8.6146C4.0186 8.82204 3.85267 9.0688 3.73944 9.34067C3.62621 9.61253 3.56792 9.90412 3.56792 10.1986C3.56792 10.4931 3.62621 10.7847 3.73944 11.0566C3.85267 11.3285 4.0186 11.5752 4.22765 11.7827C4.65471 12.1894 5.22189 12.4163 5.81168 12.4163C6.40147 12.4163 6.96865 12.1894 7.3957 11.7827L13.007 6.16324C13.6543 5.46851 14.0068 4.54963 13.99 3.60018C13.9733 2.65074 13.5886 1.74487 12.9172 1.07341C12.2457 0.401945 11.3398 0.0173228 10.3904 0.000570966C9.44095 -0.0161808 8.52207 0.336245 7.82734 0.983602L1.31207 7.49887C0.433491 8.47195 -0.0357475 9.74651 0.00212661 11.057C0.0400007 12.3675 0.582066 13.6128 1.51538 14.5335C2.4487 15.4542 3.70128 15.9793 5.01216 15.9994C6.32304 16.0195 7.59111 15.5329 8.55216 14.6412L13.5933 9.60818C13.6693 9.53225 13.7295 9.4421 13.7706 9.34289C13.8117 9.24368 13.8329 9.13734 13.8329 9.02995C13.8329 8.92256 13.8117 8.81623 13.7706 8.71702C13.7295 8.6178 13.6693 8.52766 13.5933 8.45172C13.5174 8.37579 13.4273 8.31555 13.3281 8.27446C13.2288 8.23336 13.1225 8.21221 13.0151 8.21221C12.9077 8.21221 12.8014 8.23336 12.7022 8.27446C12.603 8.31555 12.5128 8.37579 12.4369 8.45172V8.46801Z" fill="#6E7377" fill-opacity="0.64"/>
</svg>
