<svg width="12" height="13" viewBox="0 0 12 13" fill="none" xmlns="http://www.w3.org/2000/svg">
<path d="M11.25 6.13281H6.75V1.63281C6.75 1.4339 6.67098 1.24313 6.53033 1.10248C6.38968 0.96183 6.19891 0.882813 6 0.882812C5.80109 0.882813 5.61032 0.96183 5.46967 1.10248C5.32902 1.24313 5.25 1.4339 5.25 1.63281V6.13281H0.75C0.551088 6.13281 0.360322 6.21183 0.21967 6.35248C0.0790178 6.49313 0 6.6839 0 6.88281C0 7.08172 0.0790178 7.27249 0.21967 7.41314C0.360322 7.55379 0.551088 7.63281 0.75 7.63281H5.25V12.1328C5.25 12.3317 5.32902 12.5225 5.46967 12.6631C5.61032 12.8038 5.80109 12.8828 6 12.8828C6.19891 12.8828 6.38968 12.8038 6.53033 12.6631C6.67098 12.5225 6.75 12.3317 6.75 12.1328V7.63281H11.25C11.4489 7.63281 11.6397 7.55379 11.7803 7.41314C11.921 7.27249 12 7.08172 12 6.88281C12 6.6839 11.921 6.49313 11.7803 6.35248C11.6397 6.21183 11.4489 6.13281 11.25 6.13281Z" fill="#6A8CAA"/>
</svg>
