<svg width="22" height="18" viewBox="0 0 22 18" fill="none" xmlns="http://www.w3.org/2000/svg">
<path d="M12.4006 9.28501C12.9508 8.80874 13.3921 8.21967 13.6946 7.55778C13.9971 6.89589 14.1536 6.17668 14.1536 5.44896C14.1536 4.0815 13.6104 2.77006 12.6435 1.80312C11.6765 0.836187 10.3651 0.292969 8.99763 0.292969C7.63017 0.292969 6.31873 0.836187 5.35179 1.80312C4.38486 2.77006 3.84164 4.0815 3.84164 5.44896C3.84163 6.17668 3.99818 6.89589 4.30065 7.55778C4.60313 8.21967 5.04445 8.80874 5.59468 9.28501C4.15114 9.93867 2.92642 10.9943 2.06693 12.3255C1.20744 13.6568 0.749565 15.2075 0.748047 16.7921C0.748047 17.0656 0.856691 17.3279 1.05008 17.5213C1.24346 17.7147 1.50575 17.8233 1.77924 17.8233C2.05273 17.8233 2.31502 17.7147 2.50841 17.5213C2.7018 17.3279 2.81044 17.0656 2.81044 16.7921C2.81044 15.1512 3.4623 13.5775 4.62263 12.4171C5.78295 11.2568 7.35668 10.6049 8.99763 10.6049C10.6386 10.6049 12.2123 11.2568 13.3726 12.4171C14.533 13.5775 15.1848 15.1512 15.1848 16.7921C15.1848 17.0656 15.2935 17.3279 15.4868 17.5213C15.6802 17.7147 15.9425 17.8233 16.216 17.8233C16.4895 17.8233 16.7518 17.7147 16.9452 17.5213C17.1386 17.3279 17.2472 17.0656 17.2472 16.7921C17.2457 15.2075 16.7878 13.6568 15.9283 12.3255C15.0688 10.9943 13.8441 9.93867 12.4006 9.28501ZM8.99763 8.54255C8.38577 8.54255 7.78766 8.36111 7.27892 8.02118C6.77018 7.68126 6.37367 7.1981 6.13952 6.63282C5.90537 6.06754 5.84411 5.44552 5.96348 4.84543C6.08284 4.24533 6.37748 3.6941 6.81013 3.26146C7.24277 2.82881 7.794 2.53417 8.3941 2.41481C8.9942 2.29544 9.61621 2.3567 10.1815 2.59085C10.7468 2.825 11.2299 3.22151 11.5699 3.73025C11.9098 4.23899 12.0912 4.8371 12.0912 5.44896C12.0912 6.26943 11.7653 7.0563 11.1851 7.63646C10.605 8.21662 9.8181 8.54255 8.99763 8.54255ZM21.073 6.09861C20.9771 6.00196 20.863 5.92524 20.7374 5.87289C20.6117 5.82054 20.4769 5.79358 20.3408 5.79358C20.2047 5.79358 20.0699 5.82054 19.9442 5.87289C19.8186 5.92524 19.7045 6.00196 19.6087 6.09861L17.5463 8.16101L16.9069 7.51135C16.811 7.4147 16.697 7.33798 16.5713 7.28563C16.4457 7.23328 16.3109 7.20633 16.1748 7.20633C16.0386 7.20633 15.9038 7.23328 15.7782 7.28563C15.6525 7.33798 15.5385 7.4147 15.4426 7.51135C15.2506 7.70456 15.1427 7.96592 15.1427 8.23835C15.1427 8.51077 15.2506 8.77213 15.4426 8.96534L16.8244 10.3471C17.0176 10.5392 17.279 10.647 17.5514 10.647C17.8238 10.647 18.0852 10.5392 18.2784 10.3471L21.0317 7.59385C21.1358 7.50034 21.2198 7.38662 21.2786 7.25962C21.3373 7.13261 21.3696 6.99497 21.3735 6.85509C21.3773 6.7152 21.3527 6.576 21.301 6.44594C21.2493 6.31589 21.1717 6.19771 21.073 6.09861Z" fill="white"/>
</svg>
