<svg width="22" height="22" viewBox="0 0 22 22" fill="none" xmlns="http://www.w3.org/2000/svg">
<path d="M13.1224 6.93328H14.1536C14.4271 6.93328 14.6894 6.82463 14.8828 6.63125C15.0762 6.43786 15.1848 6.17557 15.1848 5.90208C15.1848 5.62859 15.0762 5.3663 14.8828 5.17291C14.6894 4.97953 14.4271 4.87088 14.1536 4.87088H13.1224C12.8489 4.87088 12.5866 4.97953 12.3932 5.17291C12.1999 5.3663 12.0912 5.62859 12.0912 5.90208C12.0912 6.17557 12.1999 6.43786 12.3932 6.63125C12.5866 6.82463 12.8489 6.93328 13.1224 6.93328ZM13.1224 11.0581H14.1536C14.4271 11.0581 14.6894 10.9494 14.8828 10.756C15.0762 10.5626 15.1848 10.3004 15.1848 10.0269C15.1848 9.75338 15.0762 9.49109 14.8828 9.2977C14.6894 9.10432 14.4271 8.99567 14.1536 8.99567H13.1224C12.8489 8.99567 12.5866 9.10432 12.3932 9.2977C12.1999 9.49109 12.0912 9.75338 12.0912 10.0269C12.0912 10.3004 12.1999 10.5626 12.3932 10.756C12.5866 10.9494 12.8489 11.0581 13.1224 11.0581ZM7.96643 6.93328H8.99763C9.27112 6.93328 9.53341 6.82463 9.72679 6.63125C9.92018 6.43786 10.0288 6.17557 10.0288 5.90208C10.0288 5.62859 9.92018 5.3663 9.72679 5.17291C9.53341 4.97953 9.27112 4.87088 8.99763 4.87088H7.96643C7.69294 4.87088 7.43065 4.97953 7.23726 5.17291C7.04388 5.3663 6.93523 5.62859 6.93523 5.90208C6.93523 6.17557 7.04388 6.43786 7.23726 6.63125C7.43065 6.82463 7.69294 6.93328 7.96643 6.93328ZM7.96643 11.0581H8.99763C9.27112 11.0581 9.53341 10.9494 9.72679 10.756C9.92018 10.5626 10.0288 10.3004 10.0288 10.0269C10.0288 9.75338 9.92018 9.49109 9.72679 9.2977C9.53341 9.10432 9.27112 8.99567 8.99763 8.99567H7.96643C7.69294 8.99567 7.43065 9.10432 7.23726 9.2977C7.04388 9.49109 6.93523 9.75338 6.93523 10.0269C6.93523 10.3004 7.04388 10.5626 7.23726 10.756C7.43065 10.9494 7.69294 11.0581 7.96643 11.0581ZM20.3408 19.3076H19.3096V1.77729C19.3096 1.5038 19.201 1.24151 19.0076 1.04812C18.8142 0.854737 18.5519 0.746094 18.2784 0.746094H3.84164C3.56815 0.746094 3.30586 0.854737 3.11247 1.04812C2.91909 1.24151 2.81044 1.5038 2.81044 1.77729V19.3076H1.77924C1.50575 19.3076 1.24346 19.4163 1.05008 19.6097C0.856691 19.8031 0.748047 20.0654 0.748047 20.3388C0.748047 20.6123 0.856691 20.8746 1.05008 21.068C1.24346 21.2614 1.50575 21.37 1.77924 21.37H20.3408C20.6143 21.37 20.8766 21.2614 21.07 21.068C21.2634 20.8746 21.372 20.6123 21.372 20.3388C21.372 20.0654 21.2634 19.8031 21.07 19.6097C20.8766 19.4163 20.6143 19.3076 20.3408 19.3076ZM12.0912 19.3076H10.0288V15.1829H12.0912V19.3076ZM17.2472 19.3076H14.1536V14.1517C14.1536 13.8782 14.045 13.6159 13.8516 13.4225C13.6582 13.2291 13.3959 13.1205 13.1224 13.1205H8.99763C8.72414 13.1205 8.46185 13.2291 8.26846 13.4225C8.07507 13.6159 7.96643 13.8782 7.96643 14.1517V19.3076H4.87284V2.80849H17.2472V19.3076Z" fill="white"/>
</svg>
