<svg width="22" height="20" viewBox="0 0 22 20" fill="none" xmlns="http://www.w3.org/2000/svg">
<path d="M18.2784 4.38651H15.1848V3.35531C15.1848 2.53484 14.8589 1.74797 14.2787 1.16781C13.6986 0.58765 12.9117 0.261719 12.0912 0.261719H10.0288C9.20835 0.261719 8.42148 0.58765 7.84132 1.16781C7.26116 1.74797 6.93523 2.53484 6.93523 3.35531V4.38651H3.84164C3.02117 4.38651 2.2343 4.71244 1.65414 5.2926C1.07398 5.87276 0.748047 6.65963 0.748047 7.4801V16.7609C0.748047 17.5814 1.07398 18.3682 1.65414 18.9484C2.2343 19.5285 3.02117 19.8545 3.84164 19.8545H18.2784C19.0989 19.8545 19.8857 19.5285 20.4659 18.9484C21.0461 18.3682 21.372 17.5814 21.372 16.7609V7.4801C21.372 6.65963 21.0461 5.87276 20.4659 5.2926C19.8857 4.71244 19.0989 4.38651 18.2784 4.38651ZM8.99763 3.35531C8.99763 3.08182 9.10627 2.81953 9.29966 2.62614C9.49304 2.43276 9.75533 2.32411 10.0288 2.32411H12.0912C12.3647 2.32411 12.627 2.43276 12.8204 2.62614C13.0138 2.81953 13.1224 3.08182 13.1224 3.35531V4.38651H8.99763V3.35531ZM19.3096 16.7609C19.3096 17.0344 19.201 17.2967 19.0076 17.49C18.8142 17.6834 18.5519 17.7921 18.2784 17.7921H3.84164C3.56815 17.7921 3.30586 17.6834 3.11247 17.49C2.91909 17.2967 2.81044 17.0344 2.81044 16.7609V11.0893C3.81632 11.4883 4.85034 11.8123 5.90403 12.0586V12.667C5.90403 12.9405 6.01268 13.2028 6.20607 13.3962C6.39945 13.5896 6.66174 13.6982 6.93523 13.6982C7.20872 13.6982 7.47101 13.5896 7.6644 13.3962C7.85778 13.2028 7.96643 12.9405 7.96643 12.667V12.4505C8.9918 12.5901 10.0252 12.6624 11.06 12.667C12.0948 12.6624 13.1282 12.5901 14.1536 12.4505V12.667C14.1536 12.9405 14.2623 13.2028 14.4556 13.3962C14.649 13.5896 14.9113 13.6982 15.1848 13.6982C15.4583 13.6982 15.7206 13.5896 15.914 13.3962C16.1074 13.2028 16.216 12.9405 16.216 12.667V12.0586C17.2697 11.8123 18.3037 11.4883 19.3096 11.0893V16.7609ZM19.3096 8.83097C18.3067 9.25427 17.2723 9.59904 16.216 9.86217V9.5425C16.216 9.26901 16.1074 9.00672 15.914 8.81333C15.7206 8.61994 15.4583 8.5113 15.1848 8.5113C14.9113 8.5113 14.649 8.61994 14.4556 8.81333C14.2623 9.00672 14.1536 9.26901 14.1536 9.5425V10.3056C12.1028 10.615 10.0172 10.615 7.96643 10.3056V9.5425C7.96643 9.26901 7.85778 9.00672 7.6644 8.81333C7.47101 8.61994 7.20872 8.5113 6.93523 8.5113C6.66174 8.5113 6.39945 8.61994 6.20607 8.81333C6.01268 9.00672 5.90403 9.26901 5.90403 9.5425V9.88279C4.8477 9.61966 3.81339 9.27489 2.81044 8.85159V7.4801C2.81044 7.20661 2.91909 6.94432 3.11247 6.75094C3.30586 6.55755 3.56815 6.4489 3.84164 6.4489H18.2784C18.5519 6.4489 18.8142 6.55755 19.0076 6.75094C19.201 6.94432 19.3096 7.20661 19.3096 7.4801V8.83097Z" fill="white"/>
</svg>
