<svg width="20" height="20" viewBox="0 0 20 20" fill="none" xmlns="http://www.w3.org/2000/svg">
<path d="M18.2487 15.4986H16.4154V12.7486C16.4154 12.5054 16.3188 12.2723 16.1469 12.1004C15.975 11.9285 15.7418 11.8319 15.4987 11.8319H10.9154V9.34773L11.9512 9.88856C12.1023 9.96758 12.2724 10.0029 12.4424 9.99058C12.6124 9.97825 12.7757 9.91875 12.9137 9.81876C13.0518 9.71878 13.1593 9.58226 13.224 9.42457C13.2888 9.26687 13.3083 9.09423 13.2804 8.92606L12.9137 6.75356L14.4904 5.20439C14.6098 5.08778 14.6951 4.94077 14.7371 4.77923C14.7791 4.61768 14.7762 4.44774 14.7287 4.28773C14.6756 4.12481 14.5778 3.98005 14.4466 3.86987C14.3153 3.75969 14.1559 3.68851 13.9862 3.66439L11.832 3.32523L10.8237 1.34523C10.7486 1.19024 10.6314 1.05954 10.4855 0.968085C10.3396 0.876631 10.1709 0.828125 9.9987 0.828125C9.8265 0.828125 9.65778 0.876631 9.51187 0.968085C9.36596 1.05954 9.24876 1.19024 9.1737 1.34523L8.16536 3.32523L5.97453 3.64606C5.80488 3.67017 5.64538 3.74136 5.51414 3.85154C5.38289 3.96172 5.28516 4.10648 5.23203 4.26939C5.18454 4.42941 5.18163 4.59935 5.22363 4.76089C5.26563 4.92244 5.35095 5.06944 5.47036 5.18606L7.0837 6.75356L6.71703 8.92606C6.68909 9.09423 6.70859 9.26687 6.77336 9.42457C6.83813 9.58226 6.94559 9.71878 7.08366 9.81876C7.22174 9.91875 7.38497 9.97825 7.555 9.99058C7.72504 10.0029 7.89514 9.96758 8.0462 9.88856L9.08203 9.34773V11.8319H4.4987C4.25558 11.8319 4.02243 11.9285 3.85052 12.1004C3.67861 12.2723 3.58203 12.5054 3.58203 12.7486V15.4986H1.7487C1.50558 15.4986 1.27242 15.5951 1.10052 15.767C0.928608 15.939 0.832031 16.1721 0.832031 16.4152V18.2486C0.832031 18.4917 0.928608 18.7248 1.10052 18.8967C1.27242 19.0687 1.50558 19.1652 1.7487 19.1652C1.99181 19.1652 2.22497 19.0687 2.39688 18.8967C2.56879 18.7248 2.66536 18.4917 2.66536 18.2486V17.3319H6.33203V18.2486C6.33203 18.4917 6.42861 18.7248 6.60052 18.8967C6.77243 19.0687 7.00558 19.1652 7.2487 19.1652C7.49181 19.1652 7.72497 19.0687 7.89688 18.8967C8.06879 18.7248 8.16536 18.4917 8.16536 18.2486V16.4152C8.16536 16.1721 8.06879 15.939 7.89688 15.767C7.72497 15.5951 7.49181 15.4986 7.2487 15.4986H5.41536V13.6652H14.582V15.4986H12.7487C12.5056 15.4986 12.2724 15.5951 12.1005 15.767C11.9286 15.939 11.832 16.1721 11.832 16.4152V18.2486C11.832 18.4917 11.9286 18.7248 12.1005 18.8967C12.2724 19.0687 12.5056 19.1652 12.7487 19.1652C12.9918 19.1652 13.225 19.0687 13.3969 18.8967C13.5688 18.7248 13.6654 18.4917 13.6654 18.2486V17.3319H17.332V18.2486C17.332 18.4917 17.4286 18.7248 17.6005 18.8967C17.7724 19.0687 18.0056 19.1652 18.2487 19.1652C18.4918 19.1652 18.725 19.0687 18.8969 18.8967C19.0688 18.7248 19.1654 18.4917 19.1654 18.2486V16.4152C19.1654 16.1721 19.0688 15.939 18.8969 15.767C18.725 15.5951 18.4918 15.4986 18.2487 15.4986ZM9.9987 6.90939C9.84824 6.91015 9.70027 6.94792 9.56786 7.01939L8.83453 7.40439L8.97203 6.57939C8.99608 6.43346 8.98447 6.28388 8.93818 6.14341C8.89189 6.00295 8.8123 5.87576 8.7062 5.77273L8.11036 5.18606L8.93536 5.06689C9.08296 5.04717 9.22353 4.9918 9.34491 4.90555C9.4663 4.8193 9.56485 4.70478 9.63203 4.57189L9.9987 3.82023L10.3654 4.57189C10.4325 4.70478 10.5311 4.8193 10.6525 4.90555C10.7739 4.9918 10.9144 5.04717 11.062 5.06689L11.887 5.18606L11.2912 5.77273C11.1851 5.87576 11.1055 6.00295 11.0592 6.14341C11.0129 6.28388 11.0013 6.43346 11.0254 6.57939L11.1629 7.40439L10.4295 7.01939C10.2971 6.94792 10.1492 6.91015 9.9987 6.90939Z" fill="white"/>
</svg>
