<svg width="18" height="18" viewBox="0 0 18 18" fill="none" xmlns="http://www.w3.org/2000/svg">
<path d="M14.8346 0.667969H3.16797C2.50493 0.667969 1.86904 0.931361 1.4002 1.4002C0.931361 1.86904 0.667969 2.50493 0.667969 3.16797V4.14297C0.667849 4.48709 0.738774 4.82753 0.876302 5.14297V5.19297C0.994035 5.46044 1.1608 5.70352 1.36797 5.90964L6.5013 11.0096V16.5013C6.50102 16.6429 6.53683 16.7823 6.60536 16.9062C6.67389 17.0301 6.77287 17.1346 6.89297 17.2096C7.02559 17.2918 7.17861 17.3351 7.33463 17.3346C7.46509 17.3339 7.59353 17.3025 7.70963 17.243L11.043 15.5763C11.1804 15.5071 11.296 15.4011 11.3769 15.2702C11.4578 15.1393 11.5008 14.9885 11.5013 14.8346V11.0096L16.6013 5.90964C16.8085 5.70352 16.9752 5.46044 17.093 5.19297V5.14297C17.242 4.82999 17.3243 4.48945 17.3346 4.14297V3.16797C17.3346 2.50493 17.0712 1.86904 16.6024 1.4002C16.1336 0.931361 15.4977 0.667969 14.8346 0.667969ZM10.0763 10.0763C9.99907 10.1542 9.93796 10.2465 9.89649 10.348C9.85502 10.4496 9.834 10.5583 9.83463 10.668V14.318L8.16797 15.1513V10.668C8.1686 10.5583 8.14758 10.4496 8.10611 10.348C8.06464 10.2465 8.00354 10.1542 7.9263 10.0763L3.50963 5.66797H14.493L10.0763 10.0763ZM15.668 4.0013H2.33464V3.16797C2.33464 2.94695 2.42243 2.73499 2.57871 2.57871C2.73499 2.42243 2.94695 2.33464 3.16797 2.33464H14.8346C15.0556 2.33464 15.2676 2.42243 15.4239 2.57871C15.5802 2.73499 15.668 2.94695 15.668 3.16797V4.0013Z" fill="white"/>
</svg>
