<svg width="14" height="18" viewBox="0 0 14 18" fill="none" xmlns="http://www.w3.org/2000/svg">
<path d="M4.4987 7.33463H5.33203C5.55304 7.33463 5.76501 7.24684 5.92129 7.09056C6.07757 6.93428 6.16536 6.72231 6.16536 6.5013C6.16536 6.28029 6.07757 6.06833 5.92129 5.91205C5.76501 5.75577 5.55304 5.66797 5.33203 5.66797H4.4987C4.27768 5.66797 4.06572 5.75577 3.90944 5.91205C3.75316 6.06833 3.66536 6.28029 3.66536 6.5013C3.66536 6.72231 3.75316 6.93428 3.90944 7.09056C4.06572 7.24684 4.27768 7.33463 4.4987 7.33463ZM4.4987 9.0013C4.27768 9.0013 4.06572 9.0891 3.90944 9.24538C3.75316 9.40166 3.66536 9.61362 3.66536 9.83463C3.66536 10.0556 3.75316 10.2676 3.90944 10.4239C4.06572 10.5802 4.27768 10.668 4.4987 10.668H9.4987C9.71971 10.668 9.93167 10.5802 10.088 10.4239C10.2442 10.2676 10.332 10.0556 10.332 9.83463C10.332 9.61362 10.2442 9.40166 10.088 9.24538C9.93167 9.0891 9.71971 9.0013 9.4987 9.0013H4.4987ZM13.6654 6.4513C13.6567 6.37475 13.6399 6.29933 13.6154 6.2263V6.1513C13.5753 6.06562 13.5218 5.98686 13.457 5.91797L8.45703 0.917969C8.38814 0.853149 8.30938 0.799703 8.2237 0.759635C8.19882 0.756102 8.17357 0.756102 8.1487 0.759635C8.06404 0.711086 7.97055 0.679922 7.8737 0.667969H2.83203C2.16899 0.667969 1.53311 0.931361 1.06426 1.4002C0.595423 1.86904 0.332031 2.50493 0.332031 3.16797V14.8346C0.332031 15.4977 0.595423 16.1336 1.06426 16.6024C1.53311 17.0712 2.16899 17.3346 2.83203 17.3346H11.1654C11.8284 17.3346 12.4643 17.0712 12.9331 16.6024C13.402 16.1336 13.6654 15.4977 13.6654 14.8346V6.5013C13.6654 6.5013 13.6654 6.5013 13.6654 6.4513ZM8.66536 3.50963L10.8237 5.66797H9.4987C9.27768 5.66797 9.06572 5.58017 8.90944 5.42389C8.75316 5.26761 8.66536 5.05565 8.66536 4.83463V3.50963ZM11.9987 14.8346C11.9987 15.0556 11.9109 15.2676 11.7546 15.4239C11.5983 15.5802 11.3864 15.668 11.1654 15.668H2.83203C2.61102 15.668 2.39906 15.5802 2.24278 15.4239C2.0865 15.2676 1.9987 15.0556 1.9987 14.8346V3.16797C1.9987 2.94695 2.0865 2.73499 2.24278 2.57871C2.39906 2.42243 2.61102 2.33464 2.83203 2.33464H6.9987V4.83463C6.9987 5.49768 7.26209 6.13356 7.73093 6.6024C8.19977 7.07124 8.83566 7.33463 9.4987 7.33463H11.9987V14.8346ZM9.4987 12.3346H4.4987C4.27768 12.3346 4.06572 12.4224 3.90944 12.5787C3.75316 12.735 3.66536 12.947 3.66536 13.168C3.66536 13.389 3.75316 13.6009 3.90944 13.7572C4.06572 13.9135 4.27768 14.0013 4.4987 14.0013H9.4987C9.71971 14.0013 9.93167 13.9135 10.088 13.7572C10.2442 13.6009 10.332 13.389 10.332 13.168C10.332 12.947 10.2442 12.735 10.088 12.5787C9.93167 12.4224 9.71971 12.3346 9.4987 12.3346Z" fill="white"/>
</svg>
