<svg width="18" height="18" viewBox="0 0 18 18" fill="none" xmlns="http://www.w3.org/2000/svg">
<path d="M16.1744 14.9935C16.6967 14.2935 17.0551 13.4851 17.2232 12.6281C17.3912 11.771 17.3647 10.8871 17.1456 10.0417C16.9264 9.19625 16.5202 8.41081 15.9569 7.74333C15.3936 7.07586 14.6877 6.54338 13.8911 6.18521C13.7176 5.18696 13.3188 4.24139 12.7251 3.42035C12.1314 2.59931 11.3584 1.9244 10.4647 1.4469C9.57108 0.969402 8.58035 0.701878 7.56782 0.664657C6.55529 0.627435 5.5476 0.821496 4.62131 1.23209C3.69502 1.64269 2.8745 2.25902 2.22211 3.03425C1.56971 3.80948 1.1026 4.72322 0.856271 5.70604C0.609941 6.68885 0.59087 7.71489 0.800507 8.70618C1.01014 9.69747 1.44297 10.6279 2.06611 11.4269L0.907776 12.5769C0.792145 12.6941 0.713815 12.8429 0.68267 13.0045C0.651525 13.1662 0.66896 13.3334 0.732776 13.4852C0.795293 13.6374 0.901458 13.7677 1.03789 13.8596C1.17433 13.9516 1.33492 14.0011 1.49944 14.0019H6.24111C6.71332 14.9974 7.45781 15.8388 8.3884 16.4287C9.31899 17.0186 10.3976 17.3329 11.4994 17.3352H16.4994C16.664 17.3344 16.8246 17.2849 16.961 17.1929C17.0974 17.101 17.2036 16.9707 17.2661 16.8185C17.3299 16.6668 17.3474 16.4995 17.3162 16.3379C17.2851 16.1762 17.2067 16.0274 17.0911 15.9102L16.1744 14.9935ZM5.66611 11.5019C5.66725 11.7809 5.68954 12.0595 5.73278 12.3352H3.50778L3.79944 12.0519C3.87755 11.9744 3.93955 11.8822 3.98185 11.7807C4.02416 11.6791 4.04594 11.5702 4.04594 11.4602C4.04594 11.3502 4.02416 11.2413 3.98185 11.1397C3.93955 11.0382 3.87755 10.946 3.79944 10.8685C3.33241 10.4066 2.96215 9.85624 2.71032 9.24956C2.45849 8.64288 2.33014 7.99208 2.33278 7.33521C2.33278 6.00913 2.85956 4.73736 3.79724 3.79967C4.73492 2.86199 6.00669 2.33521 7.33278 2.33521C8.36751 2.32899 9.37818 2.6472 10.2227 3.2451C11.0673 3.84299 11.7032 4.69052 12.0411 5.66854C11.8578 5.66854 11.6828 5.66854 11.4994 5.66854C9.95235 5.66854 8.46862 6.28312 7.37465 7.37709C6.28069 8.47105 5.66611 9.95478 5.66611 11.5019ZM14.4494 15.6685L14.4911 15.7102H11.4994C10.5356 15.7085 9.60208 15.3726 8.85804 14.7599C8.114 14.1471 7.60542 13.2953 7.41894 12.3497C7.23246 11.404 7.37962 10.4229 7.83534 9.57356C8.29106 8.72421 9.02716 8.05913 9.91824 7.69163C10.8093 7.32412 11.8002 7.27692 12.7222 7.55807C13.6442 7.83921 14.4402 8.43131 14.9746 9.2335C15.509 10.0357 15.7487 10.9983 15.6529 11.9575C15.5572 12.9166 15.1319 13.8128 14.4494 14.4935C14.2924 14.6474 14.2026 14.8571 14.1994 15.0769C14.1999 15.1871 14.2222 15.2962 14.2651 15.3978C14.3081 15.4993 14.3707 15.5914 14.4494 15.6685Z" fill="white"/>
</svg>
