<svg width="31" height="32" viewBox="0 0 31 32" fill="none" xmlns="http://www.w3.org/2000/svg">
<path d="M18.9961 13.5938C18.9961 11.3846 20.787 9.59375 22.9961 9.59375H23.9961C26.2052 9.59375 27.9961 11.3846 27.9961 13.5938V27.9935C27.9961 30.2026 26.2052 31.9935 23.9961 31.9935H22.9961C20.787 31.9935 18.9961 30.2026 18.9961 27.9935V13.5938Z" fill="#BBD1DC"/>
<path d="M2.99609 7.87306C2.99609 6.06086 4.21444 4.47506 5.96545 4.00812L15.9655 1.34149C18.5048 0.664326 20.9961 2.57831 20.9961 5.20643V27.9996C20.9961 30.2088 19.2052 31.9996 16.9961 31.9996H6.99609C4.78696 31.9996 2.99609 30.2088 2.99609 27.9996V7.87306Z" fill="#548CA8"/>
<path fill-rule="evenodd" clip-rule="evenodd" d="M9 24.0062C9 23.1226 9.67157 22.4062 10.5 22.4062H13.5C14.3284 22.4062 15 23.1226 15 24.0062C15 24.8899 14.3284 25.6062 13.5 25.6062H10.5C9.67157 25.6062 9 24.8899 9 24.0062Z" fill="#BBD1DC"/>
<path fill-rule="evenodd" clip-rule="evenodd" d="M9 17.6C9 16.7163 9.67157 16 10.5 16H13.5C14.3284 16 15 16.7163 15 17.6C15 18.4836 14.3284 19.2 13.5 19.2H10.5C9.67157 19.2 9 18.4836 9 17.6Z" fill="#BBD1DC"/>
<path fill-rule="evenodd" clip-rule="evenodd" d="M9 11.1937C9 10.3101 9.67157 9.59375 10.5 9.59375H13.5C14.3284 9.59375 15 10.3101 15 11.1937C15 12.0774 14.3284 12.7937 13.5 12.7937H10.5C9.67157 12.7937 9 12.0774 9 11.1937Z" fill="#BBD1DC"/>
<path fill-rule="evenodd" clip-rule="evenodd" d="M0 30.5C0 29.6716 0.682766 29 1.525 29H28.975C29.8172 29 30.5 29.6716 30.5 30.5C30.5 31.3284 29.8172 32 28.975 32H1.525C0.682766 32 0 31.3284 0 30.5Z" fill="#548CA8"/>
</svg>
