<svg width="17" height="17" viewBox="0 0 17 17" fill="none" xmlns="http://www.w3.org/2000/svg">
<path opacity="0.56" d="M15.7591 14.6513L12.7959 11.7068C13.9462 10.2701 14.5032 8.44645 14.3525 6.61093C14.2018 4.7754 13.3548 3.06749 11.9857 1.83836C10.6166 0.609233 8.82943 -0.04768 6.9917 0.00269725C5.15398 0.0530745 3.40537 0.806912 2.10541 2.10921C0.805462 3.4115 0.0529791 5.16326 0.0026924 7.00429C-0.0475943 8.84533 0.608138 10.6357 1.83506 12.0073C3.06197 13.3788 4.76682 14.2273 6.59904 14.3783C8.43127 14.5293 10.2516 13.9713 11.6857 12.819L14.625 15.7635C14.697 15.8418 14.784 15.9049 14.8807 15.9489C14.9775 15.9929 15.0821 16.017 15.1884 16.0197C15.2946 16.0225 15.4004 16.0038 15.4993 15.9649C15.5982 15.926 15.6883 15.8675 15.7643 15.793C15.8402 15.7185 15.9005 15.6295 15.9414 15.5313C15.9824 15.433 16.0033 15.3276 16.0028 15.2211C16.0023 15.1146 15.9805 15.0093 15.9387 14.9114C15.8968 14.8136 15.8357 14.7251 15.7591 14.6513ZM7.20502 12.819C6.09924 12.819 5.01829 12.4905 4.09887 11.875C3.17945 11.2596 2.46285 10.3848 2.03968 9.3614C1.61652 8.33795 1.5058 7.21178 1.72153 6.1253C1.93725 5.03881 2.46974 4.04081 3.25164 3.2575C4.03355 2.47418 5.02975 1.94074 6.11429 1.72463C7.19882 1.50851 8.32297 1.61943 9.34457 2.04336C10.3662 2.46728 11.2394 3.18517 11.8537 4.10625C12.468 5.02733 12.7959 6.11022 12.7959 7.21799C12.7959 8.70347 12.2069 10.1281 11.1584 11.1785C10.1099 12.2289 8.68782 12.819 7.20502 12.819Z" fill="#164B7A" fill-opacity="0.64"/>
</svg>
