<svg width="16" height="16" viewBox="0 0 16 16" fill="none" xmlns="http://www.w3.org/2000/svg">
<path d="M14.6706 5.85309L3.47123 0.251487C3.02925 0.0314315 2.53017 -0.0469099 2.04205 0.0271443C1.55393 0.101198 1.10052 0.324044 0.743641 0.665298C0.386758 1.00655 0.143771 1.44961 0.0478083 1.93406C-0.0481545 2.41851 0.00757734 2.92077 0.207405 3.37238L2.1273 7.66961C2.17086 7.77351 2.1933 7.88504 2.1933 7.99771C2.1933 8.11037 2.17086 8.22191 2.1273 8.3258L0.207405 12.623C0.0447743 12.9885 -0.0239775 13.3888 0.00739795 13.7877C0.0387734 14.1865 0.169281 14.5711 0.387061 14.9067C0.604841 15.2422 0.902988 15.5179 1.25441 15.7089C1.60583 15.8998 1.99937 15.9999 2.39929 16C2.77385 15.9963 3.14284 15.9088 3.47923 15.7439L14.6786 10.1423C15.0759 9.94241 15.4098 9.63602 15.6431 9.25733C15.8764 8.87864 16 8.44255 16 7.99771C16 7.55287 15.8764 7.11677 15.6431 6.73808C15.4098 6.35939 15.0759 6.053 14.6786 5.85309H14.6706ZM13.9587 8.70991L2.75927 14.3115C2.6122 14.3822 2.44707 14.4061 2.286 14.3802C2.12493 14.3543 1.97564 14.2798 1.85813 14.1666C1.74062 14.0534 1.66051 13.9069 1.62855 13.7469C1.59659 13.5869 1.61431 13.4209 1.67933 13.2712L3.59122 8.97399C3.61597 8.9166 3.63734 8.85782 3.65522 8.79794H9.16692C9.37908 8.79794 9.58255 8.71363 9.73257 8.56355C9.88259 8.41348 9.96687 8.20994 9.96687 7.99771C9.96687 7.78547 9.88259 7.58193 9.73257 7.43186C9.58255 7.28179 9.37908 7.19748 9.16692 7.19748L3.65522 7.19748C3.63734 7.13759 3.61597 7.07881 3.59122 7.02143L1.67933 2.7242C1.61431 2.57452 1.59659 2.40854 1.62855 2.24851C1.66051 2.08848 1.74062 1.94205 1.85813 1.82886C1.97564 1.71566 2.12493 1.64111 2.286 1.6152C2.44707 1.58929 2.6122 1.61326 2.75927 1.6839L13.9587 7.2855C14.0897 7.35266 14.1997 7.45468 14.2764 7.58034C14.3532 7.70601 14.3939 7.85043 14.3939 7.99771C14.3939 8.14499 14.3532 8.28941 14.2764 8.41507C14.1997 8.54073 14.0897 8.64276 13.9587 8.70991Z" fill="white"/>
</svg>
