<svg width="24" height="22" viewBox="0 0 24 22" fill="none" xmlns="http://www.w3.org/2000/svg">
<path d="M20.4 3.6H16.8V2.4C16.8 1.76348 16.5471 1.15303 16.0971 0.702944C15.647 0.252856 15.0365 0 14.4 0H9.6C8.96348 0 8.35303 0.252856 7.90294 0.702944C7.45286 1.15303 7.2 1.76348 7.2 2.4V3.6H3.6C2.64522 3.6 1.72955 3.97928 1.05442 4.65442C0.379285 5.32955 0 6.24522 0 7.2V18C0 18.9548 0.379285 19.8705 1.05442 20.5456C1.72955 21.2207 2.64522 21.6 3.6 21.6H20.4C21.3548 21.6 22.2705 21.2207 22.9456 20.5456C23.6207 19.8705 24 18.9548 24 18V7.2C24 6.24522 23.6207 5.32955 22.9456 4.65442C22.2705 3.97928 21.3548 3.6 20.4 3.6ZM9.6 2.4H14.4V3.6H9.6V2.4ZM21.6 18C21.6 18.3183 21.4736 18.6235 21.2485 18.8485C21.0235 19.0736 20.7183 19.2 20.4 19.2H3.6C3.28174 19.2 2.97652 19.0736 2.75147 18.8485C2.52643 18.6235 2.4 18.3183 2.4 18V11.268L8.016 13.2C8.14342 13.2173 8.27258 13.2173 8.4 13.2H15.6C15.7301 13.1976 15.8593 13.1774 15.984 13.14L21.6 11.268V18ZM21.6 8.736L15.408 10.8H8.592L2.4 8.736V7.2C2.4 6.88174 2.52643 6.57652 2.75147 6.35147C2.97652 6.12643 3.28174 6 3.6 6H20.4C20.7183 6 21.0235 6.12643 21.2485 6.35147C21.4736 6.57652 21.6 6.88174 21.6 7.2V8.736Z" fill="#548ca8"/>
</svg>
