<svg width="16" height="16" viewBox="0 0 16 16" fill="none" xmlns="http://www.w3.org/2000/svg">
<path d="M10.4785 8.50703L8.8 7.53828V4C8.8 3.78783 8.71572 3.58434 8.56569 3.43431C8.41566 3.28428 8.21217 3.2 8 3.2C7.78783 3.2 7.58434 3.28428 7.43432 3.43431C7.28429 3.58434 7.2 3.78783 7.2 4V8C7.19996 8.14045 7.23691 8.27845 7.30713 8.40009C7.37735 8.52174 7.47836 8.62275 7.6 8.69297L9.67851 9.89297C9.76952 9.94556 9.86999 9.9797 9.9742 9.99345C10.0784 10.0072 10.1843 10.0003 10.2858 9.9731C10.3874 9.94591 10.4825 9.89899 10.5659 9.835C10.6493 9.77102 10.7193 9.69123 10.7718 9.6002C10.8244 9.50917 10.8585 9.40868 10.8722 9.30447C10.8859 9.20025 10.8789 9.09436 10.8517 8.99284C10.8244 8.89133 10.7774 8.79617 10.7134 8.71281C10.6494 8.62946 10.5696 8.55953 10.4785 8.50703ZM8 0C6.41775 0 4.87103 0.469192 3.55544 1.34824C2.23985 2.22729 1.21447 3.47672 0.608967 4.93853C0.00346627 6.40034 -0.15496 8.00887 0.153721 9.56072C0.462403 11.1126 1.22433 12.538 2.34315 13.6569C3.46197 14.7757 4.88743 15.5376 6.43928 15.8463C7.99113 16.155 9.59966 15.9965 11.0615 15.391C12.5233 14.7855 13.7727 13.7602 14.6518 12.4446C15.5308 11.129 16 9.58225 16 8C15.9976 5.87899 15.154 3.84553 13.6542 2.34575C12.1545 0.845971 10.121 0.00235886 8 0ZM8 14.4C6.7342 14.4 5.49683 14.0246 4.44435 13.3214C3.39188 12.6182 2.57157 11.6186 2.08717 10.4492C1.60277 9.27972 1.47603 7.9929 1.72298 6.75142C1.96992 5.50994 2.57946 4.36957 3.47452 3.47452C4.36957 2.57946 5.50995 1.96992 6.75142 1.72297C7.9929 1.47603 9.27973 1.60277 10.4492 2.08717C11.6186 2.57157 12.6182 3.39187 13.3214 4.44435C14.0246 5.49682 14.4 6.7342 14.4 8C14.3981 9.69679 13.7231 11.3235 12.5233 12.5233C11.3235 13.7231 9.69679 14.3981 8 14.4Z" fill="#0E101A" fill-opacity="0.64"/>
</svg>
