<svg width="16" height="16" viewBox="0 0 16 16" fill="none" xmlns="http://www.w3.org/2000/svg">
<path d="M10.9105 8.56746C11.6944 7.95074 12.2665 7.10504 12.5474 6.14801C12.8282 5.19097 12.8038 4.1702 12.4775 3.22771C12.1511 2.28521 11.5392 1.46786 10.7267 0.889368C9.91422 0.310873 8.94163 0 7.94424 0C6.94686 0 5.97427 0.310873 5.16179 0.889368C4.34931 1.46786 3.73735 2.28521 3.41103 3.22771C3.08471 4.1702 3.06027 5.19097 3.34111 6.14801C3.62194 7.10504 4.19409 7.95074 4.97795 8.56746C3.63479 9.10558 2.46283 9.99811 1.58702 11.1499C0.711214 12.3017 0.164381 13.6696 0.00482269 15.1077C-0.00672697 15.2127 0.00251725 15.3189 0.0320273 15.4204C0.0615374 15.5218 0.110735 15.6164 0.176813 15.6988C0.310262 15.8652 0.504361 15.9718 0.716412 15.9952C0.928463 16.0185 1.1411 15.9566 1.30753 15.8232C1.47397 15.6897 1.58057 15.4956 1.6039 15.2836C1.77947 13.7206 2.52472 12.2772 3.69727 11.229C4.86982 10.1807 6.38746 9.60128 7.96024 9.60128C9.53301 9.60128 11.0507 10.1807 12.2232 11.229C13.3958 12.2772 14.141 13.7206 14.3166 15.2836C14.3383 15.48 14.432 15.6615 14.5797 15.7929C14.7274 15.9243 14.9184 15.9964 15.1161 15.9952H15.2041C15.4136 15.9711 15.6052 15.8651 15.737 15.7003C15.8688 15.5356 15.9301 15.3254 15.9077 15.1157C15.7473 13.6735 15.1976 12.3021 14.3172 11.1485C13.4369 9.99497 12.2593 9.10273 10.9105 8.56746ZM7.94424 7.99978C7.31171 7.99978 6.69338 7.81222 6.16744 7.4608C5.64151 7.10938 5.23159 6.6099 4.98953 6.02551C4.74747 5.44112 4.68414 4.79808 4.80754 4.1777C4.93094 3.55732 5.23554 2.98746 5.68281 2.54019C6.13008 2.09292 6.69993 1.78833 7.32032 1.66492C7.9407 1.54152 8.58374 1.60486 9.16813 1.84692C9.75251 2.08898 10.252 2.49889 10.6034 3.02483C10.9548 3.55076 11.1424 4.16909 11.1424 4.80163C11.1424 5.64983 10.8055 6.4633 10.2057 7.06307C9.60591 7.66284 8.79245 7.99978 7.94424 7.99978Z" fill="#548CA8"/>
</svg>
