<svg width="18" height="18" viewBox="0 0 18 18" fill="none" xmlns="http://www.w3.org/2000/svg">
<path opacity="0.64" d="M12.0924 9.59364C12.9094 8.95086 13.5057 8.06941 13.7984 7.07193C14.0911 6.07445 14.0657 5.01053 13.7256 4.0282C13.3854 3.04587 12.7476 2.19397 11.9008 1.59102C11.054 0.988075 10.0403 0.664063 9.00073 0.664062C7.96119 0.664062 6.94749 0.988075 6.10067 1.59102C5.25385 2.19397 4.61602 3.04587 4.27591 4.0282C3.9358 5.01053 3.91032 6.07445 4.20303 7.07193C4.49574 8.06941 5.09207 8.95086 5.90906 9.59364C4.50913 10.1545 3.28764 11.0848 2.37481 12.2852C1.46198 13.4857 0.892032 14.9114 0.72573 16.4103C0.713692 16.5197 0.723327 16.6305 0.754084 16.7362C0.784842 16.8419 0.836119 16.9405 0.904989 17.0264C1.04408 17.1999 1.24638 17.311 1.4674 17.3353C1.68841 17.3596 1.91003 17.2951 2.0835 17.1561C2.25697 17.017 2.36809 16.8147 2.3924 16.5936C2.57538 14.9646 3.35214 13.4602 4.57425 12.3676C5.79636 11.2751 7.37815 10.6712 9.0174 10.6712C10.6566 10.6712 12.2384 11.2751 13.4605 12.3676C14.6827 13.4602 15.4594 14.9646 15.6424 16.5936C15.6651 16.7984 15.7628 16.9875 15.9167 17.1245C16.0705 17.2615 16.2697 17.3366 16.4757 17.3353H16.5674C16.7858 17.3102 16.9855 17.1997 17.1229 17.028C17.2602 16.8563 17.3242 16.6373 17.3007 16.4186C17.1336 14.9155 16.5606 13.4861 15.6431 12.2838C14.7256 11.0815 13.4982 10.1515 12.0924 9.59364ZM9.00073 9.00198C8.34146 9.00198 7.69699 8.80648 7.14883 8.44021C6.60067 8.07394 6.17342 7.55334 5.92113 6.94425C5.66884 6.33517 5.60283 5.66495 5.73145 5.01834C5.86006 4.37174 6.17753 3.7778 6.64371 3.31162C7.10988 2.84544 7.70383 2.52798 8.35043 2.39936C8.99703 2.27074 9.66726 2.33675 10.2763 2.58904C10.8854 2.84134 11.406 3.26858 11.7723 3.81674C12.1386 4.36491 12.3341 5.00937 12.3341 5.66864C12.3341 6.5527 11.9829 7.40054 11.3578 8.02567C10.7326 8.65079 9.88479 9.00198 9.00073 9.00198Z" fill="#6E7377"/>
</svg>
