<svg width="53" height="65" viewBox="0 0 53 65" fill="none" xmlns="http://www.w3.org/2000/svg">
<path d="M29.4276 47.6484L22.7322 52.6309L21.4863 58.3934L30.3618 51.6969L29.4276 47.6484Z" fill="#A6BACC"/>
<path d="M30.8301 53.8828L22.7324 60.1111L26.7809 64.0041H26.9362C26.9362 64.0041 27.0915 64.0041 27.0915 63.8487L31.7634 58.8651C31.7634 58.8651 31.9187 58.7098 31.7634 58.5534L30.8301 53.8828Z" fill="#A6BACC"/>
<path d="M25.0678 42.0472L23.3548 49.5215L28.8056 45.3168L28.0268 42.0461L30.3621 39.2437C30.3621 39.0884 30.5175 39.0884 30.3621 38.932L28.9609 35.1944C28.9609 35.0391 28.8056 35.0391 28.6492 35.0391H24.289C24.1337 35.0391 24.1337 35.0391 23.9772 35.1944L22.7324 38.9331V39.2448L25.0678 42.0472Z" fill="#A6BACC"/>
<path d="M26.6298 0C17.9098 0 10.7461 7.16257 10.7461 15.8826C10.7461 24.6027 17.9098 31.7664 26.6298 31.7664C35.3499 31.7664 42.5136 24.6027 42.5136 15.8826C42.5125 7.16257 35.3499 0 26.6298 0ZM38.6194 15.8826C38.6194 22.4229 33.1687 27.8733 26.6287 27.8733C20.0885 27.8733 14.638 22.4226 14.638 15.8826C14.638 14.9485 14.7933 13.8579 14.9497 12.9237C16.351 13.5461 18.8427 14.6366 21.8017 14.6366C23.8264 14.6366 26.1619 14.1696 28.3419 12.6119C28.6537 12.4566 33.949 8.56349 38.1526 12.4566C38.4643 13.5472 38.6197 14.6366 38.6197 15.8825L38.6194 15.8826Z" fill="#6E7377"/>
<path d="M52.32 52.0134L52.4753 47.8087C52.4753 40.8015 46.8694 35.0391 39.8623 35.0391H39.5505L33.3223 62.6018C40.6411 61.2006 47.3375 57.3076 52.32 52.0134ZM46.8703 47.6532H40.9527V45.7849H46.8703V47.6532Z" fill="#6E7377"/>
<path d="M20.0874 62.9135L13.2355 35.1953H12.6131C5.60593 35.1953 0 40.8012 0 47.9649L0.155329 52.6368C5.44954 57.931 12.3015 61.6677 20.0875 62.9135H20.0874Z" fill="#6E7377"/>
</svg>
