<svg width="32" height="25" viewBox="0 0 32 25" fill="none" xmlns="http://www.w3.org/2000/svg">
<path d="M16.4587 12.373C17.2359 11.7177 17.8592 10.9071 18.2865 9.99635C18.7137 9.0856 18.9348 8.09597 18.9348 7.09462C18.9348 5.21301 18.1675 3.40846 16.8018 2.07797C15.436 0.747467 13.5837 2.53861e-07 11.6522 2.53861e-07C9.72072 2.53861e-07 7.86835 0.747467 6.5026 2.07797C5.13684 3.40846 4.36957 5.21301 4.36957 7.09462C4.36956 8.09597 4.59067 9.0856 5.01791 9.99635C5.44514 10.9071 6.06849 11.7177 6.84566 12.373C4.80673 13.2724 3.07685 14.7249 1.86286 16.5568C0.648874 18.3886 0.00214379 20.5223 0 22.7028C0 23.0791 0.153455 23.44 0.426606 23.7061C0.699757 23.9722 1.07023 24.1217 1.45652 24.1217C1.84282 24.1217 2.21329 23.9722 2.48644 23.7061C2.75959 23.44 2.91305 23.0791 2.91305 22.7028C2.91305 20.4448 3.83377 18.2794 5.47268 16.6828C7.11159 15.0862 9.33442 14.1892 11.6522 14.1892C13.9699 14.1892 16.1928 15.0862 17.8317 16.6828C19.4706 18.2794 20.3913 20.4448 20.3913 22.7028C20.3913 23.0791 20.5448 23.44 20.8179 23.7061C21.0911 23.9722 21.4616 24.1217 21.8478 24.1217C22.2341 24.1217 22.6046 23.9722 22.8778 23.7061C23.1509 23.44 23.3044 23.0791 23.3044 22.7028C23.3022 20.5223 22.6555 18.3886 21.4415 16.5568C20.2275 14.7249 18.4976 13.2724 16.4587 12.373ZM11.6522 11.3514C10.788 11.3514 9.94316 11.1017 9.22458 10.634C8.50601 10.1663 7.94595 9.50144 7.61523 8.72361C7.28451 7.94579 7.19798 7.0899 7.36658 6.26416C7.53518 5.43843 7.95134 4.67995 8.56243 4.08463C9.17353 3.48931 9.95211 3.08389 10.7997 2.91964C11.6473 2.75539 12.5259 2.83969 13.3243 3.16188C14.1228 3.48406 14.8052 4.02966 15.2853 4.72968C15.7655 5.42971 16.0218 6.25271 16.0218 7.09462C16.0218 8.22358 15.5614 9.30631 14.7419 10.1046C13.9225 10.9029 12.8111 11.3514 11.6522 11.3514ZM25.8387 11.8054C26.7708 10.7829 27.3797 9.51964 27.5921 8.16781C27.8044 6.81598 27.6112 5.43316 27.0356 4.18582C26.4601 2.93849 25.5267 1.87978 24.3479 1.13716C23.1691 0.394532 21.7951 -0.000365515 20.3913 2.53861e-07C20.005 2.53861e-07 19.6346 0.149494 19.3614 0.415593C19.0883 0.681693 18.9348 1.0426 18.9348 1.41892C18.9348 1.79525 19.0883 2.15615 19.3614 2.42225C19.6346 2.68835 20.005 2.83785 20.3913 2.83785C21.5502 2.83785 22.6616 3.28633 23.4811 4.08463C24.3005 4.88293 24.7609 5.96565 24.7609 7.09462C24.7588 7.83989 24.556 8.57158 24.1726 9.21651C23.7891 9.86143 23.2386 10.397 22.5761 10.7696C22.3602 10.891 22.1798 11.0643 22.0523 11.273C21.9248 11.4817 21.8544 11.7188 21.8478 11.9615C21.8418 12.2024 21.8987 12.4408 22.0134 12.6543C22.1281 12.8678 22.2967 13.0493 22.5033 13.1818L23.0713 13.5507L23.2607 13.65C25.0164 14.4613 26.4975 15.7444 27.5297 17.3482C28.5619 18.9521 29.1021 20.8098 29.0868 22.7028C29.0868 23.0791 29.2402 23.44 29.5134 23.7061C29.7865 23.9722 30.157 24.1217 30.5433 24.1217C30.9296 24.1217 31.3001 23.9722 31.5732 23.7061C31.8464 23.44 31.9998 23.0791 31.9998 22.7028C32.0117 20.5253 31.4519 18.3811 30.3736 16.4738C29.2952 14.5665 27.7342 12.9595 25.8387 11.8054Z" fill="#548CA8"/>
</svg>
