<svg width="16" height="16" viewBox="0 0 16 16" fill="none" xmlns="http://www.w3.org/2000/svg">
<path d="M4.81576 7.19968C4.65776 7.19968 4.50331 7.2466 4.37193 7.3345C4.24056 7.4224 4.13816 7.54734 4.0777 7.69351C4.01723 7.83969 4.00141 8.00053 4.03224 8.15571C4.06306 8.31089 4.13915 8.45343 4.25087 8.56531C4.3626 8.67718 4.50494 8.75337 4.65991 8.78424C4.81488 8.81511 4.9755 8.79926 5.12148 8.73872C5.26745 8.67817 5.39222 8.57564 5.48 8.44408C5.56778 8.31253 5.61464 8.15786 5.61464 7.99965C5.61464 7.78748 5.53047 7.58401 5.38065 7.43399C5.23083 7.28396 5.02764 7.19968 4.81576 7.19968V7.19968ZM8.01126 7.19968C7.85326 7.19968 7.6988 7.2466 7.56743 7.3345C7.43605 7.4224 7.33366 7.54734 7.2732 7.69351C7.21273 7.83969 7.19691 8.00053 7.22774 8.15571C7.25856 8.31089 7.33465 8.45343 7.44637 8.56531C7.55809 8.67718 7.70044 8.75337 7.85541 8.78424C8.01037 8.81511 8.171 8.79926 8.31698 8.73872C8.46295 8.67817 8.58772 8.57564 8.6755 8.44408C8.76328 8.31253 8.81013 8.15786 8.81013 7.99965C8.81013 7.78748 8.72597 7.58401 8.57615 7.43399C8.42633 7.28396 8.22313 7.19968 8.01126 7.19968ZM11.2068 7.19968C11.0488 7.19968 10.8943 7.2466 10.7629 7.3345C10.6316 7.4224 10.5292 7.54734 10.4687 7.69351C10.4082 7.83969 10.3924 8.00053 10.4232 8.15571C10.4541 8.31089 10.5301 8.45343 10.6419 8.56531C10.7536 8.67718 10.8959 8.75337 11.0509 8.78424C11.2059 8.81511 11.3665 8.79926 11.5125 8.73872C11.6584 8.67817 11.7832 8.57564 11.871 8.44408C11.9588 8.31253 12.0056 8.15786 12.0056 7.99965C12.0056 7.78748 11.9215 7.58401 11.7716 7.43399C11.6218 7.28396 11.4186 7.19968 11.2068 7.19968ZM8.01126 0C6.96216 0 5.92334 0.206917 4.9541 0.608937C3.98486 1.01096 3.10419 1.60021 2.36237 2.34304C0.864186 3.84327 0.0225174 5.87801 0.0225174 7.99965C0.0155335 9.84687 0.654261 11.6383 1.82797 13.0634L0.230225 14.6634C0.119375 14.7758 0.0442836 14.9187 0.0144264 15.0739C-0.0154309 15.2291 0.00128371 15.3896 0.062461 15.5353C0.128814 15.6792 0.236379 15.8002 0.371503 15.8828C0.506627 15.9654 0.663215 16.006 0.821391 15.9993H8.01126C10.13 15.9993 12.162 15.1565 13.6602 13.6563C15.1583 12.156 16 10.1213 16 7.99965C16 5.87801 15.1583 3.84327 13.6602 2.34304C12.162 0.842817 10.13 0 8.01126 0V0ZM8.01126 14.3994H2.74668L3.48963 13.6554C3.56512 13.5813 3.62517 13.493 3.66631 13.3955C3.70745 13.298 3.72885 13.1933 3.72929 13.0874C3.72629 12.8764 3.64015 12.6751 3.48963 12.5274C2.44357 11.4811 1.79216 10.104 1.64638 8.63065C1.5006 7.15732 1.86947 5.67895 2.69014 4.44742C3.51081 3.21589 4.73251 2.30738 6.1471 1.8767C7.56168 1.44601 9.08164 1.51978 10.448 2.08544C11.8144 2.6511 12.9426 3.67366 13.6405 4.97889C14.3384 6.28413 14.5627 7.79129 14.2753 9.2436C13.9879 10.6959 13.2066 12.0035 12.0644 12.9436C10.9222 13.8837 9.48979 14.3982 8.01126 14.3994V14.3994Z" fill="#548CA8"/>
</svg>
