<svg width="12" height="10" viewBox="0 0 12 10" fill="none" xmlns="http://www.w3.org/2000/svg">
<path d="M11.9368 4.68288C11.8967 4.58068 11.8365 4.4873 11.7598 4.40811L7.54655 0.244875C7.46798 0.16724 7.37471 0.105657 7.27206 0.0636411C7.1694 0.0216254 7.05938 0 6.94827 0C6.72387 0 6.50866 0.0880841 6.34998 0.244875C6.27141 0.322509 6.20909 0.414675 6.16657 0.51611C6.12405 0.617545 6.10216 0.726262 6.10216 0.836054C6.10216 1.05779 6.19131 1.27044 6.34998 1.42723L9.13075 4.16664H0.842656C0.61917 4.16664 0.404837 4.25437 0.246809 4.41052C0.0887801 4.56667 0 4.77846 0 4.99929C0 5.22012 0.0887801 5.43191 0.246809 5.58806C0.404837 5.74421 0.61917 5.83194 0.842656 5.83194H9.13075L6.34998 8.57135C6.271 8.64875 6.20831 8.74084 6.16553 8.84231C6.12275 8.94377 6.10072 9.05261 6.10072 9.16253C6.10072 9.27244 6.12275 9.38128 6.16553 9.48274C6.20831 9.58421 6.271 9.6763 6.34998 9.7537C6.42832 9.83175 6.52152 9.89369 6.6242 9.93596C6.72689 9.97824 6.83703 10 6.94827 10C7.05951 10 7.16965 9.97824 7.27233 9.93596C7.37502 9.89369 7.46822 9.83175 7.54655 9.7537L11.7598 5.59047C11.8365 5.51128 11.8967 5.4179 11.9368 5.3157C12.0211 5.11298 12.0211 4.8856 11.9368 4.68288Z" fill="#0E101A" fill-opacity="0.64"/>
</svg>
