<svg width="17" height="17" viewBox="0 0 17 17" fill="none" xmlns="http://www.w3.org/2000/svg">
<path opacity="0.64" d="M7.2184 3.28128C7.49811 3.23829 7.78071 3.21691 8.06369 3.21732C10.5996 3.21732 12.984 5.04841 14.3715 8.01494C14.1593 8.46639 13.9196 8.90434 13.6538 9.32629C13.5694 9.45728 13.5251 9.61014 13.5262 9.76608C13.528 9.94058 13.5867 10.1097 13.6933 10.2477C13.7999 10.3856 13.9485 10.4848 14.1166 10.5301C14.2847 10.5754 14.4629 10.5643 14.6241 10.4986C14.7854 10.4328 14.9207 10.316 15.0095 10.1659C15.381 9.58051 15.7038 8.96539 15.9744 8.32679C16.0172 8.22702 16.0392 8.11955 16.0392 8.01094C16.0392 7.90234 16.0172 7.79487 15.9744 7.6951C14.3635 3.94496 11.3332 1.61811 8.06369 1.61811C7.68942 1.61621 7.31575 1.64833 6.94726 1.71406C6.84254 1.73191 6.74235 1.77027 6.65241 1.82694C6.56248 1.88362 6.48455 1.9575 6.42309 2.04438C6.36163 2.13125 6.31783 2.22941 6.2942 2.33325C6.27058 2.4371 6.26758 2.54459 6.28538 2.6496C6.30318 2.7546 6.34144 2.85506 6.39796 2.94524C6.45449 3.03543 6.52817 3.11356 6.61481 3.17519C6.70145 3.23682 6.79934 3.28073 6.90291 3.30442C7.00647 3.32811 7.11367 3.33112 7.2184 3.31327V3.28128ZM1.45284 0.250782C1.37849 0.176228 1.29022 0.117089 1.19307 0.0767403C1.09592 0.036392 0.991801 0.015625 0.88665 0.015625C0.781499 0.015625 0.677377 0.036392 0.58023 0.0767403C0.483084 0.117089 0.394814 0.176228 0.320461 0.250782C0.170298 0.40135 0.0859375 0.605565 0.0859375 0.818501C0.0859375 1.03144 0.170298 1.23565 0.320461 1.38622L2.79255 3.857C1.66462 4.94568 0.766918 6.251 0.152996 7.6951C0.109086 7.79598 0.0864214 7.90487 0.0864214 8.01494C0.0864214 8.12501 0.109086 8.2339 0.152996 8.33478C1.76384 12.0849 4.79415 14.4118 8.06369 14.4118C9.4968 14.4019 10.8961 13.974 12.0908 13.1804L14.6745 15.7791C14.7487 15.854 14.8369 15.9135 14.9341 15.9541C15.0312 15.9947 15.1355 16.0156 15.2407 16.0156C15.346 16.0156 15.4502 15.9947 15.5474 15.9541C15.6446 15.9135 15.7328 15.854 15.8069 15.7791C15.8817 15.7048 15.941 15.6163 15.9815 15.5189C16.022 15.4215 16.0428 15.3169 16.0428 15.2114C16.0428 15.1058 16.022 15.0013 15.9815 14.9039C15.941 14.8064 15.8817 14.718 15.8069 14.6437L1.45284 0.250782ZM6.52462 7.59915L8.47837 9.55818C8.34359 9.59693 8.2039 9.61579 8.06369 9.61415C7.6407 9.61415 7.23503 9.44566 6.93593 9.14575C6.63683 8.84584 6.46879 8.43908 6.46879 8.01494C6.46716 7.87436 6.48597 7.73429 6.52462 7.59915ZM8.06369 12.8126C5.5278 12.8126 3.14343 10.9815 1.76384 8.01494C2.27907 6.87451 3.01031 5.84528 3.91696 4.98444L5.32844 6.41573C4.9969 7.02247 4.8705 7.72064 4.9682 8.40551C5.0659 9.09039 5.38244 9.72503 5.87033 10.2142C6.35822 10.7034 6.99115 11.0208 7.67417 11.1188C8.3572 11.2168 9.05349 11.09 9.65859 10.7576L10.9265 12.013C10.0582 12.5254 9.07121 12.8011 8.06369 12.8126Z" fill="#548CA8"/>
</svg>
