<svg width="35" height="40" viewBox="0 0 35 40" fill="none" xmlns="http://www.w3.org/2000/svg">
<path d="M20.1463 24.2529H18.4775V26.7418H20.1463C20.8151 26.7418 21.345 26.1517 21.345 25.5317C21.345 24.8331 20.8151 24.253 20.1463 24.253V24.2529Z" fill="#FF9903"/>
<path d="M28.75 18.75H1.25C0.5625 18.75 0 19.3125 0 20V32.5C0 33.1875 0.5625 33.75 1.25 33.75H28.75C29.4386 33.75 30 33.1875 30 32.5V20C30 19.3125 29.4386 18.75 28.75 18.75ZM12.1814 30H7.86393C7.23391 30 6.98393 29.3901 7.34384 28.9601L10.9027 24.2338H7.95263C7.08377 24.2338 7.15377 23.005 7.95263 23.005H11.9813C12.74 23.005 12.9601 23.7237 12.4214 24.3039L9.01257 28.7313H12.2614C13.06 28.7299 13.1599 30 12.1814 30H12.1814ZM15.3862 29.3901C15.3862 30.2201 14.0662 30.2399 14.0662 29.3901V23.685C14.0662 22.865 15.3862 22.8351 15.3862 23.685V29.3901ZM20.1463 27.9914H18.4775V29.3113C18.4775 29.7525 18.1974 30.0014 17.8374 30.0014C17.5074 30.0014 17.1575 29.7525 17.1575 29.3113V23.6852C17.1575 23.3551 17.4175 22.9941 17.8374 22.9941H20.1463C21.4452 22.9941 22.615 23.8641 22.615 25.5329C22.615 27.1113 21.4451 27.9913 20.1463 27.9913L20.1463 27.9914Z" fill="#FF9903"/>
<path d="M33.75 9.48214L25.5178 1.25C24.7952 0.525143 23.5253 0 22.5002 0H8.75024C6.68274 0 5.00024 1.6825 5.00024 3.75V16.25C5.00024 16.9411 5.55912 17.5 6.25024 17.5C6.94137 17.5 7.50024 16.9411 7.50024 16.25V3.75C7.50024 3.06139 8.06023 2.5 8.75024 2.5H20.0002C21.3814 2.5 22.5002 3.62 22.5002 5V9.6875C22.5002 11.2349 23.7678 12.5 25.3127 12.5H30.0002C31.3814 12.5 32.5002 13.62 32.5002 15V36.25C32.5002 36.9386 31.9414 37.5 31.2502 37.5H8.75024C8.06023 37.5 7.50024 36.9386 7.50024 36.25C7.50024 35.5589 6.94137 35 6.25024 35C5.55912 35 5.00024 35.5589 5.00024 36.25C5.00024 38.3175 6.68274 40 8.75024 40H31.2502C33.3177 40 35.0002 38.3175 35.0002 36.25V12.5C35.0002 11.4763 34.4751 10.2062 33.7502 9.48243L33.75 9.48214Z" fill="#FF9903"/>
</svg>
